<?xml version="1.0" encoding="UTF-8"?>
<svg version="1.1" xmlns="http://www.w3.org/2000/svg" width="512" height="512">
<path d="M0 0 C1.59457168 -0.00175311 3.18914221 -0.00526703 4.78370667 -0.01037598 C9.14453809 -0.01929576 13.50497241 -0.00336635 17.86575347 0.01672715 C22.64835284 0.03426152 27.43093547 0.02834426 32.2135582 0.02545547 C41.48689405 0.02333342 50.76007431 0.04175785 60.03337024 0.06746079 C70.76540572 0.0963137 81.49734836 0.09944267 92.22943115 0.1026001 C120.54993099 0.12358287 148.87039631 0.17942754 177.19085693 0.23101807 C240.46835693 0.31351807 303.74585693 0.39601807 368.94085693 0.48101807 C368.94085693 169.44101807 368.94085693 338.40101807 368.94085693 512.48101807 C305.64273193 512.56351807 242.34460693 512.64601807 177.12835693 512.73101807 C147.12901245 512.78564209 147.12901245 512.78564209 116.52362061 512.84136963 C92.13482666 512.85943604 92.13482666 512.85943604 80.72377014 512.86279297 C72.74003904 512.86652527 64.75641972 512.88120709 56.77272034 512.90332031 C47.56464151 512.9287871 38.35667002 512.94036056 29.14855571 512.93479787 C24.43848438 512.93238881 19.72865292 512.93620082 15.01862562 512.95787859 C10.75614415 512.97737715 6.49407166 512.97829039 2.2315712 512.9646225 C0.6939121 512.96293149 -0.8437729 512.96795971 -2.38138139 512.98054838 C-16.32429503 513.08795515 -28.6207504 510.04699224 -39.25054932 500.51617432 C-52.18724721 486.94123327 -53.36279326 471.79646187 -53.31983948 454.03475952 C-53.32286289 452.26101549 -53.32675332 450.48727276 -53.33143204 448.71353233 C-53.34169628 443.85659385 -53.33953423 438.99972933 -53.33525145 434.14278483 C-53.33278138 428.8979569 -53.34180186 423.65314663 -53.34928894 418.4083252 C-53.36202999 408.13991971 -53.36383038 397.87154039 -53.36148868 387.60312833 C-53.35970475 379.25583091 -53.36145676 370.90854143 -53.36571312 362.56124496 C-53.36630831 361.37265921 -53.3669035 360.18407345 -53.36751672 358.95946994 C-53.36872849 356.54476405 -53.36994262 354.13005817 -53.3711591 351.71535228 C-53.38203228 329.0768289 -53.37987315 306.43832043 -53.37377425 283.79979621 C-53.36860488 263.09623572 -53.37986148 242.39272228 -53.39887247 221.68917109 C-53.4182511 200.42195873 -53.42650685 179.15476862 -53.42274922 157.88754737 C-53.42083727 145.95114015 -53.42332422 134.01477297 -53.43746376 122.07837296 C-53.44937879 111.9171915 -53.450781 101.75607475 -53.43867359 91.5948924 C-53.43278592 86.41266232 -53.43168252 81.23055059 -53.44367599 76.0483284 C-53.45453779 71.29983852 -53.45142782 66.55156576 -53.43741431 61.80308603 C-53.43476823 60.08985851 -53.43713112 58.37661396 -53.44515017 56.66340317 C-53.51812752 39.9023962 -51.12632198 25.11598158 -39.21539307 12.51617432 C-27.91351016 1.8489986 -15.02031717 -0.12322623 0 0 Z " fill="#D94953" transform="translate(98.05914306640625,-0.48101806640625)"/>
<path d="M0 0 C0 138.6 0 277.2 0 420 C123.75 420 247.5 420 375 420 C375 450.36 375 480.72 375 512 C326.14050876 512.08819097 277.28109262 512.16204412 228.42154456 512.20426132 C222.65253022 512.20926411 216.88351604 512.2144414 211.11450195 512.21972656 C209.96600068 512.2207758 208.81749941 512.22182505 207.63419507 512.22290608 C189.04063665 512.24030877 170.44712773 512.27184573 151.85359868 512.30861118 C132.77328927 512.34602435 113.69300577 512.36823666 94.61266118 512.37635398 C82.8401586 512.38184095 71.06779592 512.39916787 59.2953364 512.43166587 C51.22125725 512.45281836 43.14725038 512.45919836 35.07314553 512.45400551 C30.415599 512.4514449 25.75829686 512.45535549 21.10079384 512.4768219 C16.83239665 512.49635084 12.5644072 512.49722906 8.29599086 512.48359558 C6.7560932 512.48191169 5.21616963 512.4869321 3.6763226 512.49953273 C-10.26600311 512.60694113 -22.56211569 509.56551837 -33.19140625 500.03515625 C-46.12810414 486.4602152 -47.30365019 471.31544381 -47.26069641 453.55374146 C-47.26371982 451.77999743 -47.26761025 450.0062547 -47.27228898 448.23251426 C-47.28255321 443.37557579 -47.28039117 438.51871126 -47.27610838 433.66176677 C-47.27363832 428.41693883 -47.2826588 423.17212857 -47.29014587 417.92730713 C-47.30288692 407.65890165 -47.30468732 397.39052232 -47.30234561 387.12211026 C-47.30056169 378.77481285 -47.30231369 370.42752337 -47.30657005 362.0802269 C-47.30716524 360.89164114 -47.30776043 359.70305538 -47.30837366 358.47845187 C-47.30958542 356.06374598 -47.31079956 353.6490401 -47.31201603 351.23433422 C-47.32288921 328.59581084 -47.32073008 305.95730236 -47.31463119 283.31877814 C-47.30946182 262.61521765 -47.32071841 241.91170421 -47.33972941 221.20815302 C-47.35910803 199.94094066 -47.36736379 178.67375056 -47.36360615 157.40652931 C-47.3616942 145.47012208 -47.36418115 133.53375491 -47.37832069 121.59735489 C-47.39023573 111.43617343 -47.39163794 101.27505668 -47.37953053 91.11387433 C-47.37364285 85.93164425 -47.37253945 80.74953252 -47.38453293 75.56731033 C-47.39539472 70.81882046 -47.39228476 66.07054769 -47.37827124 61.32206796 C-47.37562516 59.60884044 -47.37798805 57.89559589 -47.38600711 56.1823851 C-47.45898445 39.42137814 -45.06717891 24.63496351 -33.15625 12.03515625 C-23.38729805 2.81482298 -13.3084878 0 0 0 Z " fill="#C32430" transform="translate(92,0)"/>
<path d="M0 0 C1.16091876 -0.00913666 1.16091876 -0.00913666 2.34529042 -0.01845789 C4.92917655 -0.035058 7.51256825 -0.03031639 10.09649658 -0.0255127 C11.95305899 -0.0328549 13.80961682 -0.04144157 15.66616821 -0.05117798 C20.70355423 -0.07339011 25.74077665 -0.07632469 30.77820492 -0.07443047 C34.98772419 -0.07431072 39.19720886 -0.08287692 43.40671849 -0.09120798 C53.34207167 -0.1104421 63.27734083 -0.11332631 73.21270752 -0.10656738 C83.44994535 -0.09993093 93.68682247 -0.1227751 103.92398715 -0.15988111 C112.72251417 -0.19061125 121.52092538 -0.20193441 130.31950498 -0.1980443 C135.57027883 -0.19597972 140.82077217 -0.20141073 146.07149506 -0.22593689 C151.01287007 -0.24825529 155.95366054 -0.24628378 160.8950386 -0.22600937 C162.70336235 -0.222608 164.51172582 -0.22765061 166.31999588 -0.24199295 C176.68072526 -0.31846489 185.98975449 -0.30891432 194.02332687 7.14981842 C200.55586795 13.98976276 201.57849218 20.95086228 201.53668213 30.05212402 C201.54354538 31.10182877 201.55040863 32.15153351 201.55747986 33.23304749 C201.57572704 36.69061956 201.57191285 40.14773694 201.56622314 43.60534668 C201.57078621 46.01758979 201.57609216 48.4298316 201.58210754 50.84207153 C201.59103481 55.89407639 201.58862009 60.94592315 201.57867432 65.9979248 C201.56719055 72.45962488 201.5873897 78.920778 201.61659145 85.38240623 C201.63497288 90.36338751 201.63465697 95.34423821 201.62895393 100.3252449 C201.62880093 102.70698437 201.63482783 105.08873281 201.64724541 107.47043991 C201.66218812 110.80660655 201.65145282 114.1417692 201.63433838 117.47790527 C201.64884033 118.94171883 201.64884033 118.94171883 201.66363525 120.43510437 C201.5694059 129.24465605 199.0188087 135.79048 193.13262939 142.39440918 C183.71373283 149.44927113 173.93127036 149.24387545 162.74713135 149.13903809 C160.91761449 149.14390289 159.08810297 149.15135021 157.25860596 149.16116333 C152.32263117 149.17986285 147.38745777 149.16123428 142.45154595 149.13449907 C137.27079269 149.11174984 132.09007541 149.12009407 126.9092865 149.12399292 C118.21496596 149.12575463 109.52095856 149.10368214 100.82672119 149.06677246 C90.78930319 149.02440335 80.75234292 149.01742834 70.71485358 149.02989638 C61.03560708 149.04130156 51.35652097 149.02997394 41.67729759 149.00754929 C37.56785285 148.99828501 33.45850665 148.99649748 29.34905434 149.00072098 C24.50856258 149.00449982 19.66853403 148.98817993 14.82814789 148.95660019 C13.05651199 148.94814675 11.28482894 148.94639164 9.51318169 148.95198059 C-7.76306839 148.99819752 -7.76306839 148.99819752 -14.86737061 144.39440918 C-15.43238627 144.03643564 -15.99740194 143.6784621 -16.5795393 143.30964088 C-21.73115112 139.5586542 -23.91497135 134.25160694 -25.86737061 128.39440918 C-25.96414661 126.93226365 -26.00652033 125.46616199 -26.01454163 124.00083923 C-26.02169693 123.1024382 -26.02885223 122.20403717 -26.03622437 121.27841187 C-26.03891327 120.29502838 -26.04160217 119.3116449 -26.04437256 118.29846191 C-26.05094376 117.26070114 -26.05751495 116.22294037 -26.06428528 115.1537323 C-26.08402952 111.71182179 -26.09568531 108.269955 -26.10565186 104.82800293 C-26.10972738 103.65171892 -26.11380291 102.47543491 -26.11800194 101.26350594 C-26.1388705 95.03394877 -26.15316712 88.80441367 -26.16253662 82.5748291 C-26.17358428 76.15127607 -26.2079634 69.72807104 -26.24770832 63.30464077 C-26.27390527 58.35709506 -26.28223137 53.40963174 -26.2858181 48.46202278 C-26.29067844 46.09504924 -26.30227655 43.72807924 -26.32085609 41.36117363 C-26.34530524 38.03921183 -26.34427119 34.71814312 -26.33734131 31.39611816 C-26.35015137 30.4269043 -26.36296143 29.45769043 -26.37615967 28.45910645 C-26.3191092 20.91566092 -24.74617452 13.97834523 -19.93768311 7.99206543 C-19.29572998 7.48546387 -18.65377686 6.9788623 -17.99237061 6.45690918 C-17.35557373 5.93226074 -16.71877686 5.4076123 -16.06268311 4.86706543 C-10.71399738 1.27906807 -6.40879081 -0.04775724 0 0 Z " fill="#DEE8ED" transform="translate(179.86737060546875,135.6055908203125)"/>
<path d="M0 0 C1.57845777 -0.00218196 3.15691377 -0.00656278 4.73536015 -0.01294583 C9.06151836 -0.0241044 13.38705542 -0.00415645 17.71313453 0.02094448 C22.3824303 0.04256191 27.05169181 0.03522814 31.72102356 0.03143311 C39.80717245 0.02881293 47.89311942 0.04448379 55.97921753 0.0726223 C67.67028428 0.11327909 79.36125352 0.12628176 91.0523833 0.13256226 C110.02098014 0.14350201 128.98946939 0.17676759 147.95800781 0.22407532 C166.38280703 0.26997914 184.80757701 0.30536704 203.23242188 0.32661438 C204.3683654 0.327928 205.50430893 0.32924161 206.67467499 0.33059504 C212.37344088 0.33712029 218.07220697 0.34343881 223.77097321 0.34965456 C271.03863727 0.40147763 318.30616987 0.49091154 365.57373047 0.60127258 C365.57373047 13.80127258 365.57373047 27.00127258 365.57373047 40.60127258 C317.15575038 40.69166802 268.73779051 40.76329478 220.3197428 40.8055339 C214.60565847 40.81053682 208.89157431 40.8157141 203.17749023 40.82099915 C202.03990218 40.82204839 200.90231412 40.82309763 199.7302537 40.82417867 C181.30212253 40.8415916 162.87404119 40.8731342 144.44593959 40.90988377 C125.54193145 40.94726844 106.63794944 40.9695032 87.73390585 40.97762656 C76.06580343 40.98311946 64.39784185 41.00047845 52.72978277 41.03293845 C44.73235602 41.05405579 36.73500227 41.06047893 28.73754966 41.05527809 C24.12100335 41.05271199 19.50470344 41.0566905 14.88820076 41.07809448 C10.66195422 41.09754622 6.43611999 41.09855164 2.20985455 41.08486816 C0.68079509 41.08317675 -0.84829 41.08826277 -2.37729896 41.10080531 C-11.28482466 41.16962679 -17.58148645 41.08897006 -24.38720703 34.78486633 C-24.85384766 34.2086554 -25.32048828 33.63244446 -25.80126953 33.03877258 C-26.52443359 32.17058899 -26.52443359 32.17058899 -27.26220703 31.28486633 C-30.74624622 26.24587006 -30.13496147 19.41529871 -29.42626953 13.60127258 C-27.98299066 10.25137438 -26.1958984 7.95752401 -23.42626953 5.60127258 C-22.960264 5.18990722 -22.49425846 4.77854186 -22.01413155 4.35471088 C-15.33194334 -0.69978356 -7.98191456 -0.08201331 0 0 Z " fill="#DEE9EE" transform="translate(101.42626953125,445.3987274169922)"/>
<path d="M0 0 C1.92611722 -0.00542681 3.85223029 -0.0125526 5.77833557 -0.02124023 C10.98703078 -0.03940994 16.19540757 -0.03243231 21.40410805 -0.01972389 C26.86735487 -0.00956326 32.33057529 -0.01899806 37.79382324 -0.02526855 C46.96660228 -0.03253604 56.13925229 -0.02298082 65.31201172 -0.00390625 C75.90147667 0.0178607 86.49063351 0.01080869 97.080091 -0.01121187 C106.18868052 -0.02939146 115.29717755 -0.03191168 124.40577936 -0.0214572 C129.83864037 -0.01523635 135.27135678 -0.01434784 140.70420837 -0.02760315 C145.81302681 -0.03919826 150.92144982 -0.03106909 156.03022575 -0.00802612 C157.89981875 -0.00275857 159.7694453 -0.00421916 161.63902473 -0.01307678 C175.79091903 -0.07391923 186.23450209 1.40844996 196.93945312 11.51757812 C203.92165288 19.17766135 208.02250504 26.87830151 208.09335327 37.40394592 C208.10195374 38.36110504 208.1105542 39.31826416 208.11941528 40.3044281 C208.12580521 41.86218712 208.12580521 41.86218712 208.13232422 43.45141602 C208.14050171 44.55453125 208.1486792 45.65764648 208.15710449 46.79418945 C208.18190398 50.44286565 208.19846237 54.09150303 208.21289062 57.74023438 C208.2182143 58.98941587 208.22353798 60.23859737 208.22902298 61.52563286 C208.25024135 66.78004783 208.26936983 72.03445703 208.28064537 77.28890324 C208.2968496 84.78778395 208.32995534 92.28614378 208.38704622 99.78482825 C208.43062939 105.71414042 208.44641193 111.64333841 208.45277786 117.57281303 C208.45947221 120.08328391 208.47464651 122.59374776 208.49866867 125.10411263 C208.53047086 128.62913085 208.53033341 132.15285309 208.52294922 135.67797852 C208.53935455 136.70231491 208.55575989 137.72665131 208.57266235 138.7820282 C208.48232138 149.39140512 204.49085287 159.90051404 196.93945312 167.51757812 C186.90965623 175.75396763 177.97637771 178.67390959 164.98979187 178.65802002 C164.21907516 178.66099114 163.44835845 178.66396226 162.65428668 178.66702342 C160.08746572 178.67565276 157.52069171 178.67721374 154.95385742 178.67871094 C153.1070038 178.68334312 151.26015113 178.68836832 149.41329956 178.6937561 C144.4070043 178.70684169 139.40072243 178.71331729 134.39441276 178.71776676 C131.26370614 178.72070309 128.13300314 178.72480891 125.00229836 178.72927094 C115.19816947 178.74293441 105.3940489 178.75260726 95.58991116 178.75647283 C84.28841741 178.76095389 72.98704458 178.77850894 61.68558758 178.80747342 C52.93801397 178.82911147 44.19047434 178.83917821 35.44287425 178.84051394 C30.22347755 178.84156025 25.00419471 178.84743115 19.78482628 178.86533356 C14.87394019 178.88185144 9.96325311 178.88395171 5.05234909 178.87519455 C3.25531162 178.87442622 1.45826327 178.87873978 -0.33874702 178.8886528 C-15.34529581 178.96654701 -26.45013586 177.36261927 -37.87304688 166.95507812 C-46.36474791 157.49289697 -49.83496014 148.26182774 -49.69165039 135.57373047 C-49.69880569 134.44687332 -49.705961 133.32001617 -49.71333313 132.15901184 C-49.73009616 128.47342065 -49.71089119 124.78906704 -49.68945312 121.10351562 C-49.69028284 118.52145284 -49.69274608 115.93939012 -49.69676208 113.35733032 C-49.69961149 107.9626524 -49.68553847 102.568424 -49.6574707 97.17382812 C-49.62539509 90.96152717 -49.62545361 84.74985407 -49.64268547 78.53750837 C-49.65861599 72.52637383 -49.65167607 66.51552833 -49.63474846 60.50438309 C-49.62958433 57.96160009 -49.63002684 55.41879904 -49.63629341 52.87601852 C-49.64177269 49.3178351 -49.62128277 45.76070047 -49.59399414 42.20263672 C-49.60052002 41.16340561 -49.6070459 40.1241745 -49.61376953 39.05345154 C-49.47088436 28.03919277 -45.57360144 19.50576657 -38.06054688 11.51757812 C-26.48054805 0.62635246 -15.14325289 -0.07174512 0 0 Z M-29.77148438 25.38085938 C-33.90159342 32.22682801 -34.50096226 38.38612853 -34.46459961 46.19702148 C-34.47146286 47.23711868 -34.47832611 48.27721588 -34.48539734 49.34883118 C-34.50361776 52.7685024 -34.49983455 56.18771277 -34.49414062 59.60742188 C-34.4987046 61.99581551 -34.50401082 64.38420784 -34.51002502 66.77259827 C-34.51894675 71.77154891 -34.51654345 76.77033972 -34.5065918 81.76928711 C-34.49510203 88.16257928 -34.5153192 94.55531914 -34.54450893 100.94853878 C-34.56288979 105.87890606 -34.56257468 110.80914142 -34.55687141 115.73953438 C-34.55671844 118.09615415 -34.56274292 120.45278299 -34.57516289 122.80937004 C-34.59010658 126.10950866 -34.57937007 129.4086325 -34.56225586 132.70874023 C-34.57192383 133.67369415 -34.5815918 134.63864807 -34.59155273 135.63284302 C-34.5089404 143.27348985 -32.33743417 148.80709513 -28.37304688 155.26757812 C-22.17197039 161.30105794 -15.16503643 163.66412268 -6.68128967 163.6782074 C-5.9235689 163.68329522 -5.16584812 163.68838304 -4.38516611 163.69362503 C-1.83824082 163.70935965 0.70865606 163.7178774 3.25561523 163.72631836 C5.07893046 163.73585633 6.90224388 163.74574747 8.72555542 163.75596619 C14.72261402 163.78736905 20.71968653 163.8076255 26.71679688 163.82617188 C28.24817822 163.83111786 28.24817822 163.83111786 29.81049657 163.83616376 C39.44345776 163.86695444 49.07642209 163.89365701 58.7094183 163.91058254 C71.01999788 163.93246725 83.33014008 163.97438553 95.64054483 164.04402012 C104.30144056 164.09134106 112.96221866 164.11552723 121.62323958 164.12277943 C126.79262124 164.12772501 131.96151012 164.14270098 137.13075066 164.18252373 C142.00070964 164.21954461 146.8698976 164.22774927 151.73997116 164.21451759 C153.52006562 164.21457129 155.30019557 164.22476531 157.08016014 164.24626923 C167.54976222 164.36591182 176.08343636 163.89972946 184.93945312 157.51757812 C192.0974469 150.23971534 193.23915831 142.87459366 193.24584961 132.98925781 C193.25833488 131.41732918 193.25833488 131.41732918 193.27107239 129.81364441 C193.295131 126.35554263 193.3039399 122.89762968 193.31054688 119.43945312 C193.31951687 117.02817734 193.32863878 114.61690211 193.33790588 112.20562744 C193.35438757 107.15188242 193.36209443 102.09820357 193.36499023 97.04443359 C193.37037074 90.58386299 193.40804172 84.12391857 193.4537344 77.66352463 C193.48354813 72.68251298 193.49071476 67.70165127 193.49171638 62.72055817 C193.49591064 60.33962387 193.50831275 57.95868879 193.52923393 55.57784271 C193.55623417 52.23925885 193.55129589 48.90211561 193.53881836 45.56347656 C193.55365265 44.58962509 193.56848694 43.61577362 193.58377075 42.6124115 C193.50269439 34.95439565 191.43757489 28.34304288 186.1839819 22.59783554 C180.24841276 17.03525818 173.97120999 15.06317252 165.94509888 15.12316895 C165.16959305 15.11707784 164.39408722 15.11098674 163.59508121 15.10471106 C161.01196652 15.0881414 158.42934803 15.09284813 155.84619141 15.09765625 C153.987859 15.09031241 152.12953114 15.08172526 150.27120972 15.07199097 C145.23395 15.04979947 140.19685398 15.04684311 135.1595521 15.04873848 C130.94988841 15.04885829 126.74025926 15.04028984 122.5306052 15.03196096 C112.59671459 15.01273539 102.66290802 15.00984 92.72900391 15.01660156 C82.49115743 15.02324194 72.25367127 15.00037609 62.01589787 14.96328783 C53.21651706 14.93257059 44.41725205 14.921233 35.61781871 14.92512465 C30.36653274 14.92719004 25.1155272 14.92174514 19.86429214 14.89723206 C14.92454835 14.87493411 9.98538957 14.87686821 5.04564285 14.89715958 C3.23689823 14.90056421 1.42811399 14.89550413 -0.38057709 14.88117599 C-12.59733429 14.79110493 -21.4120447 15.67706537 -29.77148438 25.38085938 Z " fill="#C32430" transform="translate(188.060546875,120.482421875)"/>
<path d="M0 0 C22.11 0 44.22 0 67 0 C67 32.67 67 65.34 67 99 C62.48908298 95.13349969 58.1637783 91.32742126 54 87.125 C53.22245361 86.34455322 53.22245361 86.34455322 52.42919922 85.54833984 C48.98591077 82.06630229 45.71636501 78.47191268 42.51953125 74.76171875 C40.11343762 71.97213462 37.792219 69.41992314 35 67 C31.76106554 67.2786308 30.22578066 68.43710448 28.109375 70.81640625 C27.57207764 71.4086499 27.03478027 72.00089355 26.48120117 72.61108398 C25.90990479 73.25505127 25.3386084 73.89901855 24.75 74.5625 C23.5142495 75.92157624 22.27586136 77.27825782 21.03515625 78.6328125 C20.38434082 79.3434082 19.73352539 80.05400391 19.06298828 80.78613281 C15.5216348 84.58648706 11.86092758 88.26531625 8.1875 91.9375 C7.48786133 92.64140869 6.78822266 93.34531738 6.06738281 94.07055664 C5.41995117 94.71629639 4.77251953 95.36203613 4.10546875 96.02734375 C3.24151489 96.88960571 3.24151489 96.88960571 2.36010742 97.76928711 C1 99 1 99 0 99 C0 66.33 0 33.66 0 0 Z " fill="#F3DB45" transform="translate(144,0)"/>
<path d="M0 0 C1.28570892 -0.01134979 2.57141785 -0.02269958 3.89608765 -0.03439331 C5.32395997 -0.03174988 6.75183172 -0.02877863 8.17970276 -0.0255127 C9.68103163 -0.03285076 11.18235485 -0.04143622 12.68367004 -0.05117798 C16.76425914 -0.07343039 20.84464652 -0.07632282 24.92528796 -0.07443047 C28.32997948 -0.07431094 31.73462798 -0.08286783 35.13930756 -0.09120798 C43.17054258 -0.11045542 51.20167365 -0.11332099 59.23292542 -0.10656738 C67.52245409 -0.09992496 75.81153797 -0.12279573 84.10097641 -0.15988111 C91.21444247 -0.1905525 98.32776527 -0.20194096 105.44129616 -0.1980443 C109.69149384 -0.19597415 113.94134546 -0.20149656 118.19148064 -0.22593689 C122.18813083 -0.24815959 126.18405667 -0.24636435 130.18070984 -0.22600937 C131.64807762 -0.22259131 133.11549373 -0.22772277 134.5827961 -0.24199295 C136.58458117 -0.26011891 138.58658751 -0.24446419 140.58837891 -0.22705078 C141.70906989 -0.22776329 142.82976088 -0.2284758 143.98441219 -0.2292099 C146.85768127 0.39440918 146.85768127 0.39440918 149.24951267 2.70668793 C150.85768127 5.39440918 150.85768127 5.39440918 150.85768127 9.01940918 C149.73125067 12.82111246 149.21629291 13.49564127 145.85768127 15.39440918 C143.02123356 15.77751923 143.02123356 15.77751923 139.67776489 15.78881836 C138.40895477 15.80016815 137.14014465 15.81151794 135.83288574 15.82321167 C134.42912229 15.82056841 133.02535943 15.81759719 131.62159729 15.81433105 C130.14144754 15.82167141 128.66130352 15.83025754 127.1811676 15.83999634 C123.16255123 15.86222426 119.14413981 15.86514242 115.1254704 15.86324883 C111.7705293 15.86312919 108.41563174 15.87169052 105.06070274 15.88002634 C97.14591283 15.89926484 89.2312284 15.90214254 81.31642151 15.89538574 C73.1512893 15.88874353 64.98660868 15.91161527 56.82156807 15.94869947 C49.81082508 15.97938569 42.80022745 15.99075772 35.78941864 15.98686266 C31.60235905 15.98479411 27.41565087 15.99029045 23.22865486 16.01475525 C19.29108076 16.03700251 15.35424145 16.0351622 11.41666412 16.01482773 C9.97229124 16.01141407 8.52786909 16.0165223 7.08356285 16.03081131 C5.11064639 16.04898198 3.13750479 16.0332595 1.1645813 16.01586914 C0.06085961 16.01658165 -1.04286207 16.01729416 -2.18002987 16.01802826 C-6.14390632 15.18355562 -7.67480498 13.54377289 -10.14231873 10.39440918 C-10.14231873 6.92817742 -9.97622427 4.58751791 -7.96371365 1.70812225 C-5.30626381 -0.20861011 -3.2561319 0.01083731 0 0 Z " fill="#665E66" transform="translate(197.14231872558594,181.6055908203125)"/>
<path d="M0 0 C1.28570892 -0.01134979 2.57141785 -0.02269958 3.89608765 -0.03439331 C5.32395997 -0.03174988 6.75183172 -0.02877863 8.17970276 -0.0255127 C9.68103163 -0.03285076 11.18235485 -0.04143622 12.68367004 -0.05117798 C16.76425914 -0.07343039 20.84464652 -0.07632282 24.92528796 -0.07443047 C28.32997948 -0.07431094 31.73462798 -0.08286783 35.13930756 -0.09120798 C43.17054258 -0.11045542 51.20167365 -0.11332099 59.23292542 -0.10656738 C67.52245409 -0.09992496 75.81153797 -0.12279573 84.10097641 -0.15988111 C91.21444247 -0.1905525 98.32776527 -0.20194096 105.44129616 -0.1980443 C109.69149384 -0.19597415 113.94134546 -0.20149656 118.19148064 -0.22593689 C122.18813083 -0.24815959 126.18405667 -0.24636435 130.18070984 -0.22600937 C131.64807762 -0.22259131 133.11549373 -0.22772277 134.5827961 -0.24199295 C136.58458117 -0.26011891 138.58658751 -0.24446419 140.58837891 -0.22705078 C141.70906989 -0.22776329 142.82976088 -0.2284758 143.98441219 -0.2292099 C146.85768127 0.39440918 146.85768127 0.39440918 149.22216892 2.77309418 C151.06158917 5.72122226 151.46777553 6.99531261 150.85768127 10.39440918 C149.05596664 13.48306284 148.31344137 14.24248915 144.85768127 15.39440918 C142.85237774 15.4962541 140.84384548 15.53810923 138.83598328 15.54830933 C136.94745132 15.56121002 136.94745132 15.56121002 135.02076721 15.57437134 C133.62281841 15.5788064 132.22486916 15.58310478 130.82691956 15.58728027 C129.35677395 15.59518261 127.88663028 15.60345164 126.41648865 15.61206055 C121.58700915 15.63825966 116.75752106 15.65358341 111.92799377 15.66784668 C110.26547617 15.67320672 108.60295862 15.67858423 106.94044113 15.68397903 C100.02617964 15.70560228 93.11192048 15.72434009 86.19763374 15.73560143 C76.28682864 15.7518496 66.37641501 15.78505445 56.46575749 15.84200227 C49.49752357 15.88067915 42.52939447 15.90023127 35.56105602 15.90552199 C31.39853413 15.90917781 27.23642998 15.92122345 23.0740242 15.95362473 C19.15867458 15.9836671 15.2439963 15.99003135 11.32855606 15.97824097 C9.89222717 15.97801992 8.45586745 15.98635064 7.01964569 16.00389481 C5.05767678 16.02655553 3.09540389 16.01531659 1.13334656 16.00241089 C0.0357004 16.00572104 -1.06194576 16.00903118 -2.19285393 16.01244164 C-6.15038023 15.18317942 -7.67878286 13.53676674 -10.14231873 10.39440918 C-10.14231873 6.92817742 -9.97622427 4.58751791 -7.96371365 1.70812225 C-5.30626381 -0.20861011 -3.2561319 0.01083731 0 0 Z " fill="#665E66" transform="translate(197.14231872558594,222.6055908203125)"/>
</svg>
