<?xml version="1.0" encoding="UTF-8"?>
<svg version="1.1" xmlns="http://www.w3.org/2000/svg" width="512" height="512">
<path d="M0 0 C1.00546875 0.4125 2.0109375 0.825 3.046875 1.25 C25.78556734 11.61790117 42.15335526 32.04757565 53 54 C54.08152344 53.73445313 55.16304687 53.46890625 56.27734375 53.1953125 C85.44430874 46.36495134 113.9936486 47.01698948 143 54 C143.52207031 53.00742187 144.04414063 52.01484375 144.58203125 50.9921875 C156.24378388 29.28276564 172.6268048 9.54580945 196 0 C196.94101562 -0.391875 197.88203125 -0.78375 198.8515625 -1.1875 C217.24474084 -7.63182526 237.81965421 -4.67153162 256 1 C256.68787598 1.20866699 257.37575195 1.41733398 258.08447266 1.63232422 C283.42183793 9.5412063 306.16021297 24.57257493 325 43 C325.80824219 43.74636719 326.61648438 44.49273437 327.44921875 45.26171875 C341.33802696 58.37488671 353.58663604 77.50621255 354.46720123 96.96498108 C354.55556857 100.64429017 354.55336404 104.31991364 354.53125 108 C354.53395382 109.60937737 354.53784357 111.21875313 354.54284668 112.828125 C354.54870005 116.17984774 354.54031501 119.53114031 354.52148438 122.8828125 C354.49869692 127.14243836 354.51184266 131.40105552 354.53577423 135.66064453 C354.55034606 138.977614 354.54557467 142.294351 354.53526306 145.61132812 C354.53262706 147.18033981 354.53575307 148.7493738 354.54518127 150.31835938 C354.6236304 167.03490813 350.90962881 180.91751193 339.125 193.3125 C327.30451339 204.34495417 314.19667027 208.75269478 298.21826172 208.52563477 C291.30465232 208.24218078 285.29494323 206.95774767 279 204 C278.21753906 203.649375 277.43507813 203.29875 276.62890625 202.9375 C263.93550374 196.60179823 255.41152418 185.8386464 250 173 C249.98018066 173.89380371 249.96036133 174.78760742 249.93994141 175.70849609 C248.85646348 222.4776289 243.97281503 264.10809487 224 307 C227.06017629 311.12161421 230.13753045 315.19137046 233.4375 319.125 C242.2497135 330.49119573 248.37206619 345.55752227 249 360 C249.07734375 361.50046875 249.07734375 361.50046875 249.15625 363.03125 C249.78523944 386.30385922 241.90280748 406.79371089 226.08984375 423.953125 C216.85305344 433 216.85305344 433 213 433 C213.01110306 433.77150391 213.02220612 434.54300781 213.03364563 435.33789062 C213.1341344 442.63454987 213.21010904 449.93087018 213.25906086 457.2280426 C213.28507447 460.97899063 213.32031849 464.72936343 213.37719727 468.47998047 C213.43181593 472.10454908 213.46148238 475.72856701 213.47438622 479.35351562 C213.48357311 480.73137065 213.50151288 482.10919801 213.52865028 483.48681641 C213.66131403 490.5052133 213.75765244 496.40658655 209.76017761 502.37133789 C204.31450313 507.41012694 199.54816333 508.59026405 192.38476562 508.50793457 C191.54251183 508.51417453 190.70025803 508.5204145 189.83248138 508.52684355 C187.02344884 508.54273862 184.21528826 508.53018309 181.40625 508.51757812 C179.38703914 508.52300079 177.36783224 508.53012426 175.34863281 508.53881836 C169.87344645 508.55703733 164.39856193 508.54998995 158.92337036 508.53730202 C153.19044183 508.52716704 147.45753894 508.53656909 141.72460938 508.54284668 C132.0976091 508.55012161 122.47073162 508.54053935 112.84375 508.52148438 C101.71749786 508.49971601 90.59153892 508.50676748 79.46529388 508.52879 C69.90840904 508.54694831 60.35161241 508.54950018 50.79471588 508.53903532 C45.0885996 508.5328028 39.38262108 508.53195823 33.67651367 508.54518127 C28.31166881 508.55674533 22.94720158 508.54870357 17.58239746 508.52560425 C15.61479316 508.52032017 13.64715702 508.52182576 11.67956543 508.53065491 C8.99102766 508.54160585 6.30369558 508.52785244 3.61523438 508.50793457 C2.83886375 508.51685746 2.06249313 508.52578034 1.26259613 508.53497362 C-4.90982484 508.44643613 -9.14812856 506.63878765 -13.76017761 502.37133789 C-18.1248895 495.85862118 -17.63763005 489.01912695 -17.48828125 481.4375 C-17.47893984 480.03647125 -17.47183001 478.63542601 -17.46684265 477.234375 C-17.44787645 473.57120582 -17.39886935 469.90904957 -17.34332275 466.24627686 C-17.29190316 462.49895932 -17.26928055 458.75147591 -17.24414062 455.00390625 C-17.190737 447.66881222 -17.10555477 440.33454877 -17 433 C-17.77633789 432.70593262 -18.55267578 432.41186523 -19.35253906 432.10888672 C-33.15503944 426.3277214 -42.53613589 409.05650644 -48 396 C-50.46483997 388.86769709 -52.67063586 381.57537528 -53 374 C-53.0515625 372.9996875 -53.103125 371.999375 -53.15625 370.96875 C-53.79946438 347.16981792 -45.58434047 327.02609236 -29.46875 309.546875 C-28.9840625 309.03640625 -28.499375 308.5259375 -28 308 C-29.18579436 304.96896442 -30.43736913 301.97291576 -31.734375 298.98828125 C-49.54070252 257.84631625 -52.82116385 217.26889855 -54 173 C-54.3722168 173.79229004 -54.74443359 174.58458008 -55.12792969 175.40087891 C-62.59357237 190.87756702 -72.71661961 200.04045415 -88.7734375 206.23828125 C-102.02686176 210.77234744 -117.52679194 208.90130274 -130 203 C-143.82006406 195.23210588 -152.6800184 183.86650164 -157.1706543 168.75854492 C-158.68908256 161.8771192 -158.57336473 155.00848081 -158.53125 148 C-158.53395382 146.39062263 -158.53784357 144.78124687 -158.54284668 143.171875 C-158.54870005 139.82015226 -158.54031501 136.46885969 -158.52148438 133.1171875 C-158.49869692 128.85756164 -158.51184266 124.59894448 -158.53577423 120.33935547 C-158.55034606 117.022386 -158.54557467 113.705649 -158.53526306 110.38867188 C-158.53262706 108.81966019 -158.53575307 107.2506262 -158.54518127 105.68164062 C-158.65733275 81.78353332 -148.24444128 62.39108643 -131.89013672 45.46801758 C-109.08775323 22.50640663 -80.53453903 5.69897904 -49 -2 C-47.8255835 -2.28931396 -47.8255835 -2.28931396 -46.62744141 -2.58447266 C-31.72026209 -5.92928032 -14.19880192 -5.94714217 0 0 Z " fill="#CA8252" transform="translate(158,4)"/>
<path d="M0 0 C0.66 0 1.32 0 2 0 C3.04174694 1.54287884 4.0062759 3.13800326 4.9375 4.75 C14.8675397 20.73695188 28.58167951 29.57192881 45 38 C46.57244017 74.68796663 46.57244017 74.68796663 34.1875 90.125 C24.92127136 99.51669015 12.85494053 104.004666 -0.1875 104.3125 C-11.37627988 104.1980693 -21.91666542 99.46432861 -30.2265625 92 C-35.350878 86.626186 -38.31414054 80.87080326 -41 74 C-41.52013672 72.91440796 -41.52013672 72.91440796 -42.05078125 71.80688477 C-43.25117763 68.25725585 -43.2251553 65.25699019 -43.1953125 61.51171875 C-43.1924826 60.80852005 -43.18965271 60.10532135 -43.18673706 59.3808136 C-43.17560151 57.14953108 -43.15050997 54.91865983 -43.125 52.6875 C-43.1149616 51.16862562 -43.10583726 49.6497449 -43.09765625 48.13085938 C-43.07568413 44.42044079 -43.04120047 40.71026058 -43 37 C-42.21858643 36.69562012 -41.43717285 36.39124023 -40.63208008 36.07763672 C-34.49675276 33.61784459 -28.96284258 31.11517179 -23.6875 27.125 C-23.09557861 26.68647705 -22.50365723 26.2479541 -21.89379883 25.79614258 C-12.7721655 18.93068136 -5.14613179 10.29226358 0 0 Z " fill="#FE5364" transform="translate(255,408)"/>
<path d="M0 0 C0.11623525 7.94553625 0.20488615 15.89071285 0.25906086 23.83689117 C0.28507215 27.5273101 0.32031166 31.21714417 0.37719727 34.90722656 C0.43182461 38.47344141 0.46148412 42.03909643 0.47438622 45.60569763 C0.48801914 47.61756881 0.52700347 49.62921708 0.56648254 51.64074707 C0.56842788 58.03163108 0.36477579 62.96631839 -3.23982239 68.36364746 C-9.10751607 73.8185603 -14.07176182 74.57866081 -21.79077148 74.45410156 C-22.74764359 74.45468567 -23.70451569 74.45526978 -24.69038391 74.45587158 C-27.83433058 74.45309817 -30.97731393 74.42204081 -34.12109375 74.390625 C-36.30826805 74.38315998 -38.49544906 74.37746828 -40.68263245 74.37347412 C-46.42518747 74.35823844 -52.16733458 74.31897404 -57.909729 74.2746582 C-63.77504967 74.23366113 -69.64043657 74.21545361 -75.50585938 74.1953125 C-87.00408497 74.15247811 -98.5020085 74.08425152 -110 74 C-110 73.67 -110 73.34 -110 73 C-109.23816406 72.84144531 -108.47632813 72.68289063 -107.69140625 72.51953125 C-96.98980228 70.10131612 -86.98357318 65.91231184 -80.375 56.74609375 C-78.77809182 54.19503293 -77.33270364 51.70113661 -76 49 C-75.48590576 48.01507568 -75.48590576 48.01507568 -74.96142578 47.01025391 C-71.29267381 39.16835818 -71.33364959 31.34500687 -71.25 22.875 C-71.22178052 21.42704862 -71.19184495 19.97912961 -71.16015625 18.53125 C-71.08700756 15.02098508 -71.03700337 11.51085404 -71 8 C-70.20803223 8.21293701 -69.41606445 8.42587402 -68.60009766 8.64526367 C-60.72051924 10.6328789 -53.48412685 11.43888913 -45.375 11.3125 C-43.81265625 11.31733398 -43.81265625 11.31733398 -42.21875 11.32226562 C-31.98642294 11.25209381 -22.84591273 9.88052446 -13.5625 5.5 C-12.88251953 5.19191406 -12.20253906 4.88382812 -11.50195312 4.56640625 C-8.8548592 3.36059416 -6.23415021 2.12155552 -3.65234375 0.78125 C-2 0 -2 0 0 0 Z " fill="#67B8CB" transform="translate(371,438)"/>
<path d="M0 0 C4.22302214 1.36908421 8.08592925 2.9617828 12.0625 4.9375 C28.559501 12.51019743 48.16180436 13.71263403 65.671875 8.65625 C68 8 68 8 71 8 C70.99045288 9.28293945 70.99045288 9.28293945 70.98071289 10.59179688 C70.55107371 38.15311719 70.55107371 38.15311719 84.06640625 61.3984375 C90.92681017 67.08079226 98.5883312 70.28139982 107 73 C107 73.33 107 73.66 107 74 C94.73449845 74.09275117 82.46908058 74.16379124 70.20329952 74.20724869 C64.50755854 74.22810794 58.8120578 74.25639569 53.11645508 74.30175781 C47.61808987 74.34527415 42.1199555 74.36914961 36.62143135 74.37950897 C34.52549163 74.38688989 32.4295643 74.40130315 30.33372307 74.42292023 C27.39399967 74.4520307 24.45522561 74.45595275 21.51538086 74.45410156 C20.65222763 74.46848267 19.7890744 74.48286377 18.89976501 74.49768066 C12.33615916 74.45306697 8.15211982 72.93037431 3.23982239 68.36364746 C-1.09415064 61.8741922 -0.63700656 55.23407312 -0.48828125 47.65625 C-0.47893947 46.27764171 -0.47182981 44.89901666 -0.46684265 43.52038574 C-0.44787934 39.91639239 -0.39887502 36.31342912 -0.34332275 32.70983887 C-0.29189672 29.02284677 -0.2692792 25.33568594 -0.24414062 21.6484375 C-0.19074215 14.43182536 -0.10556371 7.21605778 0 0 Z " fill="#67B8CB" transform="translate(141,438)"/>
<path d="M0 0 C10.34538716 5.00401879 16.61881613 12.26500089 20.6640625 22.89453125 C23.59637077 33.03011854 21.49860514 42.87918745 16.5625 52 C10.55494125 60.82473058 3.47802688 64.69482437 -6.4375 68 C-18.13763172 69.21847526 -26.6029436 67.72284129 -36.4375 61 C-44.01090245 54.62308995 -48.74376454 45.3012814 -49.67578125 35.4921875 C-49.96720335 25.21572398 -47.03002974 16.90920583 -40.42578125 9.00390625 C-29.58465318 -1.92241732 -14.41257808 -5.4693886 0 0 Z " fill="#EAEDEE" transform="translate(340.4375,170)"/>
<path d="M0 0 C8.96111513 5.26967069 14.20873029 12.40844415 17.9921875 22.0390625 C19.8247355 32.3013313 18.37267082 42.02047746 13.109375 51.15625 C9.15519681 56.61853336 4.50595833 60.31573531 -1.3828125 63.5390625 C-1.97320312 63.879375 -2.56359375 64.2196875 -3.171875 64.5703125 C-10.35836085 67.98943352 -20.53272059 67.75674515 -28.13671875 65.84765625 C-30.38626507 64.91262743 -32.33710971 63.85913524 -34.3828125 62.5390625 C-35.42501953 61.88550781 -35.42501953 61.88550781 -36.48828125 61.21875 C-44.98053984 55.38729288 -50.03574251 47.55672436 -52.3828125 37.5390625 C-53.75096427 27.15645281 -51.52991953 18.63774931 -45.65625 10 C-34.39464152 -3.85687628 -15.95667883 -7.74050274 0 0 Z " fill="#EAEDEE" transform="translate(202.3828125,171.4609375)"/>
<path d="M0 0 C8.28107603 4.52949764 10.39529123 10.5659123 13.02867889 19.36798668 C14.3623403 24.99294643 14.40108133 30.40661194 14.32910156 36.16333008 C14.32968567 37.41368546 14.33026978 38.66404083 14.33087158 39.95228577 C14.32858469 43.3361025 14.30871677 46.71890706 14.28057575 50.10254502 C14.25533673 53.6552208 14.25320258 57.20791429 14.24847412 60.76066589 C14.23610969 67.46814418 14.2033781 74.1753574 14.16307616 80.8827197 C14.1181532 88.52733628 14.09632017 96.17196644 14.07629442 103.81668246 C14.03463841 119.52377441 13.96441567 135.23060284 13.875 150.9375 C5.86336296 147.18046117 0.92744045 137.9858823 -2.125 129.9375 C-4.69805908 121.0767543 -4.50007059 112.09513201 -4.58129883 102.94482422 C-4.70418767 91.30144359 -5.15326624 79.20742959 -13.125 69.9375 C-15.16414863 68.20672923 -17.23471581 66.65690177 -19.453125 65.1640625 C-21.125 63.9375 -21.125 63.9375 -22.125 61.9375 C-22.61555907 57.60422826 -22.60244439 55.61749656 -20.0625 52 C-16.37815134 49.4131169 -14.54558395 49.30598801 -10.125 49.9375 C-8.43148177 50.89132062 -6.75922932 51.88532496 -5.125 52.9375 C-5.05031843 48.93571658 -4.99614979 44.93420833 -4.96020508 40.93188477 C-4.94520591 39.57308883 -4.92479962 38.21434059 -4.89868164 36.85571289 C-4.58556969 26.46681134 -4.58556969 26.46681134 -8.125 16.9375 C-12.86846095 19.50246031 -12.86846095 19.50246031 -17.125 22.75 C-19.125 23.9375 -19.125 23.9375 -22.625 23.875 C-26.50194159 22.8365335 -27.96360413 22.30927756 -30.125 18.9375 C-30.83375312 14.05497848 -30.79233201 12.04972001 -28.25 7.8125 C-20.66367588 -0.14442041 -10.39499016 -4.72499553 0 0 Z " fill="#A56A43" transform="translate(410.125,47.0625)"/>
<path d="M0 0 C5.03328817 2.33969255 11.09446746 6.24362241 13.625 11.3046875 C14.19080566 18.32067766 14.19080566 18.32067766 12.1875 21.8046875 C8.33661861 24.05886197 4.965811 24.30753928 0.625 23.3046875 C-1.47345606 21.94733684 -3.12148065 20.49850074 -4.8671875 18.71484375 C-6.4335135 17.05349071 -6.4335135 17.05349071 -9.375 16.3046875 C-11.84668075 23.93381233 -11.60135304 31.34457537 -11.5 39.3046875 C-11.48994978 40.66535799 -11.48082754 42.02603567 -11.47265625 43.38671875 C-11.4492082 46.69289397 -11.41638856 49.9986963 -11.375 53.3046875 C-10.611875 52.8096875 -9.84875 52.3146875 -9.0625 51.8046875 C-6.375 50.3046875 -6.375 50.3046875 -3.375 50.3046875 C0.46941599 51.5861595 2.18706169 53.07800445 4.625 56.3046875 C5.25 59.2421875 5.25 59.2421875 4.625 62.3046875 C2.29691456 65.63052384 0.3226388 67.79422009 -2.9375 70.1796875 C-8.51187251 75.03939687 -10.36801347 82.16208031 -11.375 89.3046875 C-11.69312436 95.43780999 -11.73923642 101.57843986 -11.75585938 107.71923828 C-11.82773835 123.55776985 -14.90780035 137.5784219 -26.1875 149.4921875 C-28.375 151.3046875 -28.375 151.3046875 -30.375 151.3046875 C-30.46872892 134.84011778 -30.53911832 118.37563552 -30.58224869 101.91086292 C-30.60281334 94.26478431 -30.63081614 86.61887213 -30.67675781 78.97290039 C-30.71681361 72.30328444 -30.74247705 65.63378911 -30.75135398 58.96405619 C-30.75653731 55.43730419 -30.76858988 51.91089707 -30.79792023 48.38425636 C-30.83051133 44.43294778 -30.83094749 40.48196671 -30.82910156 36.53051758 C-30.84348267 35.38036163 -30.85786377 34.23020569 -30.87268066 33.04519653 C-30.81853667 22.26414541 -28.71816597 11.52203989 -21.375 3.3046875 C-15.69209553 -2.23614436 -7.34710597 -2.15096194 0 0 Z " fill="#A56A43" transform="translate(118.375,46.6953125)"/>
<path d="M0 0 C1.31726074 0.00628418 1.31726074 0.00628418 2.66113281 0.01269531 C13.8526582 0.20643443 25.63236111 2.25607881 33.75 10.5625 C36.00814057 13.51736714 37.21937506 16.0388487 36.890625 19.88671875 C33.78458657 31.6479984 26.22811637 42.61948922 16.0625 49.3125 C9.28881116 53.07123322 2.97027558 54.43690945 -4.75 53.3125 C-17.38854458 48.97746327 -24.54559375 40.73556571 -30.75 29.3125 C-31.36875 28.301875 -31.9875 27.29125 -32.625 26.25 C-34.19929327 22.13934534 -34.65012623 18.64672125 -33.75 14.3125 C-30.50231156 7.93174741 -24.21282752 4.75665715 -17.75 2.3125 C-11.72759262 0.49943841 -6.27433288 -0.04094574 0 0 Z " fill="#36495D" transform="translate(254.75,308.6875)"/>
<path d="M0 0 C1.82043154 3.46748865 2.1442864 6.66329155 1.3125 10.5 C0.25390625 12.6328125 0.25390625 12.6328125 -1.6875 14.5 C-4.23125182 15.28762958 -6.59064805 15.87260683 -9.1875 16.375 C-20.55365245 18.92335595 -28.49195587 23.82935638 -36.984375 31.83984375 C-39.6875 33.5 -39.6875 33.5 -43.3671875 33.359375 C-47.11240132 32.39002554 -48.47503704 31.64850498 -50.6875 28.5 C-51.6875 25.625 -51.6875 25.625 -51.6875 22.5 C-46.47212634 11.8424973 -33.95532518 4.82504212 -23.3125 0.625 C-16.28171821 -1.55696676 -6.75203124 -3.76857557 0 0 Z " fill="#815333" transform="translate(183.6875,134.5)"/>
<path d="M0 0 C1.36405911 0.40560617 2.71767448 0.84707769 4.0625 1.3125 C4.96613281 1.61929688 5.86976563 1.92609375 6.80078125 2.2421875 C16.56406808 5.91450032 27.57783421 12.1060967 33.0625 21.3125 C33.89673035 25.23874007 33.7187702 28.28871849 31.5 31.75 C28.25983092 33.82703146 25.90129416 34.1573147 22.0625 34.3125 C19.39453125 32.65234375 19.39453125 32.65234375 16.875 30.25 C9.36163808 23.65915182 1.93646795 19.75211465 -7.875 17.75 C-11.77298342 16.93675166 -13.87859766 16.35139777 -17.25 14.125 C-19.67195647 10.08840588 -19.60507477 7.98552336 -18.9375 3.3125 C-15.43105636 -3.36644026 -6.25204723 -1.09162729 0 0 Z " fill="#815333" transform="translate(345.9375,133.6875)"/>
<path d="M0 0 C0 19.8 0 39.6 0 60 C-5.88888889 54.11111111 -5.88888889 54.11111111 -8 50 C-8 49.34 -8 48.68 -8 48 C-8.66 48 -9.32 48 -10 48 C-10.226875 48.680625 -10.45375 49.36125 -10.6875 50.0625 C-12.32410945 53.72538782 -14.44289112 56.9083039 -17 60 C-17.33 60 -17.66 60 -18 60 C-18 40.53 -18 21.06 -18 1 C-13.38 1 -8.76 1 -4 1 C-1 0 -1 0 0 0 Z " fill="#A66A43" transform="translate(265,360)"/>
<path d="M0 0 C0.66 0 1.32 0 2 0 C3.65625 2.30078125 3.65625 2.30078125 5.5 5.3125 C6.1084375 6.29863281 6.716875 7.28476562 7.34375 8.30078125 C7.8903125 9.19152344 8.436875 10.08226562 9 11 C9.99 12.485 9.99 12.485 11 14 C11.13903198 16.92059976 11.16285936 19.73280227 11.08203125 22.6484375 C11.05516487 23.92275131 11.05516487 23.92275131 11.02775574 25.22280884 C10.98656782 27.0200866 10.93998657 28.81724766 10.88842773 30.61425781 C10.81298564 33.35734222 10.76385567 36.10004977 10.71679688 38.84375 C10.67347607 40.59118626 10.62860486 42.33858491 10.58203125 44.0859375 C10.56936722 44.9037973 10.55670319 45.7216571 10.5436554 46.56430054 C10.38708931 51.1614507 9.97449105 54.27473914 7 58 C3.48746854 60.34168764 2.13530644 60.49623677 -2 60 C-5.33761045 57.84909549 -6.73470933 56.79587201 -8 53 C-8.45797216 47.39902875 -8.68098734 41.79351569 -8.88720703 36.17822266 C-8.96199631 34.31949862 -9.0513604 32.46130002 -9.15576172 30.60400391 C-10.12754317 13.17713713 -10.12754317 13.17713713 -5.625 7.4765625 C-4.42072919 6.31348717 -3.2128147 5.15416331 -2 4 C-0.78475103 1.88674018 -0.78475103 1.88674018 0 0 Z " fill="#DF4D5F" transform="translate(255,408)"/>
<path d="M0 0 C6.93932481 -0.50264727 11.37407472 -0.27570321 17 4 C20.89756156 9.02580306 22.50109615 13.22655578 22.3984375 19.51953125 C21.64321187 24.22118097 19.28600083 27.63319587 16 31 C11.07377913 34.3198445 5.93232219 35.97074363 0 35 C-5.05701916 32.67186288 -8.91475148 29.68957775 -12 25 C-13.00496852 21.98509443 -13.10335303 19.95818308 -13.0625 16.8125 C-13.05347656 15.91144531 -13.04445312 15.01039063 -13.03515625 14.08203125 C-13.02355469 13.39496094 -13.01195312 12.70789063 -13 12 C-11.948125 12.99 -11.948125 12.99 -10.875 14 C-7.50493897 16.34439029 -6.0153997 16.42717018 -2 16 C-0.66295443 15.68188361 0.6713284 15.35145507 2 15 C3.20392303 8.29364163 3.20392303 8.29364163 1.5625 1.875 C1.046875 1.25625 0.53125 0.6375 0 0 Z " fill="#394C61" transform="translate(190,186)"/>
<path d="M0 0 C9.73032529 -0.62329486 9.73032529 -0.62329486 14.4375 1.6875 C18.07763016 4.97249551 21.77124789 8.30776362 22.203125 13.390625 C22.36538462 23.28846154 22.36538462 23.28846154 19 28 C14.47230949 32.3308344 10.90707903 34.67089671 4.6875 35.375 C-0.94695187 34.80200489 -4.91380818 33.214641 -8.83984375 29.046875 C-12.90139482 23.5805051 -13.64075258 19.72790204 -13 13 C-12.11634766 13.46986328 -12.11634766 13.46986328 -11.21484375 13.94921875 C-8.10101467 15.42650274 -5.43593631 15.81916125 -2 16 C0.94755732 14.65437601 2.54277272 13.91445456 4 11 C4.44143161 7.02711547 4.32030013 5.46043144 2 2.125 C1.34 1.42375 0.68 0.7225 0 0 Z " fill="#384C61" transform="translate(313,186)"/>
<path d="M0 0 C2.69990662 1.79993774 4.5418865 3.083773 6 6 C6.38505372 9.46548352 6.34266339 11.40881152 4.578125 14.453125 C0.99214712 17.99563648 -2.87592382 19.24938492 -7.5625 20.9375 C-14.4067369 23.51209019 -20.69299823 26.18312389 -26.90625 30.06640625 C-29 31 -29 31 -31.078125 31.01953125 C-34.06286394 29.43616364 -34.82358414 27.12911826 -36.25 24.125 C-36.77078125 23.05507813 -37.2915625 21.98515625 -37.828125 20.8828125 C-39 18 -39 18 -39 15 C-30.74514964 10.72258764 -22.44357791 6.61633129 -13.875 3 C-13.17769775 2.69763428 -12.48039551 2.39526855 -11.76196289 2.08374023 C-7.69785661 0.40612354 -4.39429371 -0.49891544 0 0 Z " fill="#A56A43" transform="translate(163,280)"/>
<path d="M0 0 C4.46908171 0.98496919 8.46664907 2.85784325 12.58813477 4.80664062 C13.4344043 5.18949219 14.28067383 5.57234375 15.15258789 5.96679688 C20.54509454 8.45308753 25.5744324 11.28057924 30.52563477 14.55664062 C28.75098768 20.35991022 26.71884748 25.38143381 23.52563477 30.55664062 C20.17138225 29.24634494 16.90386974 27.83092278 13.65454102 26.27929688 C12.298125 25.63250977 12.298125 25.63250977 10.91430664 24.97265625 C9.98166992 24.52599609 9.0490332 24.07933594 8.08813477 23.61914062 C7.15936523 23.17634766 6.2305957 22.73355469 5.27368164 22.27734375 C2.68830638 21.04262005 0.10622544 19.8013275 -2.47436523 18.55664062 C-4.22813477 17.71166016 -4.22813477 17.71166016 -6.01733398 16.84960938 C-8.83613366 15.36626646 -10.04808181 14.40920748 -11.47436523 11.55664062 C-12.105901 7.21483221 -11.9326481 5.2662399 -9.53686523 1.55664062 C-5.76032111 -0.90967391 -4.29332649 -0.59452076 0 0 Z " fill="#A66A43" transform="translate(357.474365234375,281.443359375)"/>
<path d="M0 0 C6.43681228 0.51085812 11.95942424 1.72942897 18 4 C16.615864 8.35673284 14.99502729 12.51627332 13.125 16.6875 C12.63257813 17.80511719 12.14015625 18.92273438 11.6328125 20.07421875 C9.9936179 23.01143588 8.9059777 24.37310129 6 26 C2.5 26.4375 2.5 26.4375 -1 26 C-3.36497439 24.13291495 -4.66030715 22.67938569 -6 20 C-6.47689209 14.91811867 -5.10001735 11.15611852 -3 6.625 C-2.71382813 5.98433594 -2.42765625 5.34367187 -2.1328125 4.68359375 C-1.4317683 3.11792837 -0.71724882 1.55830844 0 0 Z " fill="#A66A43" transform="translate(283,55)"/>
<path d="M0 0 C1.01428514 2.03460769 2.01086789 4.07804606 3 6.125 C3.556875 7.26195312 4.11375 8.39890625 4.6875 9.5703125 C6.02204161 13.05759683 6.36729677 15.31129102 6 19 C3.73529412 23.63235294 3.73529412 23.63235294 1 25 C-2.8116513 25.35958975 -5.17403597 25.5010158 -8.4921875 23.48828125 C-11.71936914 20.28623342 -13.12397653 17.04226102 -14.8125 12.875 C-15.12380859 12.14667969 -15.43511719 11.41835937 -15.75585938 10.66796875 C-18 5.33135302 -18 5.33135302 -18 3 C-11.79485526 0.86380263 -6.57315478 -0.36517527 0 0 Z " fill="#A56A43" transform="translate(229,56)"/>
<path d="M0 0 C2.9654961 3.11015445 4 4.8103588 4 9.125 C2.8232829 12.50806166 1.92303336 13.92310787 -1 16 C-5.07133377 17.18438801 -7.05051271 17.47474365 -10.875 15.5625 C-13.32594438 12.60694942 -13.94358837 10.73977983 -14.2109375 6.96875 C-13.86866161 3.77417502 -12.27376123 2.14383202 -10 0 C-6.70552083 -1.64723959 -3.39874642 -1.08598998 0 0 Z " fill="#825434" transform="translate(323,407)"/>
<path d="M0 0 C3.33219018 2.13601934 3.89315459 3.6327189 5 7.4375 C5 11 5 11 3.1875 13.875 C0.44001696 16.54398352 -0.48083153 16.93143058 -4.3125 17.4375 C-8 17 -8 17 -10.9375 14.375 C-13.18818265 10.69206475 -13.89426216 9.20303214 -13 5 C-9.2217441 -0.43124286 -6.19885712 -0.88555102 0 0 Z " fill="#825434" transform="translate(163,389)"/>
<path d="M0 0 C3.80470451 0.7133821 5.41196019 1.67868421 8 4.5625 C9.14888518 8.51179279 9.43129396 10.59208859 7.75 14.375 C6 16.5625 6 16.5625 3 18.5625 C-0.76730436 18.42550711 -3.24668225 18.04539599 -6.4375 16 C-8.25737768 13.16099083 -8.63167186 10.90110155 -8.44921875 7.53515625 C-7.39836152 2.92052234 -4.45426759 0.83517517 0 0 Z " fill="#825434" transform="translate(194,405.4375)"/>
<path d="M0 0 C3.44652326 2.44128731 4.78056289 3.82966874 5.5625 8 C4.87642343 11.65907504 3.57265686 13.35167676 1 16 C-1.85324437 17.42662219 -3.83454549 17.31033868 -7 17 C-9.8125 15.4375 -9.8125 15.4375 -12 13 C-12.93605213 9.50540538 -13.3742539 7.15394952 -12.25 3.6875 C-9.09711847 -0.56889007 -4.89267662 -0.92332613 0 0 Z " fill="#825434" transform="translate(357,389)"/>
<path d="M0 0 C3.50035742 0.7971111 4.97632236 2.57948879 6.97265625 5.44921875 C7.58569891 9.1274747 7.23387826 10.91490101 5.59765625 14.26171875 C3.97265625 16.44921875 3.97265625 16.44921875 1.97265625 17.44921875 C-1.04006197 17.79494051 -3.1198308 18.02628239 -6.02734375 17.44921875 C-9.08984375 14.88671875 -9.08984375 14.88671875 -11.02734375 11.44921875 C-11.09551948 7.4950267 -10.59386605 5.33299353 -8.46484375 2.01171875 C-5.62583458 0.19184107 -3.3659453 -0.18245311 0 0 Z " fill="#825434" transform="translate(302.02734375,370.55078125)"/>
<path d="M0 0 C4.12507614 0.66295867 5.75668103 1.41575177 8.5 4.5625 C9.625 7.9375 9.625 7.9375 9.5 11.5625 C7.5625 15 7.5625 15 4.5 17.5625 C1.43356467 18.3563795 -0.23642868 18.08052719 -3.5 17.5625 C-6.84425629 14.98999516 -8.31699852 12.93501107 -8.875 8.75 C-8.5 5.5625 -8.5 5.5625 -6.4375 2.6875 C-3.5 0.5625 -3.5 0.5625 0 0 Z " fill="#825433" transform="translate(211.5,370.4375)"/>
</svg>
