<?xml version="1.0" encoding="UTF-8"?>
<svg version="1.1" xmlns="http://www.w3.org/2000/svg" width="512" height="512">
<path d="M0 0 C12.03567203 12.4787029 23.33708022 29.23927185 27 46.375 C27.66 46.375 28.32 46.375 29 46.375 C29.11214844 45.85035156 29.22429687 45.32570313 29.33984375 44.78515625 C32.86237682 30.94827797 40.92773583 18.23172605 50 7.375 C50.83144531 6.37984375 51.66289062 5.3846875 52.51953125 4.359375 C69.14103072 -14.90848679 91.67763506 -27.27181012 117 -30.625 C118.16208984 -30.80869141 118.16208984 -30.80869141 119.34765625 -30.99609375 C147.67648082 -34.63259896 177.88037582 -27.15417523 200.625 -9.875 C228.08913768 11.72913814 243.86774809 43.50617776 248.03564453 77.92871094 C253.14540068 126.53898369 235.38032396 169.63998028 206 207.375 C204.95199219 208.72851562 204.95199219 208.72851562 203.8828125 210.109375 C189.96153971 227.78534792 174.48755916 244.07017251 158.56591797 259.93945312 C156.60134799 261.89858656 154.64228552 263.86311644 152.68359375 265.828125 C141.58219654 276.93538554 141.58219654 276.93538554 135.62890625 281.99121094 C133.07207041 284.1632951 130.64230905 286.46342262 128.1875 288.75 C123.58474162 293.00306216 118.84253712 297.01733782 113.95703125 300.9453125 C111.1698681 303.23542542 108.4576294 305.58874473 105.75170898 307.97314453 C97.8173944 314.95682769 89.57713497 321.41899108 81.12646484 327.76318359 C79.06280092 329.3273982 77.02256228 330.91735406 74.98828125 332.51953125 C66.70398858 339.01864971 58.1883262 345.07944293 49.4375 350.9375 C48.4261499 351.61659424 47.4147998 352.29568848 46.37280273 352.99536133 C32.18930826 362.38622722 32.18930826 362.38622722 26.953125 362.359375 C23.31704533 361.14734844 20.05762763 359.53211554 16.75 357.625 C16.05962646 357.23086914 15.36925293 356.83673828 14.65795898 356.43066406 C6.00305107 351.36522855 -1.99824774 345.4002585 -10 339.375 C-10.72364746 338.83294922 -11.44729492 338.29089844 -12.19287109 337.73242188 C-25.6137246 327.65996375 -38.66515451 317.13967049 -51.42773438 306.24633789 C-54.65385761 303.4954382 -57.93230171 300.82669157 -61.25 298.1875 C-66.97409711 293.5361473 -72.30011095 288.48640944 -77.63574219 283.39770508 C-81.24016442 279.96066159 -84.87830119 276.58464347 -88.609375 273.28515625 C-94.88299034 267.66427656 -100.81551896 261.70956349 -106.76000977 255.74536133 C-108.69109547 253.80889451 -110.62749882 251.87786044 -112.56445312 249.94726562 C-118.59029749 243.92461543 -124.49534904 237.88420137 -130 231.375 C-131.4132355 229.8301874 -132.82940409 228.28804675 -134.25 226.75 C-139.30058874 221.14393196 -143.94503104 215.2624813 -148.53662109 209.27978516 C-149.52541345 207.99273845 -150.51803257 206.70862402 -151.51416016 205.42724609 C-162.48429786 191.3058518 -171.45342664 176.58843738 -179 160.375 C-179.80244141 158.65990234 -179.80244141 158.65990234 -180.62109375 156.91015625 C-195.8187519 121.81738198 -197.4264536 79.27554329 -183.62280273 43.48730469 C-177.75149704 29.10322789 -170.33163797 16.00330592 -160 4.375 C-158.79923828 3.02341797 -158.79923828 3.02341797 -157.57421875 1.64453125 C-141.13657174 -15.70781297 -117.72385086 -27.64237713 -94 -30.625 C-93.06671875 -30.74746094 -92.1334375 -30.86992188 -91.171875 -30.99609375 C-56.00419562 -34.64812199 -25.69672352 -24.12665895 0 0 Z " fill="#FB4F4F" transform="translate(228,90.625)"/>
<path d="M0 0 C25.24286841 5.70191851 46.52083565 25.70606722 60 47 C80.31651107 81.55002976 84.51530679 122.34102528 75 161 C67.70722729 188.08464278 54.09503123 211.04376353 37 233 C35.95199219 234.35351562 35.95199219 234.35351562 34.8828125 235.734375 C20.96153971 253.41034792 5.48755916 269.69517251 -10.43408203 285.56445312 C-12.39865201 287.52358656 -14.35771448 289.48811644 -16.31640625 291.453125 C-27.41780346 302.56038554 -27.41780346 302.56038554 -33.37109375 307.61621094 C-35.92792959 309.7882951 -38.35769095 312.08842262 -40.8125 314.375 C-45.41525838 318.62806216 -50.15746288 322.64233782 -55.04296875 326.5703125 C-57.8301319 328.86042542 -60.5423706 331.21374473 -63.24829102 333.59814453 C-71.1826056 340.58182769 -79.42286503 347.04399108 -87.87353516 353.38818359 C-89.93719908 354.9523982 -91.97743772 356.54235406 -94.01171875 358.14453125 C-102.29601142 364.64364971 -110.8116738 370.70444293 -119.5625 376.5625 C-120.5738501 377.24159424 -121.5852002 377.92068848 -122.62719727 378.62036133 C-136.81069174 388.01122722 -136.81069174 388.01122722 -142.046875 387.984375 C-145.68295467 386.77234844 -148.94237237 385.15711554 -152.25 383.25 C-152.94037354 382.85586914 -153.63074707 382.46173828 -154.34204102 382.05566406 C-162.99694893 376.99022855 -170.99824774 371.0252585 -179 365 C-179.72364746 364.45794922 -180.44729492 363.91589844 -181.19287109 363.35742188 C-194.6137246 353.28496375 -207.66515451 342.76467049 -220.42773438 331.87133789 C-223.65385761 329.1204382 -226.93230171 326.45169157 -230.25 323.8125 C-236.79743083 318.49211331 -242.83977201 312.63973449 -248.94921875 306.828125 C-252.92313391 303.05295182 -256.98393673 299.39726766 -261.1171875 295.796875 C-263.0039712 293.99621006 -264.50161528 292.12977954 -266 290 C-261.95130554 291.27853509 -257.9963853 292.55446186 -254.1171875 294.2890625 C-245.27084493 298.19985697 -236.21774732 300.58014416 -226.8125 302.75 C-224.90658081 303.19037598 -224.90658081 303.19037598 -222.9621582 303.63964844 C-210.53962168 306.43413361 -198.75785959 308.37482493 -186 308.4375 C-184.81921875 308.47037109 -183.6384375 308.50324219 -182.421875 308.53710938 C-173.87933034 308.58885386 -167.60038184 306.82373009 -160 303 C-159.2663623 302.64977783 -158.53272461 302.29955566 -157.77685547 301.9387207 C-155.80594995 300.97877661 -153.86982938 299.9727201 -151.9375 298.9375 C-151.22907959 298.55956299 -150.52065918 298.18162598 -149.79077148 297.79223633 C-140.91780729 292.97454325 -132.44675028 287.52146879 -124 282 C-123.23510254 281.50064941 -122.47020508 281.00129883 -121.68212891 280.48681641 C-110.61485783 273.23698611 -99.73535311 265.73220811 -89 258 C-88.23010742 257.44554199 -87.46021484 256.89108398 -86.66699219 256.31982422 C-76.08253386 248.6697353 -65.78177973 240.75331415 -55.72363281 232.42382812 C-53.28769935 230.41159527 -50.82957525 228.4269225 -48.375 226.4375 C-35.53133273 215.97289078 -35.53133273 215.97289078 -23.55078125 204.5546875 C-21.87603042 202.87571816 -20.11807274 201.34962709 -18.3125 199.8125 C-9.90373931 192.54890127 -2.15946012 184.48754761 5 176 C5.84175781 175.03578125 6.68351562 174.0715625 7.55078125 173.078125 C29.45406184 147.86593662 44.24455979 120.06017454 42 86 C41.54964279 81.93768701 40.86047558 77.99333387 40 74 C39.87882812 73.28457031 39.75765625 72.56914062 39.6328125 71.83203125 C35.01109233 46.69553278 19.31926715 22.08194966 1.765625 4.00390625 C0 2 0 2 0 0 Z " fill="#D54242" transform="translate(397,65)"/>
<path d="M0 0 C4.15586214 4.26242271 6.60518609 8.66154108 6.9375 14.6875 C6.11270779 30.22552102 -2.55046181 45.09186086 -12.5625 56.5 C-13.12710938 57.19609375 -13.69171875 57.8921875 -14.2734375 58.609375 C-22.57171699 68.66081213 -36.00519359 79.37293621 -49.453125 80.80859375 C-59.64015266 81.19949132 -59.64015266 81.19949132 -63.75 77.75 C-67.75212945 73.73773858 -68.86784086 70.19792465 -68.9375 64.5625 C-68.61307579 47.48251979 -59.73432991 32.8701285 -48.5625 20.5 C-47.80195312 19.64535156 -47.04140625 18.79070312 -46.2578125 17.91015625 C-34.95966093 5.88966384 -17.18703033 -7.23664435 0 0 Z " fill="#FC8282" transform="translate(132.5625,91.5)"/>
</svg>
