<svg xmlns="http://www.w3.org/2000/svg" xmlns:xlink="http://www.w3.org/1999/xlink" viewBox="496 121 128 128" preserveAspectRatio="xMidYMid meet" width="100%" height="100%">
  <defs/>
  <g>
    <path stroke="none" fill="#D23007" d="M496 231.8 L496 129.7 Q496 121 504.65 121 L615.35 121 Q624 121 624 129.7 L624 231.8 Q596.15 237.5 560 237.5 525.15 237.5 498.05 232.2 L496 231.8"/>
    <path stroke="none" fill="#FFCC00" d="M496 231.8 L498.05 232.2 Q525.15 237.5 560 237.5 596.15 237.5 624 231.8 L624 240.35 Q624 249 615.35 249 L504.65 249 Q496 249 496 240.35 L496 231.8"/>
    <path stroke="none" fill="#FFFFFF" d="M548.3 184.6 L548.2 185.3 Q544.05 200.6 535.05 209.75 526.05 218.9 517.4 216.5 508.7 214.2 505.4 201.8 502.15 189.35 506.3 174.05 L506.4 173.4 Q508.85 165.05 516.45 160.75 524.2 156.2 532.9 158.5 541.55 160.85 546.1 168.65 550.4 176.25 548.3 184.6 M613.7 174.05 Q617.85 189.35 614.6 201.8 611.3 214.2 602.6 216.5 593.95 218.9 584.95 209.75 575.95 200.6 571.8 185.3 L571.7 184.6 Q569.6 176.25 573.9 168.65 578.45 160.85 587.1 158.5 595.8 156.2 603.55 160.75 611.15 165.05 613.6 173.4 L613.7 174.05"/>
    <path stroke="none" fill="#333333" d="M540.2 181.4 L540.2 181.6 540.2 182.1 Q539.9 184.8 537.45 186.7 534.7 188.85 530.85 188.85 527 188.85 524.25 186.7 521.8 184.8 521.55 182.1 L521.5 181.6 521.5 181.4 521.5 181.3 Q521.55 176.05 524.25 172.35 527 168.6 530.85 168.6 534.7 168.6 537.45 172.35 540.15 176.05 540.2 181.3 L540.2 181.4 M599 181.4 L599 181.6 599 182.1 Q598.75 184.8 596.25 186.7 593.5 188.85 589.65 188.85 585.8 188.85 583.05 186.7 580.6 184.8 580.35 182.1 L580.3 181.6 580.3 181.4 580.3 181.3 Q580.35 176.05 583.05 172.35 585.8 168.6 589.65 168.6 593.5 168.6 596.25 172.35 598.95 176.05 599 181.3 L599 181.4"/>
    <path stroke="none" fill="#5D9CF3" d="M539.2 214.2 L539.05 213.2 538.95 210.9 538.95 199.45 Q538.95 196.7 539.6 194.2 L539.9 193.2 539.95 193 Q541.4 188.35 545.1 184.65 551.3 178.5 560.05 178.5 568.8 178.5 574.95 184.65 578.65 188.35 580.15 193 L580.2 193.2 580.45 194.2 Q581.1 196.7 581.1 199.45 L581.1 210.9 581 213.2 580.9 214.2 Q560.05 219.5 539.2 214.2"/>
    <path stroke="none" fill="#397EDE" d="M539.2 214.2 Q560.05 219.5 580.9 214.2 579.9 220.85 574.95 225.8 568.8 232 560.05 232 551.3 232 545.1 225.8 540.15 220.85 539.2 214.2"/>
    <path stroke="none" fill="#BB2905" d="M573.45 135.7 Q577.35 142.45 578.1 148.35 579 154.2 576.25 155.75 573.5 157.35 568.8 153.7 564.2 150.05 560.3 143.3 L559.4 141.75 Q557.8 138.55 558.2 135.25 558.6 131.6 561.35 130 564.1 128.45 567.5 129.9 570.5 131.2 572.5 134.2 L573.45 135.7"/>
    <path stroke="none" fill="#BB2905" d="M553.75 143.4 Q551.2 147.9 548.05 150.3 545 152.75 543.2 151.65 541.4 150.65 541.95 146.75 542.5 142.85 545.05 138.4 L545.65 137.35 Q547 135.35 549 134.5 551.25 133.5 553.05 134.55 554.85 135.65 555.15 138.1 555.4 140.2 554.35 142.35 L553.75 143.4"/>
  </g>
</svg>