<?xml version="1.0" encoding="UTF-8"?>
<svg version="1.1" xmlns="http://www.w3.org/2000/svg" width="512" height="512">
<path d="M0 0 C9.96417905 1.73793821 18.19782583 11.55873778 23.83447266 19.29785156 C34.97887682 35.57325706 40.44361974 54.62582361 37.50390625 74.32421875 C36.3154248 79.46087586 34.7111534 83.51796838 32.0625 88.0625 C28.70070812 94.92574278 30.99228225 101.23249294 32.8515625 108.25390625 C39.58522151 134.19893107 34.11588917 163.99540666 24.234375 188.37890625 C22.58309534 191.94651561 22.58309534 191.94651561 24.25 195.1875 C25.11625 196.5796875 25.11625 196.5796875 26 198 C29.7703266 211.68303957 26.96572843 226.19164649 20.1875 238.3125 C14.99148595 246.41828192 8.39434515 252.44587651 -0.83203125 255.6328125 C-3.89033453 256.1507954 -6.90395744 256.02111806 -10 256 C-10.23654297 257.20301758 -10.47308594 258.40603516 -10.71679688 259.64550781 C-12.99587029 271.17430256 -15.39963162 282.67017835 -17.92724609 294.14697266 C-18.50278876 296.76267425 -19.07380637 299.37933724 -19.64453125 301.99609375 C-29.22151819 345.72705268 -29.22151819 345.72705268 -49.41015625 358.85546875 C-55.30849509 362.49822241 -61.6325216 365.28931639 -68 368 C-68.9075 368.39316406 -69.815 368.78632813 -70.75 369.19140625 C-73 370 -73 370 -76 370 C-76 370.66 -76 371.32 -76 372 C-75.30132812 372.0928125 -74.60265625 372.185625 -73.8828125 372.28125 C-59.34678504 375.90540861 -46.28004273 390.00591952 -37 401 C-36.3915625 401.70511719 -35.783125 402.41023438 -35.15625 403.13671875 C-34.7746875 403.75160156 -34.393125 404.36648438 -34 405 C-34.33 405.99 -34.66 406.98 -35 408 C-30.0731967 409.12627341 -25.14651793 410.17843476 -20.1796875 411.11328125 C5.88724171 416.03703455 30.02630225 422.99191457 46.34765625 445.37890625 C53.03767283 455.99120205 57.40308689 466.71250059 60 479 C60.22429687 480.00417969 60.44859375 481.00835937 60.6796875 482.04296875 C62.23740235 489.94890508 64.68044118 502.58085161 60.37216759 509.68374962 C57.30467112 512.67893845 55.8240714 512.62541871 51.5843811 512.62641239 C50.93938211 512.63338 50.29438312 512.64034761 49.62983871 512.64752635 C47.45916917 512.66483118 45.2902703 512.64637629 43.11962891 512.62818909 C41.55159505 512.63323211 39.98356695 512.64045905 38.41555214 512.64968723 C34.09952127 512.6686715 29.78405454 512.6563413 25.46803761 512.6389643 C20.816287 512.62562608 16.16462089 512.6410146 11.51287842 512.65278625 C2.39730398 512.67119378 -6.71805653 512.6626298 -15.83362436 512.64469803 C-23.24007081 512.63068917 -30.64645906 512.62677553 -38.05291748 512.6301403 C-39.1058579 512.63061775 -40.15879832 512.63109519 -41.24364603 512.6315871 C-43.38247698 512.6326134 -45.52130792 512.63366876 -47.66013885 512.63475286 C-66.58531774 512.64332622 -85.51039316 512.6266243 -104.43554688 512.59692383 C-122.81189318 512.5680849 -141.1880904 512.56100207 -159.56445312 512.57641602 C-179.56092655 512.59316586 -199.55732914 512.59722482 -219.5538044 512.57970566 C-221.6848971 512.57786121 -223.8159898 512.57602648 -225.94708252 512.57420158 C-226.99570162 512.57328949 -228.04432072 512.5723774 -229.12471616 512.57143768 C-236.52478627 512.5658247 -243.92482189 512.56914654 -251.32489014 512.57574654 C-260.33950827 512.58346711 -269.35397948 512.57677329 -278.36856794 512.5515715 C-282.97057023 512.53904673 -287.57234344 512.53296583 -292.17435455 512.54411316 C-296.38367084 512.55411697 -300.59252921 512.54577899 -304.80178952 512.52253198 C-306.32796825 512.51735112 -307.85418766 512.51897312 -309.38034892 512.52792663 C-311.44891387 512.53905663 -313.51591281 512.52576301 -315.5843811 512.50615788 C-316.73504374 512.50496639 -317.88570637 512.50377491 -319.07123756 512.50254732 C-322.66017281 511.88672073 -323.84479353 510.89274685 -326 508 C-326.38524863 505.27292505 -326.52268793 503.0280575 -326.4375 500.3125 C-326.42356201 499.56500488 -326.40962402 498.81750977 -326.39526367 498.04736328 C-325.70324358 476.51133726 -319.21844663 455.46666255 -305 439 C-304.41734375 438.32195312 -303.8346875 437.64390625 -303.234375 436.9453125 C-284.540432 416.7589959 -255.76099856 412.8037605 -230 409 C-229.88011719 408.23792236 -229.76023437 407.47584473 -229.63671875 406.69067383 C-228.74454107 402.92047052 -226.50125651 400.52666242 -224 397.6875 C-223.49944092 397.11281982 -222.99888184 396.53813965 -222.4831543 395.94604492 C-215.96286609 388.57063695 -209.04758291 382.84039589 -200.75 377.5625 C-200.06397705 377.12462158 -199.3779541 376.68674316 -198.67114258 376.2355957 C-195.14038798 374.06040252 -192.2096729 372.44870545 -188 372 C-188 371.34 -188 370.68 -188 370 C-188.53625 369.87625 -189.0725 369.7525 -189.625 369.625 C-206.44594609 365.19843524 -223.7362621 355.52980431 -233.42822266 340.83447266 C-239.42923225 330.10265001 -241.1529047 318.04841632 -243.5625 306.125 C-244.02120927 303.90852718 -244.48148621 301.69237819 -244.94335938 299.4765625 C-245.62758743 296.19395213 -246.31057557 292.91115541 -246.98623657 289.62677002 C-248.70813608 281.28001527 -250.56162621 272.96804742 -252.49891663 264.66873169 C-252.79517189 263.39194046 -252.79517189 263.39194046 -253.09741211 262.08935547 C-253.27227646 261.34442841 -253.44714081 260.59950134 -253.62730408 259.83200073 C-254 258 -254 258 -254 256 C-254.94875 256.0825 -255.8975 256.165 -256.875 256.25 C-265.76529203 256.16056044 -272.51332184 251.44742857 -278.73828125 245.49609375 C-287.22421493 236.1307887 -291.19745784 224.86978305 -291.25 212.375 C-291.25394775 211.56756348 -291.25789551 210.76012695 -291.26196289 209.92822266 C-291.21072606 204.6745987 -290.66110547 200.2137647 -288.55859375 195.3359375 C-286.87417404 188.29200055 -290.06890794 179.47169322 -291.5390625 172.50976562 C-300.43863849 129.37338796 -290.53302156 81.94945902 -266.55859375 45.18359375 C-251.66128272 23.16415565 -229.77781102 9.34504268 -203.796875 4.12890625 C-156.44922625 -4.80147024 -108.60230902 5.71828389 -62.07983398 14.72753906 C-61.33073761 14.87178818 -60.58164124 15.01603729 -59.80984497 15.16465759 C-57.78926426 15.55413333 -55.76924342 15.94651057 -53.74926758 16.33911133 C-38.58209405 19.01265035 -20.12051434 20.75544707 -6.69140625 11.671875 C-3.40305338 8.42149387 -1.71070287 4.2356345 0 0 Z " fill="#FCD6AC" transform="translate(388,0)"/>
<path d="M0 0 C10.9149512 -0.60939554 19.31136727 -0.72392608 28.03125 6.73828125 C33.20792813 12.02794243 36.76851047 18.35913989 40.32421875 24.79589844 C44.40615094 32.10094045 48.91038007 38.87938758 57 42 C59.80174928 42.6686371 62.57118691 42.99824697 65.4375 43.25 C66.16904297 43.32734375 66.90058594 43.4046875 67.65429688 43.484375 C69.43475885 43.6705671 71.21723355 43.83734664 73 44 C73.37125 42.66775391 73.37125 42.66775391 73.75 41.30859375 C77.40214721 31.64181661 87.19284906 24.5361823 96.10546875 19.90625 C103.51949598 16.90169112 113.07438903 16.99310715 120.828125 18.578125 C123.03602473 19.23597019 123.03602473 19.23597019 125 18 C136.67315964 17.0143291 147.02762908 17.91336046 156.81640625 25.0546875 C162.66347293 30.09135596 169.45522102 36.13724856 171 44 C179.98663987 43.84505793 188.69119911 43.236128 195.40893555 36.61035156 C200.36499347 31.12773761 203.8018752 24.79038044 207.41210938 18.3828125 C211.80361585 10.80847105 216.84982838 4.05483943 225.1796875 0.64453125 C231.35524925 -0.76678134 237.7108397 -0.22974305 244 0 C241.49369214 12.74665838 238.86684133 25.46024096 236.07275391 38.14697266 C235.49721124 40.76267425 234.92619363 43.37933724 234.35546875 45.99609375 C224.77848181 89.72705268 224.77848181 89.72705268 204.58984375 102.85546875 C198.69150491 106.49822241 192.3674784 109.28931639 186 112 C185.0925 112.39316406 184.185 112.78632813 183.25 113.19140625 C181 114 181 114 178 114 C178 114.66 178 115.32 178 116 C178.69867188 116.0928125 179.39734375 116.185625 180.1171875 116.28125 C194.65321496 119.90540861 207.71995727 134.00591952 217 145 C217.6084375 145.70511719 218.216875 146.41023437 218.84375 147.13671875 C219.2253125 147.75160156 219.606875 148.36648438 220 149 C219.67 149.99 219.34 150.98 219 152 C223.9268033 153.12627341 228.85348207 154.17843476 233.8203125 155.11328125 C259.88724171 160.03703455 284.02630225 166.99191457 300.34765625 189.37890625 C307.03767283 199.99120205 311.40308689 210.71250059 314 223 C314.33644531 224.50626953 314.33644531 224.50626953 314.6796875 226.04296875 C316.23740235 233.94890508 318.68044118 246.58085161 314.37216759 253.68374962 C311.30467112 256.67893845 309.8240714 256.62541871 305.5843811 256.62641239 C304.93938211 256.63338 304.29438312 256.64034761 303.62983871 256.64752635 C301.45916917 256.66483118 299.2902703 256.64637629 297.11962891 256.62818909 C295.55159505 256.63323211 293.98356695 256.64045905 292.41555214 256.64968723 C288.09952127 256.6686715 283.78405454 256.6563413 279.46803761 256.6389643 C274.816287 256.62562608 270.16462089 256.6410146 265.51287842 256.65278625 C256.39730398 256.67119378 247.28194347 256.6626298 238.16637564 256.64469803 C230.75992919 256.63068917 223.35354094 256.62677553 215.94708252 256.6301403 C214.8941421 256.63061775 213.84120168 256.63109519 212.75635397 256.6315871 C210.61752302 256.6326134 208.47869208 256.63366876 206.33986115 256.63475286 C187.41468226 256.64332622 168.48960684 256.6266243 149.56445312 256.59692383 C131.18810682 256.5680849 112.8119096 256.56100207 94.43554688 256.57641602 C74.43907345 256.59316586 54.44267086 256.59722482 34.4461956 256.57970566 C32.3151029 256.57786121 30.1840102 256.57602648 28.05291748 256.57420158 C27.00429838 256.57328949 25.95567928 256.5723774 24.87528384 256.57143768 C17.47521373 256.5658247 10.07517811 256.56914654 2.67510986 256.57574654 C-6.33950827 256.58346711 -15.35397948 256.57677329 -24.36856794 256.5515715 C-28.97057023 256.53904673 -33.57234344 256.53296583 -38.17435455 256.54411316 C-42.38367084 256.55411697 -46.59252921 256.54577899 -50.80178952 256.52253198 C-52.32796825 256.51735112 -53.85418766 256.51897312 -55.38034892 256.52792663 C-57.44891387 256.53905663 -59.51591281 256.52576301 -61.5843811 256.50615788 C-62.73504374 256.50496639 -63.88570637 256.50377491 -65.07123756 256.50254732 C-68.66017281 255.88672073 -69.84479353 254.89274685 -72 252 C-72.38524863 249.27292505 -72.52268793 247.0280575 -72.4375 244.3125 C-72.42356201 243.56500488 -72.40962402 242.81750977 -72.39526367 242.04736328 C-71.70324358 220.51133726 -65.21844663 199.46666255 -51 183 C-50.41734375 182.32195312 -49.8346875 181.64390625 -49.234375 180.9453125 C-30.540432 160.7589959 -1.76099856 156.8037605 24 153 C24.11988281 152.23792236 24.23976563 151.47584473 24.36328125 150.69067383 C25.25545893 146.92047052 27.49874349 144.52666242 30 141.6875 C30.50055908 141.11281982 31.00111816 140.53813965 31.5168457 139.94604492 C38.03713391 132.57063695 44.95241709 126.84039589 53.25 121.5625 C54.27903442 120.90568237 54.27903442 120.90568237 55.32885742 120.2355957 C58.85961202 118.06040252 61.7903271 116.44870545 66 116 C66 115.34 66 114.68 66 114 C65.195625 113.814375 65.195625 113.814375 64.375 113.625 C47.55405391 109.19843524 30.2637379 99.52980431 20.57177734 84.83447266 C14.57076775 74.10265001 12.8470953 62.04841632 10.4375 50.125 C9.97879073 47.90852718 9.51851379 45.69237819 9.05664062 43.4765625 C8.37241257 40.19395213 7.68942443 36.91115541 7.01376343 33.62677002 C5.29186392 25.28001527 3.43837379 16.96804742 1.50108337 8.66873169 C1.20482811 7.39194046 1.20482811 7.39194046 0.90258789 6.08935547 C0.72772354 5.34442841 0.55285919 4.59950134 0.37269592 3.83200073 C0 2 0 2 0 0 Z " fill="#3B97D3" transform="translate(134,256)"/>
<path d="M0 0 C9.96417905 1.73793821 18.19782583 11.55873778 23.83447266 19.29785156 C34.97887682 35.57325706 40.44361974 54.62582361 37.50390625 74.32421875 C36.3154248 79.46087586 34.7111534 83.51796838 32.0625 88.0625 C28.70070812 94.92574278 30.99228225 101.23249294 32.8515625 108.25390625 C39.76950769 134.90899219 34.08665908 166.28598914 23 191 C19.50509579 190.35279552 16.98833118 188.88736706 14 187 C9.68839387 184.84419694 4.49072469 185.87731883 0 187 C0 163.24 0 139.48 0 115 C-3.3 116.32 -6.6 117.64 -10 119 C-23.46472568 123.44087259 -36.76107331 124.38060722 -50.8125 124.3125 C-51.63179993 124.31001251 -52.45109985 124.30752502 -53.29522705 124.30496216 C-83.75916955 124.16224699 -112.73347118 117.59225088 -141.796875 108.8359375 C-148.44213375 106.84410518 -155.12880353 105.01408724 -161.82931519 103.21920776 C-163.74983479 102.70430104 -165.66900989 102.18438762 -167.58813477 101.66430664 C-179.20386138 98.56662282 -189.89198246 96.65200938 -201.9375 96.6875 C-203.02740234 96.67138672 -204.11730469 96.65527344 -205.24023438 96.63867188 C-222.58870591 96.62836381 -237.34394052 102.89209173 -249.8984375 114.80078125 C-259.32114125 124.73782472 -263.26224727 136.69376979 -263.4140625 150.0859375 C-263.43342865 151.14285797 -263.4527948 152.19977844 -263.4727478 153.28872681 C-263.53232914 156.65073684 -263.57884342 160.01278151 -263.625 163.375 C-263.66319948 165.66017084 -263.70225236 167.94532758 -263.7421875 170.23046875 C-263.83801302 175.820187 -263.92312289 181.40999076 -264 187 C-264.74894531 186.84402344 -265.49789062 186.68804687 -266.26953125 186.52734375 C-274.36427937 184.96398038 -278.24611615 186.23241292 -285.09375 190.6875 C-285.7228125 191.120625 -286.351875 191.55375 -287 192 C-299.29325593 143.38192896 -295.61988278 94.84555733 -270.18408203 50.96533203 C-256.5652117 28.36081529 -236.84771938 13.12671628 -211.453125 5.83984375 C-161.99711885 -6.18848354 -110.97766268 5.25828757 -62.07983398 14.72753906 C-61.33073761 14.87178818 -60.58164124 15.01603729 -59.80984497 15.16465759 C-57.78926426 15.55413333 -55.76924342 15.94651057 -53.74926758 16.33911133 C-38.58209405 19.01265035 -20.12051434 20.75544707 -6.69140625 11.671875 C-3.40305338 8.42149387 -1.71070287 4.2356345 0 0 Z " fill="#A56A43" transform="translate(388,0)"/>
<path d="M0 0 C10.9149512 -0.60939554 19.31136727 -0.72392608 28.03125 6.73828125 C33.20792813 12.02794243 36.76851047 18.35913989 40.32421875 24.79589844 C44.40615094 32.10094045 48.91038007 38.87938758 57 42 C59.80174928 42.6686371 62.57118691 42.99824697 65.4375 43.25 C66.16904297 43.32734375 66.90058594 43.4046875 67.65429688 43.484375 C69.43475885 43.6705671 71.21723355 43.83734664 73 44 C73.37125 42.66775391 73.37125 42.66775391 73.75 41.30859375 C77.40214721 31.64181661 87.19284906 24.5361823 96.10546875 19.90625 C103.51949598 16.90169112 113.07438903 16.99310715 120.828125 18.578125 C123.03602473 19.23597019 123.03602473 19.23597019 125 18 C136.67315964 17.0143291 147.02762908 17.91336046 156.81640625 25.0546875 C162.66347293 30.09135596 169.45522102 36.13724856 171 44 C179.98663987 43.84505793 188.69119911 43.236128 195.40893555 36.61035156 C200.36499347 31.12773761 203.8018752 24.79038044 207.41210938 18.3828125 C211.80361585 10.80847105 216.84982838 4.05483943 225.1796875 0.64453125 C231.35524925 -0.76678134 237.7108397 -0.22974305 244 0 C241.49369214 12.74665838 238.86684133 25.46024096 236.07275391 38.14697266 C235.49721124 40.76267425 234.92619363 43.37933724 234.35546875 45.99609375 C224.77451294 89.74517552 224.77451294 89.74517552 204.578125 102.859375 C192.27932015 110.45207432 178.91430938 115.00605793 164.875 118.0625 C163.740625 118.31837891 162.60625 118.57425781 161.4375 118.83789062 C148.27268441 121.74101606 135.4928054 123.39205036 122 123.375 C120.99569443 123.37518127 120.99569443 123.37518127 119.97109985 123.37536621 C108.5071928 123.34615145 97.60830369 122.13114634 86.42871094 119.546875 C84.06661456 119.01499966 81.70206691 118.55932584 79.3203125 118.125 C58.89987396 114.26368869 35.8858012 105.2131593 22.9296875 88.296875 C17.16377135 79.66006336 14.7666976 70.69144558 12.6953125 60.61328125 C12.48945526 59.63497849 12.28359802 58.65667572 12.07150269 57.64872742 C11.41768973 54.53766975 10.77094518 51.42519983 10.125 48.3125 C9.27605779 44.24554228 8.42386594 40.17927348 7.5703125 36.11328125 C7.36150452 35.11555695 7.15269653 34.11783264 6.93756104 33.08987427 C5.22616206 24.95814158 3.40246557 16.85441442 1.51712036 8.76130676 C1.31795013 7.90059067 1.11877991 7.03987457 0.91357422 6.15307617 C0.73672089 5.39661301 0.55986755 4.64014984 0.37765503 3.86076355 C0 2 0 2 0 0 Z " fill="#A56A43" transform="translate(134,256)"/>
<path d="M0 0 C20.57415542 6.40905581 37.3375163 18.17276803 47.69970703 37.41040039 C51.96021179 45.65227338 54.65092804 53.7396419 56.57421875 62.83984375 C56.91066406 64.34611328 56.91066406 64.34611328 57.25390625 65.8828125 C58.82133224 73.83803621 61.19317731 86.29650451 57.02629471 93.5251646 C53.76795749 96.60092789 51.13847998 96.52635268 46.88006592 96.44111633 C46.10077327 96.44538846 45.32148062 96.44966058 44.51857305 96.45406216 C41.90470274 96.46230466 39.29243361 96.43478799 36.67871094 96.4074707 C34.80622394 96.4060605 32.93373417 96.40685167 31.06124878 96.40968323 C25.97462955 96.41111986 20.88859791 96.38168992 15.80211544 96.34681344 C10.487675 96.31559121 5.17322161 96.31262246 -0.14129639 96.3066864 C-10.20651123 96.29113582 -20.27145506 96.25009081 -30.33655047 96.19993895 C-43.9364679 96.13364261 -57.53645927 96.10662079 -71.1364975 96.07742786 C-92.56646181 96.03038989 -113.99585417 95.93078554 -135.42578125 95.83984375 C-135.42578125 66.79984375 -135.42578125 37.75984375 -135.42578125 7.83984375 C-130.74873044 10.17836915 -127.13665429 12.39144494 -123.23828125 15.71484375 C-122.67947266 16.18954102 -122.12066406 16.66423828 -121.54492188 17.15332031 C-113.36403157 24.30117634 -106.48941804 32.84893403 -100.42578125 41.83984375 C-94.77302785 38.84329254 -90.05461632 35.27419464 -85.17578125 31.15234375 C-83.66557739 29.89037029 -82.15516092 28.62865122 -80.64453125 27.3671875 C-79.91878906 26.75858887 -79.19304687 26.14999023 -78.4453125 25.52294922 C-75.8821043 23.38673581 -73.27937026 21.30154376 -70.67578125 19.21484375 C-66.62794855 15.90911371 -62.75941268 12.45059319 -58.92578125 8.90234375 C-58.10267456 8.14860474 -58.10267456 8.14860474 -57.26293945 7.37963867 C-54.60842269 4.93382891 -52.03830999 2.45841226 -49.578125 -0.18359375 C-48.68222656 -1.10398437 -47.78632813 -2.024375 -46.86328125 -2.97265625 C-46.09886719 -3.80410156 -45.33445312 -4.63554687 -44.546875 -5.4921875 C-33.64719794 -11.31717136 -11.40065776 -3.1259433 0 0 Z " fill="#2980BA" transform="translate(391.42578125,416.16015625)"/>
<path d="M0 0 C11.54302221 2.89609382 22.85695127 3.91103852 34.74365234 3.8605957 C35.75504272 3.85835999 35.75504272 3.85835999 36.78686523 3.8560791 C51.25760552 3.79885212 64.94292222 2.27737615 78.86865234 -1.7019043 C88.07112652 -4.23505848 93.05174618 -3.69806732 101.43115234 0.9230957 C114.1542915 8.3925211 124.97104891 18.67314102 133.68115234 30.5480957 C132.16541681 34.38910735 129.91770438 36.18131842 126.68115234 38.6730957 C122.76858001 41.78073779 119.16348032 44.96531596 115.68115234 48.5480957 C111.54609387 52.77432082 107.20225305 56.52231548 102.58349609 60.20825195 C100.02291234 62.27257183 97.52691278 64.38805491 95.03857422 66.53735352 C87.56380982 72.98127252 79.70586629 78.80981478 71.68115234 84.5480957 C68.49751107 81.44693219 65.59281267 78.30796122 62.86865234 74.7980957 C51.63177102 60.51363615 51.63177102 60.51363615 36.57958984 50.6496582 C30.86655825 50.34402277 24.72395876 57.24064623 20.68115234 60.7355957 C13.01997306 67.80196293 6.81263697 76.15637752 0.68115234 84.5480957 C-17.48014166 73.16125264 -34.97092112 58.27606914 -49.88134766 42.9230957 C-53.68905858 39.03340057 -57.96322513 35.79752838 -62.31884766 32.5480957 C-59.61294387 27.47532572 -56.68121768 23.30179619 -52.75634766 19.1105957 C-52.23041016 18.54711426 -51.70447266 17.98363281 -51.16259766 17.40307617 C-35.6888891 1.22896894 -21.44924273 -5.49933736 0 0 Z " fill="#BBC2C7" transform="translate(220.31884765625,374.451904296875)"/>
<path d="M0 0 C18.56043872 12.03050967 39.9264524 32.84208329 51 52 C50.31035156 52.4846875 49.62070313 52.969375 48.91015625 53.46875 C35.53086061 63.0122805 25.67374559 73.76024624 16 87 C-2.16129401 75.61315693 -19.65207347 60.72797344 -34.5625 45.375 C-38.37021092 41.48530487 -42.64437748 38.24943267 -47 35 C-44.29409621 29.92723001 -41.36237002 25.75370049 -37.4375 21.5625 C-36.9115625 20.99901855 -36.385625 20.43553711 -35.84375 19.85498047 C-28.15359929 11.8167444 -11.79706522 -3.51250964 0 0 Z " fill="#EAEFF0" transform="translate(205,372)"/>
<path d="M0 0 C2.20789973 0.65784519 2.20789973 0.65784519 4.171875 -0.578125 C15.84503464 -1.5637959 26.19950408 -0.66476454 35.98828125 6.4765625 C44.53043898 13.8347848 50.16167156 21.88178278 54.171875 32.421875 C54.171875 33.081875 54.171875 33.741875 54.171875 34.421875 C47.62484573 34.44733387 41.07782935 34.4647875 34.53076172 34.47680664 C32.30582197 34.48181995 30.08088549 34.48863228 27.85595703 34.49731445 C24.64875479 34.50951187 21.4415963 34.51513347 18.234375 34.51953125 C16.75420898 34.52727318 16.75420898 34.52727318 15.24414062 34.53517151 C10.97467305 34.53551443 6.83741152 34.44608368 2.60546875 33.85327148 C-0.68202194 33.11748001 -0.68202194 33.11748001 -2.828125 34.421875 C-4.40103708 34.51191466 -5.97774075 34.53944009 -7.55322266 34.53540039 C-8.53408844 34.53532486 -9.51495422 34.53524933 -10.52554321 34.53517151 C-11.58703583 34.53001022 -12.64852844 34.52484894 -13.7421875 34.51953125 C-14.82696381 34.5181163 -15.91174011 34.51670135 -17.02938843 34.51524353 C-20.503995 34.50963302 -23.97853781 34.49707872 -27.453125 34.484375 C-29.80468657 34.47936135 -32.15624915 34.47479821 -34.5078125 34.47070312 C-40.28127186 34.45966018 -46.05469388 34.44291179 -51.828125 34.421875 C-51.35795374 32.97916688 -50.88500606 31.53736339 -50.41088867 30.09594727 C-50.14781418 29.29294693 -49.88473969 28.48994659 -49.61369324 27.66261292 C-45.40456505 15.65658637 -36.04215698 6.93784324 -24.8515625 1.453125 C-17.31098693 -1.59699545 -7.90527834 -1.61599612 0 0 Z " fill="#CA8252" transform="translate(254.828125,274.578125)"/>
<path d="M0 0 C2 1 2 1 2.57836914 2.69897461 C2.72910889 3.42608643 2.87984863 4.15319824 3.03515625 4.90234375 C3.20466797 5.71123047 3.37417969 6.52011719 3.54882812 7.35351562 C3.71833984 8.20623047 3.88785156 9.05894531 4.0625 9.9375 C4.23587891 10.75541016 4.40925781 11.57332031 4.58789062 12.41601562 C10.45557542 41.03502997 6.94743046 71.36718627 -5 98 C-8.49490421 97.35279552 -11.01166882 95.88736706 -14 94 C-18.31160613 91.84419694 -23.50927531 92.87731883 -28 94 C-27.67 69.91 -27.34 45.82 -27 21 C-22.71 18.69 -18.42 16.38 -14 14 C-10.23424354 11.16912222 -10.23424354 11.16912222 -7.3125 8.25 C-6.56709961 7.54810547 -6.56709961 7.54810547 -5.80664062 6.83203125 C-3.53902918 4.66567985 -1.74751725 2.62127587 0 0 Z " fill="#805333" transform="translate(416,93)"/>
<path d="M0 0 C7.15222218 3.64648179 11.77420806 8.1560475 15.25 15.375 C17.44035981 22.28647319 17.58434685 30.74914255 14.25 37.25 C9.95453723 43.85093714 3.89795255 49.24360339 -3.75 51.375 C-12.49192785 52.39603882 -19.50565456 51.56831479 -26.75 46.375 C-32.14365752 41.68030457 -36.00301566 35.22620169 -37.09765625 28.1171875 C-37.40176862 20.5276005 -35.38967811 13.9991688 -30.5625 8.125 C-22.37558342 -0.58337624 -11.56713917 -4.78982911 0 0 Z " fill="#FDFDFC" transform="translate(327.75,195.625)"/>
<path d="M0 0 C5.91543086 4.78126931 10.09909225 10.25219333 11 18 C11.08765625 18.62390625 11.1753125 19.2478125 11.265625 19.890625 C11.89542269 27.84897759 8.38912321 34.97097241 3.32421875 40.9921875 C-3.44301175 47.24604189 -10.76206106 48.65746883 -19.81640625 48.40625 C-27.64111728 47.40775927 -32.75768133 42.96818929 -37.55859375 36.953125 C-42.55265413 30.18610552 -42.8361006 24.25406294 -42 16 C-40.27929171 7.82089991 -35.86391025 2.61653318 -29 -2 C-19.04618239 -7.16832837 -9.18638194 -6.13453022 0 0 Z " fill="#FDFDFC" transform="translate(210,199)"/>
<path d="M0 0 C1.09054688 0.25394531 2.18109375 0.50789063 3.3046875 0.76953125 C7.36782189 1.70475859 11.43971981 2.59440028 15.51708984 3.46533203 C17.05317728 3.79611192 18.58774078 4.13417441 20.11962891 4.48388672 C47.9233939 10.75556626 76.75531086 6.95233648 104 0 C100.99489617 3.09365201 97.93262476 5.94425636 94.59838867 8.68969727 C80.56202612 20.29141219 66.89461257 33.36463073 56 48 C55.43410156 48.7528125 54.86820312 49.505625 54.28515625 50.28125 C53.86105469 50.8484375 53.43695313 51.415625 53 52 C49.40764291 50.80254764 48.74609207 49.67118586 46.5 46.6875 C34.15132039 30.87134695 19.68745071 16.03698417 3.59765625 4.0390625 C1 2 1 2 0 0 Z " fill="#F7C694" transform="translate(204,371)"/>
<path d="M0 0 C5.03438158 4.76225284 6.2463048 10.51533501 6.55078125 17.19140625 C6.9221261 32.4466542 3.69595986 45.51174682 -7 57 C-14.46607252 64.01810817 -21.70383007 66.3538945 -31.6875 66.1875 C-31.55698242 65.53193115 -31.42646484 64.8763623 -31.29199219 64.20092773 C-28.5778659 50.42709331 -26.21149223 36.67380089 -24.4375 22.75 C-24.27475586 21.47890381 -24.11201172 20.20780762 -23.94433594 18.89819336 C-23.00640234 11.33946413 -22.25267661 3.78315769 -21.6875 -3.8125 C-12.75161152 -5.73286425 -7.59779 -5.12409093 0 0 Z " fill="#F6C493" transform="translate(408.6875,189.8125)"/>
<path d="M0 0 C3.43905497 2.76732759 3.37861739 3.64630723 3.90625 7.90234375 C4.09598583 10.31982532 4.25956191 12.73944764 4.40234375 15.16015625 C4.61256715 17.79018161 4.82947122 20.41853868 5.05859375 23.046875 C5.11559952 23.72263077 5.17260529 24.39838654 5.2313385 25.09461975 C5.88377304 32.46110965 7.10133761 39.69437273 8.40234375 46.97265625 C8.6125415 48.15778809 8.82273926 49.34291992 9.03930664 50.56396484 C10.22788685 57.15360027 11.49766203 63.72513832 12.83984375 70.28515625 C3.50804016 70.97640096 -3.28592672 68.20398461 -10.41015625 62.16015625 C-18.84072911 54.10015802 -24.76160869 43.08749118 -25.36328125 31.30859375 C-25.70462399 11.360438 -25.70462399 11.360438 -20.54296875 5.42578125 C-14.13206566 -0.35228591 -8.44853959 -1.91110352 0 0 Z " fill="#F7C493" transform="translate(122.16015625,185.71484375)"/>
<path d="M0 0 C0.97356445 0.00757324 1.94712891 0.01514648 2.95019531 0.02294922 C15.42230464 0.30820447 27.26131437 4.30225649 36.3125 13.25 C37.2715625 14.3328125 37.2715625 14.3328125 38.25 15.4375 C38.745 15.9325 38.745 15.9325 39.25 16.4375 C39.67193999 21.07883994 39.03317667 23.69091602 36.25 27.4375 C32.92141671 29.10179165 29.81962114 29.18241259 26.25 28.4375 C23.60261258 26.85246708 21.21150285 25.04905998 18.74609375 23.1953125 C11.53424922 18.11654874 3.8484508 17.81303151 -4.75 18.4375 C-6.41967641 18.7554144 -8.0867564 19.08748626 -9.75 19.4375 C-13.63899292 19.87926642 -16.77707919 20.06116719 -20.1875 17.875 C-22.28567796 14.60184238 -22.75 12.32332276 -22.75 8.4375 C-20.48637305 4.10708323 -17.62992828 2.66891331 -13.11108398 1.05712891 C-8.77281149 -0.08138165 -4.46162593 -0.04844578 0 0 Z " fill="#815434" transform="translate(322.75,156.5625)"/>
<path d="M0 0 C0.95583984 -0.020625 1.91167969 -0.04125 2.89648438 -0.0625 C10.24044698 -0.10254888 17.23968856 0.47697505 22.875 5.5625 C24.64320895 8.86828196 25.00514272 10.55590547 24.3125 14.25 C22.3125 17.125 22.3125 17.125 19.3125 19.25 C15.73495484 19.88472575 12.44710638 19.48837821 8.9140625 18.74609375 C-0.12048572 17.02328951 -8.49666432 18.07229401 -16.6875 22.25 C-18.11226193 23.29499533 -19.5104567 24.37751019 -20.875 25.5 C-23.60142394 27.70577214 -25.40499947 28.70585633 -28.9375 28.875 C-33.03308359 28.19240274 -34.26755259 27.54112848 -36.6875 24.25 C-38.11416055 21.39667891 -38.01230174 19.41192537 -37.6875 16.25 C-28.76897552 4.17073433 -14.18438438 0.07500005 0 0 Z " fill="#815434" transform="translate(187.6875,156.75)"/>
<path d="M0 0 C4.00538252 0.64372219 5.65945826 1.72195826 8.5 4.5625 C9.93509221 7.43268441 9.61158506 9.89793723 9.59765625 13.1015625 C9.59443359 14.40351563 9.59121094 15.70546875 9.58789062 17.046875 C9.57953466 18.42708399 9.57106971 19.80729232 9.5625 21.1875 C9.55748501 22.57551926 9.5529221 23.96354022 9.54882812 25.3515625 C9.53700985 28.75522673 9.5190739 32.1588687 9.5 35.5625 C3.56 35.5625 -2.38 35.5625 -8.5 35.5625 C-8.61511868 31.3798545 -8.71452349 27.20274614 -8.7746582 23.01977539 C-8.79973147 21.59868709 -8.83379999 20.17772687 -8.87719727 18.75708008 C-8.93817858 16.70882538 -8.96627762 14.66228117 -8.98828125 12.61328125 C-9.01446533 11.38262939 -9.04064941 10.15197754 -9.06762695 8.8840332 C-8.14072091 3.46013784 -5.3768931 0.86414353 0 0 Z " fill="#285781" transform="translate(370.5,476.4375)"/>
<path d="M0 0 C0.639375 -0.00386719 1.27875 -0.00773437 1.9375 -0.01171875 C5.23290086 1.10547207 6.8003163 3.03410498 9 5.6875 C9.56762695 9.0090332 9.56762695 9.0090332 9.48828125 12.73828125 C9.48120651 13.39708786 9.47413177 14.05589447 9.46684265 14.73466492 C9.43900979 16.82430034 9.37630819 18.91118476 9.3125 21 C9.28740205 22.42248714 9.26459148 23.84501659 9.24414062 25.26757812 C9.19348172 28.7427791 9.09565354 32.21208813 9 35.6875 C3.06 35.6875 -2.88 35.6875 -9 35.6875 C-9.11526133 31.66616009 -9.21463387 27.64906347 -9.2746582 23.62695312 C-9.2996928 22.26119497 -9.33373218 20.89556933 -9.37719727 19.53027344 C-9.77452951 6.72215174 -9.77452951 6.72215174 -6.73046875 2.80078125 C-2.9649666 -0.11357735 -2.9649666 -0.11357735 0 0 Z " fill="#285782" transform="translate(141,476.3125)"/>
<path d="M0 0 C0.99837891 -0.020625 1.99675781 -0.04125 3.02539062 -0.0625 C12.29519618 -0.11190603 12.29519618 -0.11190603 16.1875 3.25 C17.78001643 6.43503287 17.57879761 9.7832405 17.1875 13.25 C15.44496655 16.48613354 14.71564056 17.07395315 11.1875 18.25 C7.40103467 18.55781103 3.60999472 18.5736825 -0.1875 18.625 C-1.2290625 18.66238281 -2.270625 18.69976562 -3.34375 18.73828125 C-10.87258313 18.82493022 -10.87258313 18.82493022 -13.61816406 17.14550781 C-14.9765625 15.7890625 -14.9765625 15.7890625 -16.8125 13.25 C-17.1425 12.92 -17.4725 12.59 -17.8125 12.25 C-17.59090372 8.33513239 -17.38759372 5.95495359 -14.875 2.875 C-10.29603194 -0.73267181 -5.62732909 0.02872918 0 0 Z " fill="#CCB392" transform="translate(255.8125,237.75)"/>
<path d="M0 0 C1.18013672 -0.03222656 2.36027344 -0.06445312 3.57617188 -0.09765625 C11.93677738 -0.1071193 11.93677738 -0.1071193 14.98828125 1.87744141 C17.47739205 4.68560137 18.05830026 6.50320745 18.1875 10.25 C16.77202282 14.49643154 15.96161842 15.40506397 12.0625 17.625 C7.88947635 18.2710521 3.77849716 18.27409141 -0.4375 18.25 C-2.12939453 18.29833984 -2.12939453 18.29833984 -3.85546875 18.34765625 C-11.83136555 18.35709518 -11.83136555 18.35709518 -14.82983398 16.37255859 C-17.34537564 13.53908227 -17.93463576 11.79112603 -18 8 C-15.10675428 -1.19030993 -8.2893924 -0.04512462 0 0 Z " fill="#805333" transform="translate(255.9375,326.375)"/>
<path d="M0 0 C3.25948481 1.61049348 5.22926325 3.94899534 7.375 6.875 C8.73516054 11.49954584 8.56569135 14.89037466 6.375 19.1875 C2.83812594 23.37590349 0.00696671 25.71329047 -5.5 26.5 C-10.37954973 25.80292147 -13.34296662 23.81447123 -16.64453125 20.19921875 C-19.14234334 16.14657262 -18.6268069 11.59204183 -18 7 C-13.66115405 -0.3311535 -7.9542686 -1.12496085 0 0 Z " fill="#577782" transform="translate(204,208)"/>
<path d="M0 0 C3.85544798 1.99657127 5.59805092 3.39707638 8 7 C8.64817054 11.34615406 9.00465176 15.9666809 7.01953125 19.984375 C4.79953652 22.74399922 2.40651705 24.99808322 -1 26 C-6.01597611 26.45599783 -9.00671602 26.12987123 -13 23 C-16.03063475 19.54844376 -17.86936155 17.35863989 -18.3125 12.75 C-17.88749031 7.64988378 -15.94580685 4.74294613 -12.1640625 1.35546875 C-8.3506865 -1.03305376 -4.34319923 -0.63024342 0 0 Z " fill="#577782" transform="translate(318,208)"/>
<path d="M0 0 C0.66 0.33 1.32 0.66 2 1 C-2.95 5.95 -7.9 10.9 -13 16 C-13.66 15.67 -14.32 15.34 -15 15 C-10.28109462 9.59947495 -5.69641143 4.38185495 0 0 Z " fill="#C2DCEA" transform="translate(179,383)"/>
</svg>
