<?xml version="1.0" encoding="UTF-8"?>
<svg version="1.1" xmlns="http://www.w3.org/2000/svg" width="1024" height="1024">
<path d="M0 0 C337.92 0 675.84 0 1024 0 C1024 337.92 1024 675.84 1024 1024 C686.08 1024 348.16 1024 0 1024 C0 686.08 0 348.16 0 0 Z " fill="#D92C00" transform="translate(0,0)"/>
<path d="M0 0 C1.03966919 -0.00551376 1.03966919 -0.00551376 2.1003418 -0.01113892 C15.84110339 -0.04917211 29.19659955 1.39812894 42.5 4.9375 C43.47525635 5.19619873 44.4505127 5.45489746 45.45532227 5.72143555 C71.20451573 12.83571047 92.92519616 26.06129637 112.25 44.3125 C113.05953125 45.05757813 113.8690625 45.80265625 114.703125 46.5703125 C144.26446675 74.73725134 156.70397505 116.80913307 158.390625 156.6328125 C159.19814866 190.46805401 159.19814866 190.46805401 156.25 199.3125 C157.13558594 198.755625 158.02117187 198.19875 158.93359375 197.625 C194.83336146 175.36694752 239.18233343 165.18011599 281.03271484 174.76904297 C302.18401594 179.95323106 320.31139675 187.98835153 338.25 200.3125 C339.24 200.9725 340.23 201.6325 341.25 202.3125 C340.92 201.6525 340.59 200.9925 340.25 200.3125 C340.14976103 198.73804012 340.111664 197.15941944 340.10473633 195.58178711 C340.09516655 194.10270119 340.09516655 194.10270119 340.08540344 192.59373474 C340.08373421 190.9830587 340.08373421 190.9830587 340.08203125 189.33984375 C340.07870285 188.22879776 340.07537445 187.11775177 340.07194519 185.97303772 C340.06686954 183.60825006 340.06453706 181.24345521 340.06469727 178.87866211 C340.06254043 175.3167675 340.044475 171.75519789 340.02539062 168.19335938 C339.98416142 151.99781658 340.70933383 136.39193448 344.375 120.5625 C344.58672852 119.64766846 344.79845703 118.73283691 345.01660156 117.7902832 C354.8281873 77.53311235 379.25938602 44.3090499 414.34277344 22.46923828 C427.3954061 14.55277981 441.06065233 8.5411095 455.8125 4.5625 C456.54307617 4.36374268 457.27365234 4.16498535 458.02636719 3.96020508 C471.04538629 0.6312516 484.01292858 -0.0946453 497.375 -0.0625 C498.18915375 -0.06228851 499.0033075 -0.06207703 499.84213257 -0.06185913 C512.38638742 -0.02937662 524.14751654 0.78560561 536.25 4.3125 C536.94206543 4.49973633 537.63413086 4.68697266 538.34716797 4.87988281 C566.51377366 12.51314502 590.7679564 27.8814721 612.25 47.3125 C613.12269531 48.10011719 613.99539063 48.88773437 614.89453125 49.69921875 C662.83735248 95.31847837 681.33976274 173.92020161 683.35687256 237.69128418 C683.4127049 241.1056611 683.44021056 244.51878762 683.453125 247.93359375 C683.46018463 249.18425125 683.46724426 250.43490875 683.47451782 251.72346497 C683.49201865 255.73235214 683.49920938 259.74108264 683.5 263.75 C683.50044186 264.77506905 683.50044186 264.77506905 683.50089264 265.82084656 C683.50230594 286.11601386 683.38961912 306.20718505 680.25 326.3125 C680.15054077 326.96083801 680.05108154 327.60917603 679.9486084 328.27716064 C673.13166703 372.50847095 661.5903018 418.61085405 629.25 451.3125 C628.57453125 452.06015625 627.8990625 452.8078125 627.203125 453.578125 C614.42470052 467.44872251 596.25903491 474.42780774 578.25 478.3125 C577.50943359 478.4875708 576.76886719 478.6626416 576.00585938 478.84301758 C572.5443419 479.43271443 569.12671881 479.53174837 565.625 479.5859375 C564.52172615 479.60472961 564.52172615 479.60472961 563.39616394 479.62390137 C547.09185024 479.84769006 531.83436205 479.71536585 516.25 474.3125 C515.23486328 473.97557129 515.23486328 473.97557129 514.19921875 473.63183594 C492.01575061 466.11702203 472.61882728 451.68170325 455.25 436.3125 C454.37988281 435.55324219 453.50976562 434.79398438 452.61328125 434.01171875 C438.00249662 421.09826232 426.6298639 407.03779061 415.25 391.3125 C414.98549971 395.66398869 414.98549971 395.66398869 414.72142029 400.01550293 C414.49258724 403.78913853 414.26282328 407.56271314 414.03125 411.33618164 C413.45955576 420.63467235 413.45955576 420.63467235 412.96484375 429.9375 C412.64642003 436.41327683 412.18019211 442.62985837 410.70703125 448.95703125 C410.19572017 451.59224987 410.06549894 454.13183659 409.9375 456.8125 C409.5056338 462.85862686 407.97844168 468.31574446 406.25854492 474.09326172 C404.29831889 480.78586361 402.94864264 487.52538676 401.8581543 494.41210938 C400.94805958 499.55469913 399.3970627 503.26573964 396.41992188 507.56860352 C394.58870208 510.29823686 393.48582198 513.27443762 392.25 516.3125 C387.61356846 526.96332351 382.8414709 535.97655154 375.23828125 544.83203125 C373.51897722 546.97693902 372.45650301 548.87869221 371.25 551.3125 C369.79310599 552.57514148 368.33143133 553.83403509 366.8203125 555.03125 C365.04369781 556.43685912 365.04369781 556.43685912 362.8125 558.75 C360.25856553 561.30393447 357.59028773 563.59430386 354.80078125 565.8828125 C353.00318225 567.42731807 353.00318225 567.42731807 351.25 570.3125 C349.578125 571.41796875 349.578125 571.41796875 347.5 572.5 C344.06835454 574.3199781 340.71208069 576.2221839 337.37744141 578.21459961 C308.20482566 595.45074664 273.76971998 600.53194427 240.375 600.5625 C239.22164154 600.56401062 239.22164154 600.56401062 238.04498291 600.56555176 C225.24561719 600.55426396 212.83653082 599.79326975 200.25 597.3125 C199.12803223 597.0956958 199.12803223 597.0956958 197.98339844 596.87451172 C169.97437903 591.28632247 137.06564792 578.8639175 119.25 555.3125 C118.53585937 554.40757812 117.82171875 553.50265625 117.0859375 552.5703125 C98.87271519 528.81409613 91.5054121 502.72295558 85.93164062 473.83300781 C85.29982173 470.5698171 84.64488721 467.31216595 83.984375 464.0546875 C82.2305178 455.20341073 80.8218129 446.80870668 81.18579102 437.7409668 C81.24789409 434.42494597 81.0728731 431.23325612 80.796875 427.9296875 C80.18731584 419.9352267 79.91854557 411.94959468 79.6875 403.9375 C79.64414145 402.50780455 79.60052285 401.07811697 79.55664062 399.6484375 C79.45144498 396.20320994 79.34971307 392.75789113 79.25 389.3125 C78.55729004 390.41875732 78.55729004 390.41875732 77.85058594 391.54736328 C77.23473633 392.52431152 76.61888672 393.50125977 75.984375 394.5078125 C75.37819336 395.47219238 74.77201172 396.43657227 74.14746094 397.43017578 C71.15085452 401.98214894 67.73903315 406.13305746 64.25 410.3125 C63.03183594 411.80910156 63.03183594 411.80910156 61.7890625 413.3359375 C51.75937922 425.55330338 40.75134381 436.61685551 28.25 446.3125 C26.7959375 447.49199219 26.7959375 447.49199219 25.3125 448.6953125 C13.24061461 458.3226411 -0.0769571 466.1748102 -13.75 473.3125 C-13.48445312 474.48425781 -13.21890625 475.65601563 -12.9453125 476.86328125 C-12.02408532 480.94393454 -11.12778676 485.02972881 -10.23730469 489.1171875 C-9.85877264 490.82247815 -9.45413197 492.52198248 -9.0390625 494.21875 C-4.48275608 514.55704532 -7.64990557 537.65437687 -18.63671875 555.3515625 C-27.80951402 568.43496007 -38.85240889 577.78410696 -54.75 581.3125 C-68.489187 582.95851507 -80.92910226 578.75384238 -91.75 570.3125 C-102.88208276 560.57460873 -107.18629039 544.78282859 -108.625 530.515625 C-109.49147283 515.2440413 -107.67964441 502.26098351 -101.625 488.125 C-100.70306442 485.92429152 -99.78365349 483.72252311 -98.8671875 481.51953125 C-98.25786377 480.08830933 -98.25786377 480.08830933 -97.63623047 478.62817383 C-96.63085733 476.4144307 -96.63085733 476.4144307 -96.75 474.3125 C-98.25626953 473.60287109 -98.25626953 473.60287109 -99.79296875 472.87890625 C-134.18035403 456.37634299 -155.19123533 428.01036744 -167.91015625 392.671875 C-182.26038674 351.45866767 -187.2060148 307.69920315 -187.0625 264.25 C-187.06067719 263.09540283 -187.05885437 261.94080566 -187.05697632 260.7512207 C-187.00848655 242.43819727 -186.40392734 224.45879236 -183.75 206.3125 C-183.57307617 205.09852539 -183.39615234 203.88455078 -183.21386719 202.63378906 C-177.86503085 167.15040326 -168.90920944 131.53238712 -152.75 99.3125 C-152.41935547 98.6417041 -152.08871094 97.9709082 -151.74804688 97.27978516 C-130.45249098 54.38172946 -93.96684053 22.17967069 -48.57421875 6.87890625 C-44.34086987 5.51506326 -40.07228431 4.35821395 -35.75 3.3125 C-35.06905273 3.14733887 -34.38810547 2.98217773 -33.68652344 2.81201172 C-22.55351757 0.27175295 -11.36805307 0.02882463 0 0 Z " fill="#FEFEFE" transform="translate(263.75,259.6875)"/>
<path d="M0 0 C0.81415375 0.00021149 1.6283075 0.00042297 2.46713257 0.00064087 C15.01138742 0.03312338 26.77251654 0.84810561 38.875 4.375 C39.56706543 4.56223633 40.25913086 4.74947266 40.97216797 4.94238281 C69.13877366 12.57564502 93.3929564 27.9439721 114.875 47.375 C115.74769531 48.16261719 116.62039063 48.95023437 117.51953125 49.76171875 C165.46235248 95.38097837 183.96476274 173.98270161 185.98187256 237.75378418 C186.0377049 241.1681611 186.06521056 244.58128762 186.078125 247.99609375 C186.08518463 249.24675125 186.09224426 250.49740875 186.09951782 251.78596497 C186.11701865 255.79485214 186.12420938 259.80358264 186.125 263.8125 C186.12544186 264.83756905 186.12544186 264.83756905 186.12589264 265.88334656 C186.12730594 286.17851386 186.01461912 306.26968505 182.875 326.375 C182.72581116 327.34750702 182.72581116 327.34750702 182.5736084 328.33966064 C175.75666703 372.57097095 164.2153018 418.67335405 131.875 451.375 C131.19953125 452.12265625 130.5240625 452.8703125 129.828125 453.640625 C117.04970052 467.51122251 98.88403491 474.49030774 80.875 478.375 C80.13443359 478.5500708 79.39386719 478.7251416 78.63085938 478.90551758 C75.1693419 479.49521443 71.75171881 479.59424837 68.25 479.6484375 C67.14672615 479.66722961 67.14672615 479.66722961 66.02116394 479.68640137 C49.71685024 479.91019006 34.45936205 479.77786585 18.875 474.375 C17.85986328 474.03807129 17.85986328 474.03807129 16.82421875 473.69433594 C-5.35924939 466.17952203 -24.75617272 451.74420325 -42.125 436.375 C-42.99511719 435.61574219 -43.86523438 434.85648438 -44.76171875 434.07421875 C-55.01569397 425.01144317 -64.37109614 415.56947676 -72.46557617 404.53337097 C-73.69851968 402.92971226 -75.00038676 401.37857039 -76.33546448 399.85888672 C-82.66839264 392.2959589 -84.42607965 386.52630898 -84.30078125 376.58984375 C-84.33470021 374.60842341 -84.36863848 372.62700324 -84.40355968 370.64560032 C-84.44135804 367.89159407 -84.43929484 365.13819222 -84.43695068 362.38397217 C-84.43856236 356.3063352 -84.51912243 350.22915568 -84.61328125 344.15234375 C-84.62247526 343.49122274 -84.63166927 342.83010174 -84.64114189 342.14894676 C-85.32595273 298.81671639 -99.20548256 259.03681865 -129.125 227.375 C-129.70507812 226.82972656 -130.28515625 226.28445313 -130.8828125 225.72265625 C-132.125 224.375 -132.125 224.375 -132.125 222.375 C-132.72441406 222.106875 -133.32382812 221.83875 -133.94140625 221.5625 C-136.15635212 220.35794983 -137.38178375 219.22958345 -139.0625 217.375 C-142.92543687 213.35145963 -147.26892123 210.10877241 -151.76928711 206.83984375 C-156.020098 203.68970599 -156.020098 203.68970599 -157.125 200.375 C-157.2221041 198.76244912 -157.26315172 197.146218 -157.27026367 195.53076172 C-157.27983345 194.05178909 -157.27983345 194.05178909 -157.28959656 192.54293823 C-157.29070938 191.47431549 -157.2918222 190.40569275 -157.29296875 189.3046875 C-157.29629715 188.19505646 -157.29962555 187.08542542 -157.30305481 185.94216919 C-157.30812559 183.58335789 -157.31046309 181.2245394 -157.31030273 178.86572266 C-157.3124619 175.3126986 -157.33053935 171.75999919 -157.34960938 168.20703125 C-157.39087241 152.0285059 -156.6618196 136.43782386 -153 120.625 C-152.78827148 119.71016846 -152.57654297 118.79533691 -152.35839844 117.8527832 C-142.5468127 77.59561235 -118.11561398 44.3715499 -83.03222656 22.53173828 C-69.9795939 14.61527981 -56.31434767 8.6036095 -41.5625 4.625 C-40.83192383 4.42624268 -40.10134766 4.22748535 -39.34863281 4.02270508 C-26.32961371 0.6937516 -13.36207142 -0.0321453 0 0 Z " fill="#FEFEFE" transform="translate(761.125,259.625)"/>
<path d="M0 0 C5.20535726 4.47703566 10.15015717 9.1426029 15 14 C15.75539063 14.70898438 16.51078125 15.41796875 17.2890625 16.1484375 C49.91619321 47.24787647 61.67956751 92.17439451 62.75 135.875 C62.86719436 141.4571564 62.93056083 147.03942496 62.97784424 152.62255859 C62.99963409 154.96073568 63.02952504 157.29866789 63.06201172 159.63671875 C63.30170828 177.51444385 63.00683587 195.32889721 62.125 213.1875 C62.08579437 214.01538025 62.04658875 214.8432605 62.00619507 215.69622803 C61.6220757 223.58928375 61.19686571 231.33078769 59.42382812 239.05981445 C58.88143201 241.54277641 58.76187168 243.96353426 58.6875 246.5 C58.2556338 252.54612686 56.72844168 258.00324446 55.00854492 263.78076172 C53.04831889 270.47336361 51.69864264 277.21288676 50.6081543 284.09960938 C49.69805958 289.24219913 48.1470627 292.95323964 45.16992188 297.25610352 C43.33870208 299.98573686 42.23582198 302.96193762 41 306 C36.36356846 316.65082351 31.5914709 325.66405154 23.98828125 334.51953125 C22.26897722 336.66443902 21.20650301 338.56619221 20 341 C18.54310599 342.26264148 17.08143133 343.52153509 15.5703125 344.71875 C13.79369781 346.12435912 13.79369781 346.12435912 11.5625 348.4375 C9.00856553 350.99143447 6.34028773 353.28180386 3.55078125 355.5703125 C1.75318225 357.11481807 1.75318225 357.11481807 0 360 C-1.671875 361.10546875 -1.671875 361.10546875 -3.75 362.1875 C-7.18164546 364.0074781 -10.53791931 365.9096839 -13.87255859 367.90209961 C-43.04517434 385.13824664 -77.48028002 390.21944427 -110.875 390.25 C-112.02835846 390.25151062 -112.02835846 390.25151062 -113.20501709 390.25305176 C-126.00438281 390.24176396 -138.41346918 389.48076975 -151 387 C-151.74797852 386.85546387 -152.49595703 386.71092773 -153.26660156 386.56201172 C-181.27562097 380.97382247 -214.18435208 368.5514175 -232 345 C-233.07121094 343.64261719 -233.07121094 343.64261719 -234.1640625 342.2578125 C-252.37728481 318.50159613 -259.7445879 292.41045558 -265.31835938 263.52050781 C-265.95017827 260.2573171 -266.60511279 256.99966595 -267.265625 253.7421875 C-269.0185504 244.89561327 -270.4320473 236.50248111 -270.06280518 227.43933105 C-270.00112913 224.06183329 -270.19098403 220.80800002 -270.47558594 217.44335938 C-271.00841473 210.42220347 -271.17652598 203.44560495 -271.203125 196.40625 C-271.21013931 195.15212814 -271.21715363 193.89800629 -271.22438049 192.60588074 C-271.24180296 188.57054732 -271.24881576 184.53536297 -271.25 180.5 C-271.25044186 179.8119138 -271.25088371 179.12382759 -271.25133896 178.41489029 C-271.2734647 112.67381791 -262.97812385 54.30280054 -215.5 5.1875 C-156.1712901 -52.62212486 -62.13843795 -51.08060172 0 0 Z " fill="#52A6FE" transform="translate(615,470)"/>
<path d="M0 0 C0 45.87 0 91.74 0 139 C-337.92 139 -675.84 139 -1024 139 C-1024 93.46 -1024 47.92 -1024 1 C-1010.83111021 2.71768128 -997.69161217 4.45166081 -984.55883789 6.39672852 C-924.09269515 15.30353614 -863.18059744 22.07406359 -802.2331543 26.65795898 C-798.33490708 26.96303519 -794.44373605 27.33033383 -790.55125427 27.70097351 C-776.46452037 29.03512792 -762.35880534 29.94936139 -748.23625565 30.81226349 C-746.14915739 30.93984381 -744.06210872 31.06821239 -741.97506714 31.19671631 C-732.6579157 31.7695584 -723.34004236 32.32973645 -714.02156067 32.88050079 C-712.0747024 32.99558417 -710.12786589 33.11103548 -708.18103027 33.22650146 C-706.97241333 33.29790344 -705.76379639 33.36930542 -704.51855469 33.44287109 C-703.48059753 33.50421234 -702.44264038 33.56555359 -701.37322998 33.62875366 C-639.63266269 37.17823188 -577.99635678 38.34166518 -516.17000765 38.25713813 C-510.00410401 38.24958472 -503.83826459 38.25233451 -497.67236328 38.26074219 C-454.83137675 38.31766401 -412.08660627 37.87967162 -369.27755165 36.13109398 C-365.8645454 35.99458215 -362.4513063 35.86655587 -359.03788757 35.74079895 C-348.03276079 35.33437453 -337.03891675 34.91403008 -326.05078125 34.16796875 C-324.30039551 34.05338821 -324.30039551 34.05338821 -322.51464844 33.93649292 C-318.7803254 33.6907634 -315.04640169 33.43954503 -311.3125 33.1875 C-309.31591185 33.05425291 -307.31932359 32.92100744 -305.32272625 32.78789806 C-296.54776972 32.20229944 -287.77375672 31.60327815 -279 31 C-277.17758789 30.87498108 -277.17758789 30.87498108 -275.31835938 30.74743652 C-197.02665421 25.44541442 -197.02665421 25.44541442 -119.07617188 16.62084961 C-109.04071937 15.24762473 -98.99133149 14.02143128 -88.93386841 12.8210144 C-73.80264685 11.01118645 -58.72595744 9.04153514 -43.68212891 6.59619141 C-36.4997327 5.43325469 -29.31226887 4.30203585 -22.12557983 3.16598511 C-19.53758226 2.75595436 -16.95002833 2.34321761 -14.36254883 1.92993164 C-12.77295521 1.67720844 -11.18335587 1.42452118 -9.59375 1.171875 C-8.85549484 1.05333664 -8.11723969 0.93479828 -7.35661316 0.81266785 C-2.22658783 0 -2.22658783 0 0 0 Z " fill="#FED000" transform="translate(1024,885)"/>
<path d="M0 0 C1 1 1 1 1.1875 3.9375 C1.13975951 7.85222011 0.32663256 11.48081221 -0.5078125 15.29296875 C-1.00985045 18.05417747 -1.18074976 20.69836993 -1.3125 23.5 C-1.7443662 29.54612686 -3.27155832 35.00324446 -4.99145508 40.78076172 C-6.95168111 47.47336361 -8.30135736 54.21288676 -9.3918457 61.09960938 C-10.30194042 66.24219913 -11.8529373 69.95323964 -14.83007812 74.25610352 C-16.66129792 76.98573686 -17.76417802 79.96193762 -19 83 C-23.63643154 93.65082351 -28.4085291 102.66405154 -36.01171875 111.51953125 C-37.73102278 113.66443902 -38.79349699 115.56619221 -40 118 C-41.45689401 119.26264148 -42.91856867 120.52153509 -44.4296875 121.71875 C-46.20630219 123.12435912 -46.20630219 123.12435912 -48.4375 125.4375 C-50.99143447 127.99143447 -53.65971227 130.28180386 -56.44921875 132.5703125 C-58.24681775 134.11481807 -58.24681775 134.11481807 -60 137 C-61.671875 138.10546875 -61.671875 138.10546875 -63.75 139.1875 C-67.18164546 141.0074781 -70.53791931 142.9096839 -73.87255859 144.90209961 C-103.04517434 162.13824664 -137.48028002 167.21944427 -170.875 167.25 C-172.02835846 167.25151062 -172.02835846 167.25151062 -173.20501709 167.25305176 C-186.00438281 167.24176396 -198.41346918 166.48076975 -211 164 C-211.74797852 163.85546387 -212.49595703 163.71092773 -213.26660156 163.56201172 C-241.27562097 157.97382247 -274.18435208 145.5514175 -292 122 C-293.07121094 120.64261719 -293.07121094 120.64261719 -294.1640625 119.2578125 C-313.19345871 94.43702868 -320.20866698 67.13484462 -326 37 C-326.21462891 35.90429688 -326.42925781 34.80859375 -326.65039062 33.6796875 C-327.23574178 30.68417618 -327.80876676 27.686678 -328.375 24.6875 C-328.54273926 23.81762451 -328.71047852 22.94774902 -328.88330078 22.05151367 C-329.0326709 21.23400635 -329.18204102 20.41649902 -329.3359375 19.57421875 C-329.46532715 18.87901123 -329.5947168 18.18380371 -329.72802734 17.4675293 C-330.11344955 13.97070505 -330.01554998 10.51810706 -330 7 C-329.02900864 7.08325531 -328.05801727 7.16651062 -327.05760193 7.25228882 C-317.75222465 8.04972257 -308.44655344 8.84364987 -299.14060879 9.63443565 C-294.36027787 10.04075662 -289.58004615 10.44817013 -284.80004883 10.85839844 C-272.20269453 11.93886627 -259.60368954 12.99586739 -247 14 C-246.25949276 14.05910931 -245.51898552 14.11821861 -244.75603867 14.17911911 C-223.79746591 15.83952804 -202.94821917 16.36887058 -181.9375 16.3125 C-180.40790814 16.3099743 -178.87831626 16.30746184 -177.34872437 16.30496216 C-154.43136301 16.25494226 -131.77985804 15.64660542 -109 13 C-106.85077579 12.75562103 -104.7015225 12.51149768 -102.55224609 12.26757812 C-74.61355394 9.07612621 -46.71673491 5.52738185 -18.84765625 1.77807617 C-17.94251785 1.65739777 -17.03737946 1.53671936 -16.10481262 1.41238403 C-14.43589192 1.189712 -12.76731054 0.9644738 -11.09916687 0.73605347 C-7.38529594 0.24234166 -3.74866267 -0.23843243 0 0 Z " fill="#1D7EF0" transform="translate(675,693)"/>
<path d="M0 0 C21.00302245 14.31858226 31.56646397 35.10726582 37.125 59.3671875 C37.72339345 63.09145443 38.06355203 66.76886231 38.24609375 70.53125 C38.31763672 71.82772461 38.31763672 71.82772461 38.390625 73.15039062 C39.72251188 101.06293423 33.20652336 126.79972744 14.90625 148.27734375 C4.13439423 159.74753701 -10.21545686 167.62930965 -26.06640625 168.76953125 C-42.96443923 169.10963996 -57.07631551 163.57654453 -69.40551758 151.96899414 C-83.08704672 138.54185977 -90.77411235 122.08965732 -94.75390625 103.53125 C-95.09035156 102.09652344 -95.09035156 102.09652344 -95.43359375 100.6328125 C-99.5342392 80.57897104 -96.5715621 59.57731964 -89.75390625 40.53125 C-89.37234375 39.45746094 -88.99078125 38.38367188 -88.59765625 37.27734375 C-81.41013596 18.65292463 -68.46348352 4.65737449 -50.78125 -4.171875 C-34.73422948 -11.04621153 -14.84126279 -8.93198935 0 0 Z " fill="#2D2D2D" transform="translate(770.75390625,378.46875)"/>
<path d="M0 0 C1.26179077 0.00845947 1.26179077 0.00845947 2.54907227 0.01708984 C18.61384542 0.32986904 31.52838627 6.97978119 42.75 18.3125 C43.51054687 19.03953125 44.27109375 19.7665625 45.0546875 20.515625 C63.09964599 38.87278 68.99542951 66.10151123 69.06933594 90.98950195 C68.64719043 114.81372562 60.44345022 138.33299601 44.75 156.3125 C44.21890625 156.93898438 43.6878125 157.56546875 43.140625 158.2109375 C33.0495617 169.25116022 18.3069319 175.44962014 3.55859375 176.55078125 C-13.08378843 176.91718364 -26.94205382 170.98516368 -38.97192383 159.61181641 C-57.3164582 141.6782716 -66.32854493 117.01528836 -66.63012695 91.54077148 C-66.62843506 90.26919189 -66.62674316 88.9976123 -66.625 87.6875 C-66.62478851 87.02775177 -66.62457703 86.36800354 -66.62435913 85.68826294 C-66.59020133 74.99331084 -65.66502562 65.43481449 -62.25 55.3125 C-61.87617188 54.17425781 -61.50234375 53.03601563 -61.1171875 51.86328125 C-53.41426502 30.31040211 -40.78552335 13.87626473 -20.1171875 3.9765625 C-13.38144486 0.97168029 -7.30799735 -0.05123283 0 0 Z " fill="#2D2D2D" transform="translate(277.25,370.6875)"/>
<path d="M0 0 C16.52989816 10.69921231 27.68630048 30.9873729 38.29296875 47.171875 C47.37569632 60.823714 57.41981546 74.48136995 69.203125 85.94140625 C71.35546875 88.171875 71.35546875 88.171875 71.35546875 90.171875 C72.01546875 90.171875 72.67546875 90.171875 73.35546875 90.171875 C73.35546875 90.831875 73.35546875 91.491875 73.35546875 92.171875 C73.92136719 92.41679687 74.48726562 92.66171875 75.0703125 92.9140625 C77.76205932 94.39567357 79.68566938 96.18593622 81.91796875 98.296875 C85.47234132 101.57339838 89.07526007 104.47446745 93.04296875 107.234375 C99.46431715 111.80935835 105.92135262 117.04521695 107.35546875 125.171875 C108.05257163 132.3531412 107.78428309 138.27094772 103.35546875 144.171875 C97.40328515 150.84960694 90.63946508 154.05310436 81.69921875 154.640625 C80.08496514 154.67487577 78.47003614 154.68452383 76.85546875 154.671875 C75.98889648 154.66615479 75.12232422 154.66043457 74.22949219 154.65454102 C65.37943942 154.41427907 57.57824951 152.32978529 49.35546875 149.171875 C48.68032227 148.91486816 48.00517578 148.65786133 47.30957031 148.39306641 C25.3058906 139.81384327 6.0291017 125.75552327 -10.64453125 109.171875 C-11.15467773 108.66575684 -11.66482422 108.15963867 -12.19042969 107.63818359 C-31.97663458 87.74533144 -46.90147714 62.12025567 -46.96142578 33.44482422 C-46.74945224 22.01657148 -42.68122144 10.87615211 -34.984375 2.328125 C-24.49883104 -7.41698191 -12.02110903 -6.82859809 0 0 Z " fill="#C52500" transform="translate(571.64453125,67.828125)"/>
<path d="M0 0 C7.22346201 4.08182933 10.61612242 9.77108635 13.07446289 17.50634766 C14.12312295 21.77198438 14.21897425 25.93600597 14.1875 30.3125 C14.17783203 31.74384277 14.17783203 31.74384277 14.16796875 33.20410156 C13.50321892 59.68038749 0.47305456 87.24978345 -18.16796875 105.8515625 C-20.16124656 107.64508752 -22.22102881 109.321877 -24.3125 111 C-25.26125 111.80824219 -26.21 112.61648437 -27.1875 113.44921875 C-51.36162586 133.66651077 -85.20437678 149.56864986 -117.3125 147 C-126.38388595 145.5475219 -134.78271204 140.80210523 -140.3125 133.375 C-143.4607718 128.06229134 -144.60474549 124.28063605 -144.625 118.0625 C-144.64175781 116.87785156 -144.65851563 115.69320312 -144.67578125 114.47265625 C-143.85889652 106.66394093 -139.11758701 101.86291316 -133.3125 97 C-130.21516682 94.96889711 -126.99331118 93.28942633 -123.6875 91.625 C-99.54594042 78.87142863 -79.69898644 60.54485527 -62.87255859 39.17089844 C-51.44561027 24.7061332 -39.87439199 12.05923787 -24.3125 2 C-23.56226563 1.50371094 -22.81203125 1.00742188 -22.0390625 0.49609375 C-15.0415776 -3.60243312 -7.28668869 -3.23244085 0 0 Z " fill="#C52500" transform="translate(468.3125,71)"/>
<path d="M0 0 C0.66 0 1.32 0 2 0 C49.90059525 93.52742807 49.90059525 93.52742807 37 137 C31.29479603 153.58241529 20.99556062 168.1531212 5 176 C-6.75892224 181.19392724 -17.70671507 181.50719952 -29.859375 177.32421875 C-42.6684519 171.92337663 -50.21925275 164.07784435 -55.71484375 151.4453125 C-63.3673296 130.93013767 -63.06885263 108.40409916 -54.6875 88.25 C-54.25091064 87.18507324 -53.81432129 86.12014648 -53.36450195 85.02294922 C-45.27045987 65.72580149 -35.34924595 47.87361575 -23 31 C-22.41009277 30.18772949 -21.82018555 29.37545898 -21.21240234 28.53857422 C-17.70184994 23.70980423 -14.15530529 18.90944988 -10.58203125 14.12695312 C-9.10446399 12.14044604 -7.64291469 10.14339305 -6.1875 8.140625 C-5.37502301 7.03123315 -4.56252481 5.92185683 -3.75 4.8125 C-3.06421875 3.87019531 -2.3784375 2.92789063 -1.671875 1.95703125 C-1.12015625 1.31121094 -0.5684375 0.66539062 0 0 Z " fill="#52A6FE" transform="translate(216,661)"/>
<path d="M0 0 C4.48511498 4.18331285 7.97924017 8.84876315 11.5625 13.8125 C12.81036724 15.52794831 14.05907854 17.24278293 15.30859375 18.95703125 C15.92976074 19.80990723 16.55092773 20.6627832 17.19091797 21.54150391 C18.82326882 23.75982686 20.48072578 25.95394005 22.16015625 28.13671875 C43.62168386 56.04020571 62.01029122 85.30593086 57.5390625 121.7578125 C54.55326854 134.93043293 47.36729912 147.26393938 36.0625 154.9375 C25.35710005 160.86858602 13.74444604 161.43878379 1.875 158.9375 C-11.69316205 154.99893898 -19.81105356 147.42853676 -26.55859375 135.16796875 C-38.80453263 109.76763855 -34.74025496 82.44786102 -25.98803711 56.7019043 C-19.01798465 37.04235075 -10.04690221 18.25807413 0 0 Z " fill="#51A6FE" transform="translate(767,570)"/>
<path d="M0 0 C0.33 0 0.66 0 1 0 C1 14.52 1 29.04 1 44 C-12.2 44 -25.4 44 -39 44 C-35.68072011 42.34036005 -32.76922075 41.25876538 -29.25 40.1875 C-18.96227924 36.78742704 -10.65043104 31.17043104 -5.25 21.5625 C-2.06244093 14.77710198 -1.12185074 7.35131462 0 0 Z " fill="#030200" transform="translate(1023,980)"/>
<path d="M0 0 C1.47324426 2.94648852 2.59466976 5.61669648 3.6875 8.6875 C8.36706487 20.1921342 16.02922371 25.89870906 27 31 C33.20203441 33.28039179 39.44004646 34.38113646 46 35 C46 35.33 46 35.66 46 36 C30.82 36 15.64 36 0 36 C0 24.12 0 12.24 0 0 Z " fill="#040300" transform="translate(0,988)"/>
<path d="M0 0 C12.54 0 25.08 0 38 0 C34.58771423 1.70614288 31.3325735 2.9765734 27.75 4.25 C18.14529416 7.94577048 11.41612997 13.14222796 6 22 C4.42236212 25.60204047 3.13275736 29.2358684 2 33 C1.34 33 0.68 33 0 33 C0 22.11 0 11.22 0 0 Z " fill="#030000" transform="translate(0,0)"/>
<path d="M0 0 C11.88 0 23.76 0 36 0 C36 11.88 36 23.76 36 36 C34.11343038 33.17014557 33.32033139 31.07634677 32.3125 27.875 C28.26086539 16.48824994 20.20423476 9.22940114 9.48046875 4.0703125 C6.35407405 2.72128549 3.30869396 1.79120942 0 1 C0 0.67 0 0.34 0 0 Z " fill="#020000" transform="translate(988,0)"/>
<path d="M0 0 C0.33 0 0.66 0 1 0 C1.33 13.53 1.66 27.06 2 41 C-2 39 -2 39 -4 37 C-3.01 37 -2.02 37 -1 37 C-1.01160156 36.34 -1.02320313 35.68 -1.03515625 35 C-1.14161745 23.31968563 -0.53626142 11.66511213 0 0 Z " fill="#DD4029" transform="translate(603,421)"/>
<path d="M0 0 C0.33 0 0.66 0 1 0 C1 10.56 1 21.12 1 32 C0.67 32 0.34 32 0 32 C-0.66 23.75 -1.32 15.5 -2 7 C-2.99 7.495 -2.99 7.495 -4 8 C-2.87548273 5.0280615 -1.77706209 2.66559313 0 0 Z " fill="#E11803" transform="translate(343,648)"/>
<path d="M0 0 C0.33 0 0.66 0 1 0 C1.38747513 10.24656458 0.58045976 19.03143819 -2 29 C-2.87840996 25.90279155 -2.99435406 24.09354597 -2 21 C-2.66 21 -3.32 21 -4 21 C-4 20.34 -4 19.68 -4 19 C-3.34 18.67 -2.68 18.34 -2 18 C-1.53272148 16.16471137 -1.53272148 16.16471137 -1.3671875 13.96484375 C-1.24150391 12.75151367 -1.24150391 12.75151367 -1.11328125 11.51367188 C-1.03464844 10.66353516 -0.95601562 9.81339844 -0.875 8.9375 C-0.78863281 8.08349609 -0.70226562 7.22949219 -0.61328125 6.34960938 C-0.40052772 4.23389367 -0.19920047 2.11703476 0 0 Z " fill="#40BBF8" transform="translate(255,768)"/>
<path d="M0 0 C0.66 0.33 1.32 0.66 2 1 C-0.39690506 8.44302097 -3.15262441 15.71837152 -6 23 C-6.66 22.67 -7.32 22.34 -8 22 C-7.74438677 19.6568787 -7.40729228 17.32156597 -7 15 C-6.34 14.67 -5.68 14.34 -5 14 C-5 11.69 -5 9.38 -5 7 C-4.34 7.66 -3.68 8.32 -3 9 C-2.01 6.03 -1.02 3.06 0 0 Z " fill="#E0250F" transform="translate(166,733)"/>
<path d="M0 0 C0.33 0.99 0.66 1.98 1 3 C1.804375 3.12375 2.60875 3.2475 3.4375 3.375 C4.7059375 3.684375 4.7059375 3.684375 6 4 C6.33 4.66 6.66 5.32 7 6 C5.71186658 6.83878455 4.41936744 7.67086783 3.125 8.5 C2.40570313 8.9640625 1.68640625 9.428125 0.9453125 9.90625 C-1 11 -1 11 -3 11 C-2.69217504 9.35328588 -2.37860766 7.70764424 -2.0625 6.0625 C-1.88847656 5.14597656 -1.71445312 4.22945313 -1.53515625 3.28515625 C-1 1 -1 1 0 0 Z " fill="#E02A09" transform="translate(423,448)"/>
<path d="M0 0 C-7.17859349 2.04061541 -13.52605426 3.37369729 -21 3 C-21 2.67 -21 2.34 -21 2 C-19.35 2 -17.7 2 -16 2 C-16 1.34 -16 0.68 -16 0 C-15.39671875 0.01160156 -14.7934375 0.02320313 -14.171875 0.03515625 C-13.37265625 0.04417969 -12.5734375 0.05320312 -11.75 0.0625 C-10.96109375 0.07410156 -10.1721875 0.08570313 -9.359375 0.09765625 C-7.01639655 0.08701023 -7.01639655 0.08701023 -4.890625 -0.56640625 C-3 -1 -3 -1 0 0 Z " fill="#181817" transform="translate(296,544)"/>
<path d="M0 0 C0.33 0.66 0.66 1.32 1 2 C-2.3 2.33 -5.6 2.66 -9 3 C-9 3.66 -9 4.32 -9 5 C-9.66 5 -10.32 5 -11 5 C-11.33 3.68 -11.66 2.36 -12 1 C-7.9472484 0.01751476 -4.16138263 -0.08159574 0 0 Z " fill="#4FA9F0" transform="translate(483,435)"/>
<path d="M0 0 C0.556875 0.144375 1.11375 0.28875 1.6875 0.4375 C2.8321875 0.7159375 2.8321875 0.7159375 4 1 C4.825 1.20625 5.65 1.4125 6.5 1.625 C9.04524959 2.00678744 10.58342581 1.80552473 13 1 C12.34 2.32 11.68 3.64 11 5 C11.66 5.33 12.32 5.66 13 6 C7.71862571 5.48474397 4.42778844 3.74522883 0 1 C0 0.67 0 0.34 0 0 Z " fill="#48B1F2" transform="translate(176,832)"/>
<path d="M0 0 C2 0 2 0 3.4375 1.375 C3.953125 1.91125 4.46875 2.4475 5 3 C5.99 3.66 6.98 4.32 8 5 C7.67 6.32 7.34 7.64 7 9 C3.26115668 6.34345343 1.35021826 4.41889613 0 0 Z " fill="#4EAAED" transform="translate(166,821)"/>
<path d="M0 0 C0.66 0 1.32 0 2 0 C2.433125 0.94875 2.86625 1.8975 3.3125 2.875 C4.79302201 6.20041937 4.79302201 6.20041937 8 8 C8.1875 11.625 8.1875 11.625 8 15 C5.51372483 11.9377256 3.90010596 8.8542946 2.3125 5.25 C1.87550781 4.26515625 1.43851562 3.2803125 0.98828125 2.265625 C0.66214844 1.51796875 0.33601563 0.7703125 0 0 Z " fill="#D51B07" transform="translate(400,335)"/>
<path d="M0 0 C0.99 0.33 1.98 0.66 3 1 C4.39195915 5.17587745 2.82323219 7.13474776 1 11 C-1.78637633 6.8204355 -0.79562512 4.85331323 0 0 Z " fill="#4CADF6" transform="translate(249,794)"/>
<path d="M0 0 C4.43458973 1.3937282 6.87378374 3.60582235 10 7 C6.51329166 5.8905928 3.22515763 4.73662334 0 3 C0 2.01 0 1.02 0 0 Z " fill="#E2240B" transform="translate(400,831)"/>
<path d="M0 0 C4.29 0.66 8.58 1.32 13 2 C12.67 2.99 12.34 3.98 12 5 C10.37276701 4.54965877 8.74826336 4.08944646 7.125 3.625 C5.76761719 3.24214844 5.76761719 3.24214844 4.3828125 2.8515625 C2 2 2 2 0 0 Z " fill="#F1EDEB" transform="translate(767,728)"/>
<path d="M0 0 C4.72065967 1.54269924 9.41664092 3.07794619 14 5 C11.60004452 5.85712696 10.48394488 6.22584094 8.125 5.125 C7.42375 4.75375 6.7225 4.3825 6 4 C4.00889599 3.61709538 2.00899487 3.27395385 0 3 C0 2.01 0 1.02 0 0 Z " fill="#47B4F1" transform="translate(567,442)"/>
<path d="M0 0 C3.96 1.98 7.92 3.96 12 6 C12 6.33 12 6.66 12 7 C6.45378151 7.3697479 6.45378151 7.3697479 4.3125 5.625 C3.879375 5.08875 3.44625 4.5525 3 4 C2.01 3.34 1.02 2.68 0 2 C0 1.34 0 0.68 0 0 Z " fill="#E9250D" transform="translate(753,721)"/>
<path d="M0 0 C0.66 0.66 1.32 1.32 2 2 C1.64059802 5.4742191 -0.03306709 8.16761661 -2 11 C-2.66 11 -3.32 11 -4 11 C-3.71125 10.29875 -3.4225 9.5975 -3.125 8.875 C-1.97866412 5.94547497 -0.97374346 2.99078347 0 0 Z " fill="#BE3727" transform="translate(653,780)"/>
<path d="M0 0 C2.75 -0.25 2.75 -0.25 6 0 C8.375 2 8.375 2 10 4 C9.67 4.66 9.34 5.32 9 6 C6.03 4.35 3.06 2.7 0 1 C0 0.67 0 0.34 0 0 Z " fill="#4EB4F0" transform="translate(754,721)"/>
<path d="M0 0 C1.875 0.1875 1.875 0.1875 4 1 C5.25 3.5625 5.25 3.5625 6 6 C4.68 5.34 3.36 4.68 2 4 C1.34 4.99 0.68 5.98 0 7 C0 4.69 0 2.38 0 0 Z " fill="#D72108" transform="translate(679,654)"/>
<path d="M0 0 C2.475 0.99 2.475 0.99 5 2 C4.67 2.99 4.34 3.98 4 5 C1.9375 5.6875 1.9375 5.6875 0 6 C-0.38218767 4.34385343 -0.71395102 2.67542976 -1 1 C-0.67 0.67 -0.34 0.34 0 0 Z " fill="#DA290D" transform="translate(250,732)"/>
<path d="M0 0 C2.31 0 4.62 0 7 0 C7 0.99 7 1.98 7 3 C4.36 3 1.72 3 -1 3 C-0.67 2.01 -0.34 1.02 0 0 Z " fill="#DC3A00" transform="translate(249,912)"/>
<path d="M0 0 C2.45484649 2.13464912 3.68134222 3.70720291 4 7 C3.34 7.66 2.68 8.32 2 9 C2 8.34 2 7.68 2 7 C1.34 7 0.68 7 0 7 C0.33 6.01 0.66 5.02 1 4 C0.61067144 1.85744207 0.61067144 1.85744207 0 0 Z " fill="#E1250B" transform="translate(363,783)"/>
<path d="M0 0 C4.875 4.75 4.875 4.75 6 7 C2.62496331 5.8141763 0.35277269 4.72426311 -2 2 C-1.34 1.34 -0.68 0.68 0 0 Z " fill="#F7F5F1" transform="translate(745,712)"/>
<path d="M0 0 C0.93065133 2.60582371 1.14917407 3.64198224 0.0625 6.25 C-0.4634375 7.11625 -0.4634375 7.11625 -1 8 C-1.66 7.67 -2.32 7.34 -3 7 C-2.625 4.0625 -2.625 4.0625 -2 1 C-1.34 0.67 -0.68 0.34 0 0 Z " fill="#373737" transform="translate(679,430)"/>
</svg>
