<?xml version="1.0" encoding="UTF-8"?>
<svg version="1.1" xmlns="http://www.w3.org/2000/svg" width="512" height="512">
<path d="M0 0 C0.83545811 -0.00453111 1.67091623 -0.00906223 2.53169125 -0.01373065 C5.34142952 -0.02642788 8.15097528 -0.02475085 10.96073914 -0.02310181 C12.97112783 -0.02908378 14.98151423 -0.03588856 16.99189758 -0.04345703 C22.46096887 -0.06115903 27.92997763 -0.06581421 33.39907479 -0.0670886 C37.96172919 -0.06898545 42.52436894 -0.07634062 47.08701771 -0.08343279 C57.85108472 -0.0997307 68.61511825 -0.10460051 79.37919617 -0.10317993 C90.48832467 -0.10197847 101.59725889 -0.12307799 112.70633823 -0.15466726 C122.23848235 -0.18080802 131.77056295 -0.19154813 141.30274266 -0.19026911 C146.99828773 -0.18975878 152.69366027 -0.19548094 158.38916969 -0.21662521 C163.74654063 -0.23597019 169.10357382 -0.23615758 174.46095657 -0.22159195 C176.42737635 -0.21949803 178.39381706 -0.22423932 180.36020088 -0.23631287 C183.04489435 -0.2517291 185.72841801 -0.24248135 188.41308594 -0.22705078 C189.19120693 -0.23733791 189.96932792 -0.24762503 190.77102834 -0.25822389 C195.96698484 -0.19223274 198.8916463 0.99320908 202.89701843 4.26742554 C206.92676514 8.95064468 208.18083745 13.20886726 207.89701843 19.26742554 C205.09118643 28.98046552 199.77368282 38.36107482 195.52201843 47.51742554 C194.70933906 49.27255083 193.89684141 51.02776027 193.08451843 52.78305054 C187.81927851 64.15358652 182.52448312 75.51024804 177.21659851 86.8609314 C172.51530343 96.91907593 167.85838235 106.99745571 163.20951843 117.07992554 C157.25970269 129.98305772 151.30365576 142.88324475 145.33045959 155.77557373 C144.56811407 157.42102831 143.80591588 159.06655116 143.04389954 160.7121582 C135.69573649 176.57982782 128.29639414 192.42359313 120.89701843 208.26742554 C121.8473165 208.26189478 121.8473165 208.26189478 122.81681252 208.25625229 C138.24081508 208.1678675 153.66472941 208.10169965 169.0889225 208.06017685 C176.54799628 208.03956235 184.0069009 208.01146327 191.46586609 207.96566772 C197.96804557 207.9257656 204.47010251 207.89998463 210.97240102 207.89107156 C214.41453623 207.88586243 217.85632093 207.87364299 221.29834366 207.84450531 C225.14331318 207.81222139 228.98794157 207.8114683 232.83305359 207.81332397 C234.53993347 207.79175232 234.53993347 207.79175232 236.28129578 207.76974487 C242.47313097 207.80212095 246.2184012 208.06465557 250.89701843 212.26742554 C254.36610911 216.48658987 255.80416746 219.78921801 255.89701843 225.26742554 C254.87972854 232.34882013 251.18153681 236.62409021 246.35014343 241.67367554 C243.9267211 244.23602017 241.72264477 246.88768465 239.52201843 249.64242554 C235.84129997 254.19523061 231.97053195 258.50159964 227.98564148 262.78427124 C224.18316829 266.89503511 220.65438544 271.19009077 217.14311218 275.55258179 C214.01534664 279.3330984 210.6842796 282.91223429 207.36186218 286.52133179 C204.96994546 289.1861772 202.7044696 291.91574379 200.45951843 294.70492554 C196.80195579 299.23978715 192.95084816 303.52278736 188.98539734 307.78451538 C185.18303037 311.8952183 181.65431251 316.19018138 178.14311218 320.55258179 C175.01534664 324.3330984 171.6842796 327.91223429 168.36186218 331.52133179 C165.96994546 334.1861772 163.7044696 336.91574379 161.45951843 339.70492554 C157.80195579 344.23978715 153.95084816 348.52278736 149.98539734 352.78451538 C146.18303037 356.8952183 142.65431251 361.19018138 139.14311218 365.55258179 C136.01534664 369.3330984 132.6842796 372.91223429 129.36186218 376.52133179 C126.96994546 379.1861772 124.7044696 381.91574379 122.45951843 384.70492554 C118.80195579 389.23978715 114.95084816 393.52278736 110.98539734 397.78451538 C107.18303037 401.8952183 103.65431251 406.19018138 100.14311218 410.55258179 C97.01534664 414.3330984 93.6842796 417.91223429 90.36186218 421.52133179 C87.96994546 424.1861772 85.7044696 426.91574379 83.45951843 429.70492554 C79.80195579 434.23978715 75.95084816 438.52278736 71.98539734 442.78451538 C68.18623433 446.89175453 64.66072498 451.18343656 61.15092468 455.54086304 C57.98036484 459.37630632 54.62646938 463.02893916 51.25248718 466.68539429 C48.60241864 469.59036163 46.06555307 472.57706988 43.56498718 475.61117554 C39.70454745 479.44449274 36.36376246 480.69797027 30.95951843 480.70492554 C25.79683173 480.55923008 22.75379603 479.93136425 18.89701843 476.26742554 C13.8937619 470.18238381 13.59693571 464.28838964 14.30152893 456.657547 C14.41650726 455.36922974 14.5314856 454.08091248 14.64994812 452.7535553 C14.78407051 451.34336904 14.91835318 449.93319802 15.05278015 448.52304077 C15.18963154 447.02443642 15.32577208 445.525767 15.46125793 444.02703857 C15.83003612 439.97069029 16.20888626 435.91533994 16.58970022 431.86010623 C16.98719979 427.61000413 17.3757903 423.35908717 17.76545715 419.10826111 C18.42092531 411.97176136 19.08243088 404.83584269 19.74809265 397.70028687 C20.60179511 388.54876641 21.44595911 379.39639306 22.28695488 370.24369717 C23.0109842 362.36432491 23.73893726 354.48531592 24.46775675 346.60638547 C24.701471 344.07856026 24.93473761 341.55069401 25.16798019 339.02282524 C25.53507097 335.04748523 25.9045982 331.07237857 26.27599716 327.09743881 C26.41178898 325.64065921 26.54684394 324.1838107 26.68109894 322.72688866 C26.86484747 320.73450769 27.05162358 318.74240664 27.23854065 316.75032043 C27.34215849 315.63666831 27.44577633 314.52301619 27.5525341 313.37561703 C27.89183847 310.31416298 28.36075996 307.30002544 28.89701843 304.26742554 C28.3004843 304.2720345 27.70395018 304.27664347 27.08933926 304.2813921 C12.55798728 304.3919312 -1.97333981 304.47461111 -16.50501347 304.5264864 C-23.53253362 304.55224141 -30.55977271 304.58733948 -37.58711243 304.6446228 C-44.36928404 304.69988117 -51.15116349 304.72885048 -57.93354607 304.74181175 C-60.52072685 304.75104817 -63.10789172 304.76908471 -65.6949482 304.79607582 C-69.31967277 304.83238804 -72.94319217 304.83736966 -76.56806946 304.83505249 C-77.63693893 304.85302887 -78.70580841 304.87100525 -79.80706787 304.88952637 C-86.58724939 304.84264641 -90.04328126 303.86014211 -95.10298157 299.26742554 C-98.76278765 294.19092033 -98.72652679 289.29224974 -98.10298157 283.26742554 C-96.80397028 277.51745858 -95.08676992 271.91035123 -93.36470032 266.27523804 C-92.85505299 264.57087243 -92.3466852 262.86612377 -91.8394928 261.161026 C-90.74634806 257.49510837 -89.64488273 253.83183661 -88.53678894 250.17041016 C-86.75930348 244.29629445 -85.00086734 238.41658422 -83.24580383 232.53573608 C-81.40291251 226.36308254 -79.55917381 220.19069445 -77.70941162 214.02009583 C-71.79820925 194.29692899 -65.99405592 174.54301979 -60.21009827 154.78222656 C-58.5407779 149.07959892 -56.86840767 143.37786879 -55.19526672 137.67636108 C-54.63690673 135.77356472 -54.07854695 133.87076829 -53.52018738 131.9679718 C-53.24369228 131.02573195 -52.96719719 130.08349209 -52.68232346 129.11269951 C-48.66916552 115.43554896 -44.66013849 101.75719235 -40.65513134 88.07765293 C-38.32743764 80.12778072 -35.99721756 72.17865153 -33.66527271 64.23002529 C-32.02400424 58.63507146 -30.38576013 53.03924467 -28.74990082 47.44270706 C-27.74288889 44.00036496 -26.73288428 40.5589063 -25.72204208 37.11768723 C-25.25819466 35.53642266 -24.79555301 33.95480376 -24.33426285 32.37279129 C-14.87490055 -0.05870264 -14.87490055 -0.05870264 0 0 Z " fill="#FFD54F" transform="translate(177.1029815673828,15.732574462890625)"/>
<path d="M0 0 C7.15319672 -0.10156178 14.30620695 -0.17153366 21.45996094 -0.21972656 C23.89264881 -0.23982071 26.32528851 -0.26710088 28.7578125 -0.30175781 C32.25793355 -0.3503706 35.75741502 -0.37299139 39.2578125 -0.390625 C40.34240753 -0.41127014 41.42700256 -0.43191528 42.54446411 -0.45318604 C48.70022943 -0.45500829 52.34064338 -0.1582186 57 4 C60.46909068 8.21916433 61.90714902 11.52179247 62 17 C60.98271011 24.08139459 57.28451837 28.35666467 52.453125 33.40625 C50.02970267 35.96859463 47.82562634 38.62025912 45.625 41.375 C41.94428153 45.92780507 38.07351352 50.23417411 34.08862305 54.5168457 C30.28614986 58.62760957 26.75736701 62.92266523 23.24609375 67.28515625 C20.11832821 71.06567286 16.78726117 74.64480875 13.46484375 78.25390625 C11.07292703 80.91875166 8.80745116 83.64831825 6.5625 86.4375 C2.90493736 90.97236161 -0.94617027 95.25536183 -4.91162109 99.51708984 C-8.71398807 103.62779276 -12.24270592 107.92275584 -15.75390625 112.28515625 C-18.88167179 116.06567286 -22.21273883 119.64480875 -25.53515625 123.25390625 C-27.92707297 125.91875166 -30.19254884 128.64831825 -32.4375 131.4375 C-36.09506264 135.97236161 -39.94617027 140.25536183 -43.91162109 144.51708984 C-47.71398807 148.62779276 -51.24270592 152.92275584 -54.75390625 157.28515625 C-57.88167179 161.06567286 -61.21273883 164.64480875 -64.53515625 168.25390625 C-66.92707297 170.91875166 -69.19254884 173.64831825 -71.4375 176.4375 C-75.09506264 180.97236161 -78.94617027 185.25536183 -82.91162109 189.51708984 C-86.71398807 193.62779276 -90.24270592 197.92275584 -93.75390625 202.28515625 C-96.88167179 206.06567286 -100.21273883 209.64480875 -103.53515625 213.25390625 C-105.92707297 215.91875166 -108.19254884 218.64831825 -110.4375 221.4375 C-114.09506264 225.97236161 -117.94617027 230.25536183 -121.91162109 234.51708984 C-125.7107841 238.62432899 -129.23629346 242.91601102 -132.74609375 247.2734375 C-135.9166536 251.10888078 -139.27054905 254.76151363 -142.64453125 258.41796875 C-145.2945998 261.32293609 -147.83146536 264.30964434 -150.33203125 267.34375 C-154.19247098 271.1770672 -157.53325598 272.43054473 -162.9375 272.4375 C-168.1001867 272.29180455 -171.14322241 271.66393871 -175 268 C-179.73595406 262.24005587 -180.18476658 256.92160611 -180.0625 249.6875 C-179.31788599 242.78803857 -175.61174564 238.91607403 -171 234 C-169.51968196 232.35520218 -168.0405204 230.7093628 -166.5625 229.0625 C-165.8096875 228.2375 -165.056875 227.4125 -164.28125 226.5625 C-161.95971179 223.95474475 -159.75469645 221.27958856 -157.5625 218.5625 C-153.70058325 213.78715598 -149.62325776 209.26332315 -145.46484375 204.74609375 C-143.07292703 202.08124834 -140.80745116 199.35168175 -138.5625 196.5625 C-134.90493736 192.02763839 -131.05382973 187.74463817 -127.08837891 183.48291016 C-123.28601193 179.37220724 -119.75729408 175.07724416 -116.24609375 170.71484375 C-113.11832821 166.93432714 -109.78726117 163.35519125 -106.46484375 159.74609375 C-104.07292703 157.08124834 -101.80745116 154.35168175 -99.5625 151.5625 C-95.90493736 147.02763839 -92.05382973 142.74463817 -88.08837891 138.48291016 C-84.28601193 134.37220724 -80.75729408 130.07724416 -77.24609375 125.71484375 C-74.9116941 122.89326505 -72.48009402 120.19409288 -70 117.5 C-66.70668301 113.92207537 -63.55348679 110.28460334 -60.5 106.5 C-56.66164586 101.74260332 -52.60377641 97.24216082 -48.46484375 92.74609375 C-46.07292703 90.08124834 -43.80745116 87.35168175 -41.5625 84.5625 C-37.90493736 80.02763839 -34.05382973 75.74463817 -30.08837891 71.48291016 C-26.28601193 67.37220724 -22.75729408 63.07724416 -19.24609375 58.71484375 C-16.9116941 55.89326505 -14.48009402 53.19409288 -12 50.5 C-7.87454424 46.01691959 -3.99657232 41.38828429 -0.17578125 36.64453125 C2.5626067 33.3161854 5.44448341 30.13576036 8.37109375 26.97265625 C11.99050215 22.58943984 12.43526653 19.04792674 12.3203125 13.47265625 C11.72987532 8.91476922 9.36086065 6.19075307 6 3.25 C4.04853449 2.03033406 2.06353704 1.01457238 0 0 Z " fill="#FFC165" transform="translate(371,224)"/>
<path d="M0 0 C7.01077881 -0.10157378 14.02136725 -0.17153861 21.03271484 -0.21972656 C23.41690157 -0.23981893 25.80103915 -0.26709781 28.18505859 -0.30175781 C31.61568338 -0.35037859 35.04565555 -0.37299312 38.4765625 -0.390625 C39.53928375 -0.41127014 40.602005 -0.43191528 41.69692993 -0.45318604 C47.80946768 -0.4550317 51.36053153 -0.1021685 56 4 C60.02974671 8.68321915 61.28381901 12.94144172 61 19 C58.19416799 28.71303998 52.87666439 38.09364928 48.625 47.25 C47.81232063 49.00512529 46.99982298 50.76033473 46.1875 52.515625 C40.92226008 63.88616098 35.62746469 75.2428225 30.31958008 86.59350586 C25.618285 96.6516504 20.96136392 106.73003018 16.3125 116.8125 C2.280927 147.24222233 -11.81282525 177.64249704 -26 208 C-42.17 208 -58.34 208 -75 208 C-66.96167821 189.62669304 -66.96167821 189.62669304 -63.828125 182.91015625 C-63.46798309 182.13427155 -63.10784119 181.35838684 -62.73678589 180.55899048 C-61.5761376 178.05940687 -60.41307882 175.56095344 -59.25 173.0625 C-58.42022486 171.27653465 -57.59063917 169.49048126 -56.76123047 167.7043457 C-55.03977947 163.99755046 -53.31752284 160.29113112 -51.59472656 156.58496094 C-47.83290316 148.49035772 -44.08238381 140.39051872 -40.33099365 132.29107666 C-34.60097825 119.92075087 -28.86631083 107.55258729 -23.125 95.1875 C-22.61074463 94.07955078 -22.09648926 92.97160156 -21.56665039 91.83007812 C-18.98533102 86.26993348 -16.39994393 80.71172729 -13.80859375 75.15625 C-7.88572098 62.44782904 -2.02739963 49.71260378 3.75 36.9375 C4.2130806 35.91515762 4.2130806 35.91515762 4.68551636 34.87216187 C5.55768996 32.9454939 6.42769354 31.01786311 7.296875 29.08984375 C7.79541992 27.98503662 8.29396484 26.88022949 8.80761719 25.74194336 C11.3613487 19.8695112 12.01538538 14.77894946 9.8125 8.75 C7.18396534 4.76187845 3.92703648 2.61802432 0 0 Z " fill="#FFC165" transform="translate(324,16)"/>
</svg>
