<?xml version="1.0" encoding="UTF-8"?>
<svg version="1.1" xmlns="http://www.w3.org/2000/svg" width="512" height="512">
<path d="M0 0 C0.68461807 0.12802002 1.36923615 0.25604004 2.07460022 0.38793945 C4.05905315 10.34247162 5.77553262 20.34155794 7.41801453 30.35739136 C7.64621302 31.74550612 7.87631615 33.13330921 8.10838318 34.52078247 C8.44003688 36.50811479 8.76328739 38.4968437 9.08631897 40.4855957 C9.27669739 41.64583252 9.46707581 42.80606934 9.66322327 44.00146484 C10.08786539 47.49713896 10.14540973 50.87013433 10.07460022 54.38793945 C14.10848928 50.9407979 18.03664259 47.48117687 21.69960022 43.63793945 C26.50435645 38.7565698 31.58755543 36.65617367 38.32460022 36.13793945 C45.02135459 36.58438974 49.34435504 38.2034618 53.94960022 43.20043945 C57.95232684 48.20612718 59.64262703 52.75243027 59.35975647 59.27075195 C57.92197955 69.94575317 49.52921301 76.41809194 42.07460022 83.38793945 C47.61529673 85.10267174 53.11752814 86.16403231 58.84022522 87.0793457 C59.75543945 87.22951645 60.67065369 87.37968719 61.61360168 87.53440857 C64.51664645 88.01032288 67.42053336 88.48080567 70.32460022 88.95043945 C73.24284559 89.42423366 76.16087626 89.89924086 79.07844543 90.37718201 C80.88877886 90.67357314 82.69951853 90.96749586 84.51069641 91.25868225 C85.32874756 91.3922966 86.14679871 91.52591095 86.98963928 91.66357422 C87.7079895 91.77967545 88.42633972 91.89577667 89.16645813 92.01539612 C91.07460022 92.38793945 91.07460022 92.38793945 94.07460022 93.38793945 C94.48846436 95.43562317 94.48846436 95.43562317 94.07460022 98.38793945 C92.16115178 101.08169182 89.80730323 103.31675278 87.45277405 105.625 C86.74879486 106.3345282 86.04481567 107.0440564 85.31950378 107.77508545 C82.98567036 110.12074361 80.63423663 112.44783925 78.28163147 114.7746582 C76.65605616 116.39852296 75.03136773 118.02327596 73.40753174 119.64888 C69.99953782 123.05521898 66.58317063 126.45285638 63.16029358 129.84423828 C58.77283988 134.19204632 54.40322243 138.55725969 50.03931141 142.92868328 C46.68483522 146.28622934 43.32281151 149.636131 39.95827293 152.98359108 C38.34440435 154.59042707 36.73248576 156.19922403 35.12255287 157.81000328 C32.87018432 160.0605741 30.60828101 162.30109427 28.34339905 164.5390625 C27.67877151 165.20662064 27.01414398 165.87417877 26.32937622 166.56196594 C22.52873771 170.29315348 19.36537496 173.32607887 13.76283264 173.43139648 C12.60811462 173.29000244 12.60811462 173.29000244 11.43006897 173.14575195 C10.16839905 173.00073242 10.16839905 173.00073242 8.88124084 172.8527832 C8.01692444 172.74063477 7.15260803 172.62848633 6.26210022 172.51293945 C5.37844788 172.40852539 4.49479553 172.30411133 3.58436584 172.1965332 C1.4128128 171.93829446 -0.75663148 171.66845766 -2.92539978 171.38793945 C-2.6090155 171.93393799 -2.29263123 172.47993652 -1.96665955 173.04248047 C15.98807977 204.29197521 28.96177137 240.06293166 29.31288147 276.50512695 C29.32267532 277.35170868 29.33246918 278.19829041 29.34255981 279.07052612 C29.72239085 320.45863641 22.91272447 358.63022216 3.07460022 395.38793945 C2.46100647 396.54293945 1.84741272 397.69793945 1.21522522 398.88793945 C-13.87500673 426.32472482 -35.61178198 450.98676343 -60.92539978 469.38793945 C-61.76973572 470.01571289 -62.61407166 470.64348633 -63.48399353 471.2902832 C-97.45414832 495.88936081 -140.67326327 512.20849256 -182.82383728 512.6262207 C-183.64817764 512.63601456 -184.47251801 512.64580841 -185.32183838 512.65589905 C-225.52378672 513.03470683 -263.22249841 506.60012185 -299.01914978 487.40893555 C-300.29337146 486.72645667 -301.5720949 486.05231908 -302.85508728 485.38647461 C-319.21401987 476.89083417 -334.10932404 465.93959788 -347.25498962 453.02319336 C-349.09285467 451.2240089 -350.95641723 449.45349672 -352.81993103 447.6809082 C-371.87836522 429.33821954 -386.99175463 407.47700977 -397.92539978 383.38793945 C-398.26023376 382.6510791 -398.59506775 381.91421875 -398.94004822 381.1550293 C-407.01672438 363.15503787 -412.76545672 344.87658273 -415.92539978 325.38793945 C-416.10345154 324.32679932 -416.2815033 323.26565918 -416.46495056 322.17236328 C-418.11846881 311.29889228 -418.323115 300.55566423 -418.30039978 289.57543945 C-418.30018829 288.63039551 -418.29997681 287.68535156 -418.29975891 286.71166992 C-418.26536512 271.2745626 -417.29930882 256.50260837 -413.92539978 241.38793945 C-413.65252136 240.12433594 -413.65252136 240.12433594 -413.37413025 238.83520508 C-404.87034701 200.5035852 -385.84831471 164.23471962 -358.49473572 136.00854492 C-357.37729716 134.85460013 -356.26667568 133.69403723 -355.16075134 132.52905273 C-336.21359463 112.60458027 -313.97871822 96.78331054 -288.92539978 85.38793945 C-288.19385681 85.05310547 -287.46231384 84.71827148 -286.70860291 84.37329102 C-271.68502805 77.57630409 -256.2896198 72.62227451 -240.17539978 69.13793945 C-239.48059509 68.98679687 -238.78579041 68.8356543 -238.06993103 68.67993164 C-223.78029877 65.77612105 -209.64993955 64.98099549 -195.11289978 65.01293945 C-194.21931763 65.01315094 -193.32573547 65.01336243 -192.40507507 65.01358032 C-176.94953154 65.04990297 -162.08430385 66.16213315 -146.92539978 69.38793945 C-146.06446716 69.5698584 -145.20353455 69.75177734 -144.31651306 69.93920898 C-120.15614195 75.26010158 -96.62476336 84.85235562 -75.92539978 98.38793945 C-76.06977478 97.54231445 -76.21414978 96.69668945 -76.36289978 95.82543945 C-76.9313556 92.35154279 -77.44388564 88.87490437 -77.92539978 85.38793945 C-78.03883728 84.60805664 -78.15227478 83.82817383 -78.26914978 83.0246582 C-78.75682523 76.940907 -75.58846503 73.79254076 -71.92539978 69.38793945 C-69.68808955 66.89639705 -67.35587066 64.51456801 -64.98960876 62.14575195 C-64.3237677 61.47158737 -63.65792664 60.79742279 -62.97190857 60.10282898 C-60.79378318 57.90082246 -58.60827134 55.70635149 -56.42149353 53.51293945 C-54.89497747 51.97744845 -53.36853515 50.44188414 -51.84216309 48.90625 C-48.65428307 45.70194288 -45.46209201 42.50199886 -42.2674408 39.30444336 C-38.17098277 35.20257296 -34.09097421 31.0847391 -30.01463223 26.96289062 C-26.87382832 23.79240283 -23.72188874 20.6331698 -20.56671333 17.47698975 C-19.05670888 15.96277465 -17.55083292 14.44443097 -16.04917717 12.92193604 C-13.95498225 10.80097718 -11.84566856 8.69629287 -9.73179626 6.5949707 C-9.11399796 5.9623381 -8.49619965 5.32970551 -7.85968018 4.67790222 C-3.5850897 0.47542143 -3.5850897 0.47542143 0 0 Z " fill="#FC646F" transform="translate(417.92539978027344,-0.387939453125)"/>
<path d="M0 0 C0.89358215 0.00021149 1.78716431 0.00042297 2.70782471 0.00064087 C18.16336824 0.03696351 33.02859593 1.1491937 48.1875 4.375 C49.04843262 4.55691895 49.90936523 4.73883789 50.79638672 4.92626953 C73.21296692 9.86312315 104.42703289 18.61453289 121.1875 35.375 C121.70192591 37.53888407 122.11508514 39.72725376 122.4765625 41.921875 C122.58471283 42.57069641 122.69286316 43.21951782 122.80429077 43.88800049 C123.03160146 45.26258972 123.2549389 46.637841 123.47460938 48.01367188 C123.80923505 50.1045988 124.15745275 52.19290853 124.5078125 54.28125 C126.65717915 67.38306708 126.65717915 67.38306708 126.1875 71.375 C124.3515625 73.89208984 124.3515625 73.89208984 121.8125 76.3359375 C120.45898438 77.66044922 120.45898438 77.66044922 119.078125 79.01171875 C118.12421875 79.91535156 117.1703125 80.81898438 116.1875 81.75 C115.22259474 82.68479245 114.25903637 83.62097731 113.296875 84.55859375 C110.93998058 86.84478134 108.57025021 89.11582327 106.1875 91.375 C103.53066157 90.09764577 101.07999958 88.70783392 98.640625 87.0546875 C65.03862003 64.59289385 30.40230881 55.82776178 -9.8125 56.375 C-11.05128906 56.38015625 -12.29007813 56.3853125 -13.56640625 56.390625 C-55.9591367 57.87622757 -96.50096907 81.43209579 -124.9375 111.6875 C-142.64857397 131.69026245 -155.19843443 155.53174869 -161.8125 181.375 C-162.08707031 182.31472656 -162.36164063 183.25445312 -162.64453125 184.22265625 C-166.17584149 196.31261002 -167.19865634 208.25146271 -167.125 220.8125 C-167.12218018 221.51086975 -167.11936035 222.2092395 -167.11645508 222.92877197 C-166.84075112 268.65271317 -150.10267681 309.18506245 -118.8125 342.375 C-118.1525 343.09945313 -117.4925 343.82390625 -116.8125 344.5703125 C-91.55704258 371.26073909 -50.75413416 389.98318907 -13.9987793 391.53613281 C-12.62816049 391.55568898 -11.25744952 391.56943527 -9.88671875 391.578125 C-8.77579361 391.58871445 -8.77579361 391.58871445 -7.64242554 391.59951782 C14.46030621 391.914673 14.46030621 391.914673 36.1875 388.375 C37.41581543 388.06900879 37.41581543 388.06900879 38.66894531 387.75683594 C70.14173323 379.79300342 96.88644795 365.01314872 120.1875 342.375 C120.73929932 341.84583984 121.29109863 341.31667969 121.85961914 340.77148438 C148.31400558 314.98364794 166.77792247 274.972695 168.33276367 237.91259766 C168.34025635 236.71683105 168.34774902 235.52106445 168.35546875 234.2890625 C168.35979416 233.63476761 168.36411957 232.98047272 168.36857605 232.30635071 C168.3786171 230.20415855 168.37877067 228.10221115 168.375 226 C168.37373108 225.27958527 168.37246216 224.55917053 168.37115479 223.81692505 C168.24531519 186.43892442 157.30529891 151.10688306 134.1875 121.375 C136.54509649 115.9892491 140.80999697 112.26438256 144.875 108.125 C146.06125977 106.86429688 146.06125977 106.86429688 147.27148438 105.578125 C148.05201172 104.7840625 148.83253906 103.99 149.63671875 103.171875 C150.34143311 102.44323242 151.04614746 101.71458984 151.7722168 100.96386719 C158.08863484 96.80868184 168.68446857 100.23494503 175.75 101.3125 C177.05130859 101.47556641 178.35261719 101.63863281 179.69335938 101.80664062 C188.99580989 103.26089353 188.99580989 103.26089353 192.29125977 106.34179688 C193.83164833 108.6228542 195.03339404 110.87924256 196.1875 113.375 C196.85394531 114.48101562 197.52039063 115.58703125 198.20703125 116.7265625 C213.75089101 145.10511256 224.11247176 178.97336873 224.42578125 211.4921875 C224.4355751 212.33876923 224.44536896 213.18535095 224.45545959 214.05758667 C224.83529063 255.44569696 218.02562425 293.61728271 198.1875 330.375 C197.57390625 331.53 196.9603125 332.685 196.328125 333.875 C181.23789305 361.31178537 159.5011178 385.97382398 134.1875 404.375 C133.34316406 405.00277344 132.49882812 405.63054687 131.62890625 406.27734375 C97.65875146 430.87642136 54.43963651 447.1955531 12.2890625 447.61328125 C11.46472214 447.6230751 10.64038177 447.63286896 9.7910614 447.64295959 C-30.41088694 448.02176738 -68.10959863 441.58718239 -103.90625 422.39599609 C-105.18047168 421.71351722 -106.45919512 421.03937963 -107.7421875 420.37353516 C-124.10112009 411.87789471 -138.99642426 400.92665843 -152.14208984 388.01025391 C-153.97995489 386.21106944 -155.84351745 384.44055726 -157.70703125 382.66796875 C-176.76546544 364.32528008 -191.87885485 342.46407032 -202.8125 318.375 C-203.14733398 317.63813965 -203.48216797 316.9012793 -203.82714844 316.14208984 C-211.9038246 298.14209841 -217.65255694 279.86364328 -220.8125 260.375 C-220.99055176 259.31385986 -221.16860352 258.25271973 -221.35205078 257.15942383 C-223.00556903 246.28595283 -223.21021522 235.54272478 -223.1875 224.5625 C-223.18728851 223.61745605 -223.18707703 222.67241211 -223.18685913 221.69873047 C-223.15246534 206.26162315 -222.18640904 191.48966891 -218.8125 176.375 C-218.53962158 175.11139648 -218.53962158 175.11139648 -218.26123047 173.82226562 C-209.75744723 135.49064575 -190.73541493 99.22178017 -163.38183594 70.99560547 C-162.26439738 69.84166067 -161.1537759 68.68109778 -160.04785156 67.51611328 C-141.10069485 47.59164082 -118.86581844 31.77037109 -93.8125 20.375 C-93.08095703 20.04016602 -92.34941406 19.70533203 -91.59570312 19.36035156 C-76.57212827 12.56336464 -61.17672002 7.60933505 -45.0625 4.125 C-44.36769531 3.97385742 -43.67289063 3.82271484 -42.95703125 3.66699219 C-28.66739899 0.76318159 -14.53703977 -0.03194397 0 0 Z " fill="#FC646F" transform="translate(222.8125,64.625)"/>
<path d="M0 0 C12.28541795 -0.24554734 24.20723762 -0.17258919 36.32421875 2.05761719 C37.37222656 2.2290625 38.42023438 2.40050781 39.5 2.57714844 C57.17521599 5.85817656 74.71586243 12.1490742 90.32421875 21.05761719 C90.91267578 21.39293457 91.50113281 21.72825195 92.10742188 22.07373047 C99.27047213 26.21251394 105.94991654 30.78687635 112.32421875 36.05761719 C108.01794619 41.20591463 103.50109944 46.01513791 98.73828125 50.74121094 C98.0364975 51.44157974 97.33471375 52.14194855 96.61166382 52.86354065 C94.39320739 55.07644745 92.1712806 57.28583135 89.94921875 59.49511719 C88.43466409 61.00465033 86.9203389 62.51441375 85.40625 64.02441406 C81.71488776 67.70481421 78.02067806 71.38233676 74.32421875 75.05761719 C70.86238736 73.71793209 67.69224807 72.18108723 64.46508789 70.34130859 C40.50375447 56.79446847 9.22451556 50.99390319 -17.671875 58.15527344 C-18.66316406 58.45304687 -19.65445313 58.75082031 -20.67578125 59.05761719 C-21.71863281 59.32445312 -22.76148438 59.59128906 -23.8359375 59.86621094 C-42.6900172 65.02072847 -58.74917798 75.63197087 -72.67578125 89.05761719 C-73.33449219 89.65316406 -73.99320312 90.24871094 -74.671875 90.86230469 C-92.62616198 107.53118082 -103.53350785 134.66112604 -104.81762695 158.71459961 C-105.86272718 190.03321067 -98.66596753 219.07485415 -77.67578125 243.05761719 C-77.07507813 243.80140625 -76.474375 244.54519531 -75.85546875 245.31152344 C-60.40133985 263.90174126 -36.74568985 274.69571948 -13.67578125 280.05761719 C-12.54547485 280.32239868 -12.54547485 280.32239868 -11.39233398 280.5925293 C-6.26684664 281.47003926 -1.06602516 281.2831752 4.12207031 281.29785156 C6.15864015 281.30742641 8.19414094 281.33842337 10.23046875 281.37011719 C36.58998283 281.58327768 61.09429103 271.71048488 81.32421875 255.05761719 C82.48630859 254.14109375 82.48630859 254.14109375 83.671875 253.20605469 C104.09315186 236.27836487 117.05526117 209.02653048 120.32421875 183.05761719 C121.17022589 166.94730741 121.65901056 150.45088644 116.32421875 135.05761719 C116.10459473 134.42017578 115.8849707 133.78273437 115.65869141 133.12597656 C112.77164378 124.92864106 109.03950979 117.30630676 104.7421875 109.76464844 C102.57156419 105.6207312 102.57156419 105.6207312 102.32421875 103.05761719 C103.64659119 101.13397217 103.64659119 101.13397217 105.69897461 99.11523438 C106.45983871 98.35474792 107.22070282 97.59426147 108.00462341 96.81072998 C108.84098831 96.00017151 109.67735321 95.18961304 110.5390625 94.35449219 C111.80635948 93.09780731 111.80635948 93.09780731 113.09925842 91.81573486 C115.8086065 89.1344439 118.5347968 86.47102202 121.26171875 83.80761719 C123.0981384 81.99626535 124.93344016 80.18377938 126.76757812 78.37011719 C131.27355431 73.91936098 135.79349144 69.48316733 140.32421875 65.05761719 C165.973597 90.13218235 176.14308496 131.16560975 176.60766602 165.74291992 C176.72606286 178.72935139 176.50617944 191.39838815 173.32421875 204.05761719 C173.12554199 204.87166016 172.92686523 205.68570313 172.72216797 206.52441406 C164.8358677 238.11687386 149.84663723 264.6526588 127.32421875 288.05761719 C126.70804687 288.73695313 126.091875 289.41628906 125.45703125 290.11621094 C105.954687 310.96205001 78.48116382 324.48834101 51.32421875 332.05761719 C50.2775 332.35410156 49.23078125 332.65058594 48.15234375 332.95605469 C34.77870032 336.5294356 21.58569805 337.46691382 7.82421875 337.43261719 C7.03696411 337.4324057 6.24970947 337.43219421 5.43859863 337.43197632 C-7.60118224 337.39713973 -20.02152435 336.41775636 -32.67578125 333.05761719 C-33.40587402 332.86506348 -34.1359668 332.67250977 -34.88818359 332.47412109 C-56.6988804 326.52574924 -76.78255384 316.83887562 -94.67578125 303.05761719 C-96.07183594 301.99800781 -96.07183594 301.99800781 -97.49609375 300.91699219 C-129.5130686 275.71412569 -151.69048344 238.23620983 -158.67578125 198.05761719 C-158.87816406 196.99929688 -159.08054688 195.94097656 -159.2890625 194.85058594 C-162.36797337 175.5183769 -162.74253316 152.99664549 -157.67578125 134.05761719 C-157.32870691 132.57010768 -156.98516207 131.08177169 -156.64453125 129.59277344 C-146.56045696 86.96484078 -119.88390186 49.28604015 -82.80078125 25.87011719 C-57.57533671 10.35961097 -29.78527551 0.64136177 0 0 Z " fill="#F4F4F4" transform="translate(215.67578125,119.9423828125)"/>
<path d="M0 0 C0.68461807 0.12802002 1.36923615 0.25604004 2.07460022 0.38793945 C4.05905315 10.34247162 5.77553262 20.34155794 7.41801453 30.35739136 C7.64621302 31.74550612 7.87631615 33.13330921 8.10838318 34.52078247 C8.44003688 36.50811479 8.76328739 38.4968437 9.08631897 40.4855957 C9.27669739 41.64583252 9.46707581 42.80606934 9.66322327 44.00146484 C10.08786539 47.49713896 10.14540973 50.87013433 10.07460022 54.38793945 C14.10848928 50.9407979 18.03664259 47.48117687 21.69960022 43.63793945 C26.50435645 38.7565698 31.58755543 36.65617367 38.32460022 36.13793945 C45.02135459 36.58438974 49.34435504 38.2034618 53.94960022 43.20043945 C57.95232684 48.20612718 59.64262703 52.75243027 59.35975647 59.27075195 C57.92197955 69.94575317 49.52921301 76.41809194 42.07460022 83.38793945 C47.61529673 85.10267174 53.11752814 86.16403231 58.84022522 87.0793457 C59.75543945 87.22951645 60.67065369 87.37968719 61.61360168 87.53440857 C64.51664645 88.01032288 67.42053336 88.48080567 70.32460022 88.95043945 C73.24284559 89.42423366 76.16087626 89.89924086 79.07844543 90.37718201 C80.88877886 90.67357314 82.69951853 90.96749586 84.51069641 91.25868225 C85.32874756 91.3922966 86.14679871 91.52591095 86.98963928 91.66357422 C87.7079895 91.77967545 88.42633972 91.89577667 89.16645813 92.01539612 C91.07460022 92.38793945 91.07460022 92.38793945 94.07460022 93.38793945 C94.48846436 95.43562317 94.48846436 95.43562317 94.07460022 98.38793945 C92.16115178 101.08169182 89.80730323 103.31675278 87.45277405 105.625 C86.74879486 106.3345282 86.04481567 107.0440564 85.31950378 107.77508545 C82.98567036 110.12074361 80.63423663 112.44783925 78.28163147 114.7746582 C76.65605616 116.39852296 75.03136773 118.02327596 73.40753174 119.64888 C69.99953782 123.05521898 66.58317063 126.45285638 63.16029358 129.84423828 C58.77283988 134.19204632 54.40322243 138.55725969 50.03931141 142.92868328 C46.68483522 146.28622934 43.32281151 149.636131 39.95827293 152.98359108 C38.34440435 154.59042707 36.73248576 156.19922403 35.12255287 157.81000328 C32.87018432 160.0605741 30.60828101 162.30109427 28.34339905 164.5390625 C27.67877151 165.20662064 27.01414398 165.87417877 26.32937622 166.56196594 C20.50328802 172.2815911 20.50328802 172.2815911 16.07460022 173.38793945 C12.70375061 173.25561523 12.70375061 173.25561523 8.85975647 172.70825195 C8.16415115 172.61126007 7.46854584 172.51426819 6.75186157 172.41433716 C-2.1229546 171.13903675 -10.93712987 169.48329875 -19.74986267 167.84155273 C-21.95458986 167.43253635 -24.16058806 167.03101173 -26.36680603 166.63012695 C-27.65272644 166.39148926 -28.93864685 166.15285156 -30.26353455 165.90698242 C-37.49278415 164.6803019 -37.49278415 164.6803019 -43.93544006 167.55619812 C-44.96319079 168.56378301 -45.97205923 169.59085968 -46.96495056 170.6328125 C-47.80299728 171.46932594 -47.80299728 171.46932594 -48.65797424 172.32273865 C-50.49597344 174.16560362 -52.30793983 176.0320008 -54.12071228 177.8996582 C-55.39756514 179.18957929 -56.6759817 180.47795423 -57.95588684 181.7648468 C-61.32004373 185.15570319 -64.66267319 188.56702978 -68.00120544 191.98309326 C-71.39169452 195.44497912 -74.80186131 198.88735407 -78.21055603 202.33129883 C-83.72056862 207.90277738 -89.2184952 213.48584566 -94.70030212 219.08508301 C-97.75661056 222.20516903 -100.83469845 225.30195683 -103.92539978 228.38793945 C-106.37957188 230.85443323 -108.83082545 233.32382551 -111.28257751 235.79272461 C-118.63567652 243.1948593 -125.99643143 250.58933308 -133.36154079 257.97951698 C-137.81300576 262.44667303 -142.26161011 266.9166044 -146.70396423 271.39282227 C-151.00846215 275.72991346 -155.32024607 280.05963634 -159.63717842 284.38434982 C-161.27883397 286.03154241 -162.91784961 287.68137045 -164.55415154 289.33388138 C-166.84210216 291.64360967 -169.13927105 293.94377762 -171.43882751 296.24194336 C-172.44664528 297.26593987 -172.44664528 297.26593987 -173.474823 298.31062317 C-178.86138399 303.66203986 -183.46217854 306.81202448 -191.30039978 306.88793945 C-197.39458869 306.73506356 -201.46765997 305.60412686 -205.92539978 301.38793945 C-209.73773578 296.50032919 -211.08989646 292.77618247 -211.23789978 286.63793945 C-211.27528259 285.6324707 -211.31266541 284.62700195 -211.35118103 283.59106445 C-210.44496454 276.77365601 -206.02281727 272.05067003 -201.23660278 267.42585754 C-200.67303284 266.86889669 -200.10946291 266.31193583 -199.52881509 265.73809737 C-197.65265138 263.88728226 -195.76598202 262.04756249 -193.8792572 260.20751953 C-192.52656664 258.87697413 -191.17463698 257.54565479 -189.82341003 256.21362305 C-186.91935823 253.35285084 -184.01118221 250.49636052 -181.10007286 247.64277077 C-176.49626197 243.1274399 -171.90939575 238.59515886 -167.32611084 234.05900574 C-165.75492494 232.50436753 -164.18372637 230.94974212 -162.61251545 229.3951292 C-161.82590019 228.61680119 -161.03928493 227.83847317 -160.22883284 227.03655946 C-149.5609385 216.48367392 -138.87940164 205.94498798 -128.16294861 195.44140625 C-120.92650665 188.3484424 -113.71344877 181.23258505 -106.5261448 174.0898239 C-102.72428287 170.31347211 -98.91132619 166.55005083 -95.06925011 162.81458473 C-91.45671691 159.30208429 -87.87560534 155.76039478 -84.31611633 152.19417572 C-83.00637399 150.89278748 -81.68547522 149.60251527 -80.35279274 148.32462883 C-73.10387968 141.75631106 -73.10387968 141.75631106 -69.36188698 133.07173729 C-69.58765711 130.00874721 -70.11990634 127.34532482 -70.92539978 124.38793945 C-71.23220748 122.42578831 -71.52339979 120.46107336 -71.79258728 118.4934082 C-72.12305036 116.51982749 -72.45908857 114.54717304 -72.80039978 112.57543945 C-73.06385193 111.0150293 -73.06385193 111.0150293 -73.33262634 109.4230957 C-74.33621197 103.55093587 -75.44761174 97.71700935 -76.67539978 91.88793945 C-79.16358385 79.41921816 -79.16358385 79.41921816 -76.80180454 75.54464722 C-73.13832449 70.76915785 -69.24148338 66.40221609 -64.98960876 62.14575195 C-64.3237677 61.47158737 -63.65792664 60.79742279 -62.97190857 60.10282898 C-60.79378318 57.90082246 -58.60827134 55.70635149 -56.42149353 53.51293945 C-54.89497747 51.97744845 -53.36853515 50.44188414 -51.84216309 48.90625 C-48.65428307 45.70194288 -45.46209201 42.50199886 -42.2674408 39.30444336 C-38.17098277 35.20257296 -34.09097421 31.0847391 -30.01463223 26.96289062 C-26.87382832 23.79240283 -23.72188874 20.6331698 -20.56671333 17.47698975 C-19.05670888 15.96277465 -17.55083292 14.44443097 -16.04917717 12.92193604 C-13.95498225 10.80097718 -11.84566856 8.69629287 -9.73179626 6.5949707 C-9.11399796 5.9623381 -8.49619965 5.32970551 -7.85968018 4.67790222 C-3.5850897 0.47542143 -3.5850897 0.47542143 0 0 Z " fill="#918291" transform="translate(417.92539978027344,-0.387939453125)"/>
<path d="M0 0 C1.30130859 0.16306641 2.60261719 0.32613281 3.94335938 0.49414062 C13.24580989 1.94839353 13.24580989 1.94839353 16.54125977 5.02929688 C18.08164833 7.3103542 19.28339404 9.56674256 20.4375 12.0625 C21.10394531 13.16851562 21.77039063 14.27453125 22.45703125 15.4140625 C38.00089101 43.79261256 48.36247176 77.66086873 48.67578125 110.1796875 C48.6855751 111.02626923 48.69536896 111.87285095 48.70545959 112.74508667 C49.08529063 154.13319696 42.27562425 192.30478271 22.4375 229.0625 C21.51710938 230.795 21.51710938 230.795 20.578125 232.5625 C5.48789305 259.99928537 -16.2488822 284.66132398 -41.5625 303.0625 C-42.40683594 303.69027344 -43.25117188 304.31804687 -44.12109375 304.96484375 C-78.09124854 329.56392136 -121.31036349 345.8830531 -163.4609375 346.30078125 C-164.28527786 346.3105751 -165.10961823 346.32036896 -165.9589386 346.33045959 C-206.16088694 346.70926738 -243.85959863 340.27468239 -279.65625 321.08349609 C-280.93047168 320.40101722 -282.20919512 319.72687963 -283.4921875 319.06103516 C-300.59492196 310.17911809 -315.87953851 298.59815688 -329.5625 285.0625 C-330.1915625 284.44181641 -330.820625 283.82113281 -331.46875 283.18164062 C-335.5263113 279.16766641 -339.55382576 275.12526429 -343.5625 271.0625 C-339.77915284 271.0625 -339.34728648 271.92552743 -336.6875 274.5 C-322.98499963 287.05325841 -306.00099017 296.22041567 -289.33300781 304.21191406 C-287.79702872 304.9498279 -286.26885519 305.70394715 -284.7421875 306.4609375 C-272.20385934 312.48086875 -258.87429665 316.15346367 -245.375 319.3125 C-244.33142334 319.55863037 -243.28784668 319.80476074 -242.21264648 320.05834961 C-228.3423863 323.1919489 -214.92505735 324.39511174 -200.75708008 324.32324219 C-198.26293386 324.31255542 -195.76951474 324.32318861 -193.27539062 324.3359375 C-178.99874835 324.34884872 -164.82234308 323.24990217 -150.8125 320.375 C-149.99579834 320.20766357 -149.17909668 320.04032715 -148.33764648 319.86791992 C-120.10528656 313.78047619 -92.07800498 301.8919044 -68.5625 285.0625 C-67.60214844 284.37671875 -66.64179688 283.6909375 -65.65234375 282.984375 C-45.30852506 268.0816567 -28.40154446 250.9298555 -13.5625 230.5625 C-12.6972168 229.37684448 -12.6972168 229.37684448 -11.81445312 228.16723633 C-11.27755859 227.42111084 -10.74066406 226.67498535 -10.1875 225.90625 C-9.70539063 225.23787109 -9.22328125 224.56949219 -8.7265625 223.88085938 C-7.39213127 221.95999351 -7.39213127 221.95999351 -6.5625 219.0625 C-7.36945313 218.81757813 -8.17640625 218.57265625 -9.0078125 218.3203125 C-13.30099149 216.80118763 -17.33516742 214.90522902 -21.4375 212.9375 C-22.22125 212.56496094 -23.005 212.19242188 -23.8125 211.80859375 C-25.73063499 210.89631003 -27.64677329 209.97983016 -29.5625 209.0625 C-28.20571222 205.48113124 -26.59764434 202.07491043 -24.8972168 198.64526367 C-13.40547017 175.23086422 -7.09904499 150.36098087 -7.3125 124.25 C-7.31814972 123.19560226 -7.31814972 123.19560226 -7.32391357 122.11990356 C-7.55733484 84.89871747 -18.54865405 49.6606888 -41.5625 20.0625 C-39.20490351 14.6767491 -34.94000303 10.95188256 -30.875 6.8125 C-29.68874023 5.55179688 -29.68874023 5.55179688 -28.47851562 4.265625 C-27.30772461 3.07453125 -27.30772461 3.07453125 -26.11328125 1.859375 C-25.05620972 0.76641113 -25.05620972 0.76641113 -23.9777832 -0.34863281 C-17.66136516 -4.50381816 -7.06553143 -1.07755497 0 0 Z " fill="#FC4755" transform="translate(398.5625,165.9375)"/>
<path d="M0 0 C25.64937825 25.07456516 35.81886621 66.10799256 36.28344727 100.68530273 C36.40184411 113.6717342 36.18196069 126.34077096 33 139 C32.80132324 139.81404297 32.60264648 140.62808594 32.39794922 141.46679688 C24.51164895 173.05925667 9.52241848 199.59504161 -13 223 C-13.61617187 223.67933594 -14.23234375 224.35867188 -14.8671875 225.05859375 C-34.36953175 245.90443282 -61.84305493 259.43072382 -89 267 C-90.04671875 267.29648437 -91.0934375 267.59296875 -92.171875 267.8984375 C-105.54551843 271.47181842 -118.7385207 272.40929663 -132.5 272.375 C-133.28725464 272.37478851 -134.07450928 272.37457703 -134.88562012 272.37435913 C-147.92540099 272.33952254 -160.3457431 271.36013917 -173 268 C-173.73009277 267.80744629 -174.46018555 267.61489258 -175.21240234 267.41650391 C-197.01300777 261.47088424 -217.12322746 251.79160721 -235 238 C-235.95390625 237.27039063 -236.9078125 236.54078125 -237.890625 235.7890625 C-245.13639368 230.05455414 -251.57904545 223.62265993 -258 217 C-253.9119672 217 -251.71079492 219.09553269 -248.5 221.375 C-220.03894752 240.89395673 -188.00366743 250.46675023 -153.5625 250.375 C-152.72273621 250.3737915 -151.88297241 250.37258301 -151.01776123 250.37133789 C-122.8986315 250.26169341 -96.68466993 243.73223755 -72 230 C-70.9378125 229.42507813 -69.875625 228.85015625 -68.78125 228.2578125 C-47.68820768 216.46093058 -28.38876949 199.14783427 -15 179 C-15 178.34 -15 177.68 -15 177 C-15.59014893 176.73783691 -16.18029785 176.47567383 -16.78833008 176.20556641 C-19.46432911 175.01488771 -22.1384255 173.81999423 -24.8125 172.625 C-25.74126953 172.2125 -26.67003906 171.8 -27.62695312 171.375 C-28.51962891 170.97539062 -29.41230469 170.57578125 -30.33203125 170.1640625 C-31.15421143 169.79748535 -31.9763916 169.4309082 -32.82348633 169.05322266 C-35 168 -35 168 -38 166 C-37.64808594 165.46375 -37.29617188 164.9275 -36.93359375 164.375 C-21.31835974 139.58632564 -15.28332488 108.41523735 -21.12744141 79.51611328 C-21.9285221 76.27012489 -22.9039376 73.16263207 -24 70 C-24.21962402 69.36255859 -24.43924805 68.72511719 -24.66552734 68.06835938 C-27.55257497 59.87102387 -31.28470896 52.24868958 -35.58203125 44.70703125 C-37.75265456 40.56311401 -37.75265456 40.56311401 -38 38 C-36.67762756 36.07635498 -36.67762756 36.07635498 -34.62524414 34.05761719 C-33.48394798 32.91688751 -33.48394798 32.91688751 -32.31959534 31.75311279 C-31.48323044 30.94255432 -30.64686554 30.13199585 -29.78515625 29.296875 C-28.9402916 28.45908508 -28.09542694 27.62129517 -27.22496033 26.75811768 C-24.51561225 24.07682671 -21.78942195 21.41340483 -19.0625 18.75 C-17.22608035 16.93864816 -15.39077859 15.12616219 -13.55664062 13.3125 C-9.05066444 8.86174379 -4.53072731 4.42555014 0 0 Z " fill="#E6E5E5" transform="translate(356,185)"/>
<path d="M0 0 C0.99 0.33 1.98 0.66 3 1 C6.22003591 7.7978536 7.31293364 13.97572299 4.8125 21.1875 C1.41095038 28.34205086 -5.30122287 33.67180809 -11 39 C-5.45930349 40.71473228 0.04292792 41.77609286 5.765625 42.69140625 C6.68083923 42.841577 7.59605347 42.99174774 8.53900146 43.14646912 C11.44204623 43.62238343 14.34593314 44.09286622 17.25 44.5625 C20.16824537 45.0362942 23.08627604 45.51130141 26.00384521 45.98924255 C27.81417864 46.28563369 29.62491831 46.57955641 31.43609619 46.8707428 C32.25414734 47.00435715 33.07219849 47.1379715 33.91503906 47.27563477 C34.63338928 47.39173599 35.3517395 47.50783722 36.09185791 47.62745667 C38 48 38 48 41 49 C41.41386414 51.04768372 41.41386414 51.04768372 41 54 C39.08655156 56.69375237 36.73270301 58.92881333 34.37817383 61.23706055 C33.32220505 62.30135284 33.32220505 62.30135284 32.24490356 63.387146 C29.91107014 65.73280416 27.55963641 68.0598998 25.20703125 70.38671875 C23.58145594 72.0105835 21.95676751 73.63533651 20.33293152 75.26094055 C16.9249376 78.66727952 13.50857041 82.06491692 10.08569336 85.45629883 C5.69823966 89.80410686 1.32862221 94.16932024 -3.03528881 98.54074383 C-6.389765 101.89828989 -9.75178871 105.24819155 -13.11632729 108.59565163 C-14.73019587 110.20248761 -16.34211446 111.81128458 -17.95204735 113.42206383 C-20.2044159 115.67263464 -22.46631921 117.91315482 -24.73120117 120.15112305 C-25.3958287 120.81868118 -26.06045624 121.48623932 -26.745224 122.17402649 C-32.5713122 127.89365165 -32.5713122 127.89365165 -37 129 C-40.37084961 128.86767578 -40.37084961 128.86767578 -44.21484375 128.3203125 C-44.91044907 128.22332062 -45.60605438 128.12632874 -46.32273865 128.02639771 C-55.19755482 126.7510973 -64.01173009 125.0953593 -72.82446289 123.45361328 C-75.02919008 123.04459689 -77.23518828 122.64307228 -79.44140625 122.2421875 C-80.72732666 122.0035498 -82.01324707 121.76491211 -83.33813477 121.51904297 C-90.56738437 120.29236245 -90.56738437 120.29236245 -97.01004028 123.16825867 C-98.03779101 124.17584356 -99.04665945 125.20292023 -100.03955078 126.24487305 C-100.8775975 127.08138649 -100.8775975 127.08138649 -101.73257446 127.93479919 C-103.57057366 129.77766417 -105.38254005 131.64406135 -107.1953125 133.51171875 C-108.47216536 134.80163984 -109.75058192 136.09001478 -111.03048706 137.37690735 C-114.39464395 140.76776374 -117.7372734 144.17909033 -121.07580566 147.59515381 C-124.46629474 151.05703967 -127.87646153 154.49941461 -131.28515625 157.94335938 C-136.79516884 163.51483793 -142.29309542 169.09790621 -147.77490234 174.69714355 C-150.83121078 177.81722958 -153.90929867 180.91401738 -157 184 C-159.4541721 186.46649377 -161.90542567 188.93588606 -164.35717773 191.40478516 C-171.71027674 198.80691985 -179.07103165 206.20139363 -186.43614101 213.59157753 C-190.88760598 218.05873358 -195.33621033 222.52866495 -199.77856445 227.00488281 C-204.08306237 231.34197401 -208.39484629 235.67169689 -212.71177864 239.99641037 C-214.35343419 241.64360295 -215.99244983 243.293431 -217.62875175 244.94594193 C-219.91670238 247.25567022 -222.21387127 249.55583817 -224.51342773 251.85400391 C-225.5212455 252.87800041 -225.5212455 252.87800041 -226.54942322 253.92268372 C-231.99727186 259.33498819 -236.57332585 262.42806348 -244.5 262.4375 C-249.98809214 262.33087421 -252.95876579 261.69484271 -257 258 C-251.9211665 251.86102344 -246.38868209 246.25079722 -240.74954224 240.62928772 C-239.70882572 239.5881346 -238.66832921 238.54676152 -237.62803257 237.50518888 C-234.78203342 234.65696246 -231.93294043 231.81184881 -229.08331585 228.96725023 C-226.00591269 225.89417683 -222.93141167 222.81820233 -219.85655212 219.74258423 C-214.53314927 214.41865774 -209.20792264 209.09656116 -203.88144302 203.77571297 C-196.18030691 196.08271358 -188.48194279 188.38694518 -180.78424631 180.69050425 C-168.29431817 168.2027632 -155.80215979 155.71725566 -143.30859375 143.2331543 C-131.17428231 131.1080258 -119.04102452 118.98184454 -106.90917969 106.85424805 C-106.16102014 106.10635122 -105.41286059 105.3584544 -104.64202954 104.58789403 C-100.88863425 100.8358038 -97.13525964 97.08369289 -93.3818953 93.3315717 C-62.25780202 62.21784039 -31.13008699 31.10773439 0 0 Z " fill="#7A6E79" transform="translate(471,44)"/>
<path d="M0 0 C4.61143667 1.96477857 6.16132551 5.19203698 8.375 9.5 C8.7656665 10.25031494 9.15633301 11.00062988 9.55883789 11.77368164 C17.32566152 27.18115595 21.37227817 42.92330411 21.31567383 60.17504883 C21.31253251 62.16688509 21.33678786 64.15870307 21.36132812 66.15039062 C21.3743026 92.42370591 11.66852613 116.85764793 -5 137 C-5.68449219 137.84820312 -6.36898437 138.69640625 -7.07421875 139.5703125 C-24.58881 160.22522788 -51.31353917 173.64071779 -78 177 C-94.11030978 177.84600714 -110.60673075 178.33479181 -126 173 C-126.63744141 172.78037598 -127.27488281 172.56075195 -127.93164062 172.33447266 C-147.68522169 165.37739139 -167.08460747 153.79001029 -180 137 C-179.505 136.01 -179.505 136.01 -179 135 C-178.37996094 135.42410156 -177.75992188 135.84820312 -177.12109375 136.28515625 C-165.12766945 144.22839942 -152.97075586 149.52788046 -139 153 C-137.87464844 153.35835937 -136.74929687 153.71671875 -135.58984375 154.0859375 C-129.56996851 155.57705966 -123.33959858 155.33438418 -117.17626953 155.31567383 C-115.03234327 155.31254717 -112.88984681 155.33590715 -110.74609375 155.36132812 C-97.19862511 155.42617743 -84.30200143 153.6015778 -71.75 148.25 C-70.90429443 147.89856934 -70.05858887 147.54713867 -69.18725586 147.18505859 C-52.92593461 140.27707126 -33.89627343 128.83094619 -25 113 C-26.21042969 112.63261719 -26.21042969 112.63261719 -27.4453125 112.2578125 C-31.73849149 110.73868763 -35.77266742 108.84272902 -39.875 106.875 C-40.65875 106.50246094 -41.4425 106.12992187 -42.25 105.74609375 C-44.16813499 104.83381003 -46.08427329 103.91733016 -48 103 C-47.23977345 99.6330303 -46.07696367 97.34105557 -44.1875 94.4375 C-40.95199723 89.1953633 -38.89498015 83.84042599 -37 78 C-36.67 77.01 -36.34 76.02 -36 75 C-35.74122187 71.31711665 -35.76853613 67.62850767 -35.75 63.9375 C-35.729375 62.93783203 -35.70875 61.93816406 -35.6875 60.90820312 C-35.65601572 54.85141387 -36.3402601 49.78475022 -38.35253906 44.06079102 C-39 42 -39 42 -39 39 C-37.51940918 37.15864563 -37.51940918 37.15864563 -35.41992188 35.0793457 C-34.63911255 34.29876297 -33.85830322 33.51818024 -33.05383301 32.71394348 C-32.20075562 31.87634995 -31.34767822 31.03875641 -30.46875 30.17578125 C-29.60310425 29.31438034 -28.7374585 28.45297943 -27.84558105 27.56547546 C-25.07065947 24.80738835 -22.28550377 22.05989543 -19.5 19.3125 C-17.62041202 17.4479526 -15.74149674 15.58272681 -13.86328125 13.71679688 C-9.2499735 9.13662174 -4.62821377 4.56510957 0 0 Z " fill="#FB4856" transform="translate(316,225)"/>
<path d="M0 0 C-4.19532717 5.01999115 -8.58454367 9.68361059 -13.26171875 14.25390625 C-14.64156199 15.61624689 -16.02111064 16.97888597 -17.40039062 18.34179688 C-19.54990418 20.46029718 -21.70166087 22.57635832 -23.85864258 24.68725586 C-25.95814985 26.74434884 -28.04802038 28.81084685 -30.13671875 30.87890625 C-30.78049973 31.50406631 -31.4242807 32.12922638 -32.08757019 32.77333069 C-36.33582196 36.99716742 -39.5822282 40.8544241 -40.3984375 47 C-40.35327755 52.78047344 -40.21138944 56.99023247 -37 62 C-36.67 62.99 -36.34 63.98 -36 65 C-34.16715557 66.12516085 -34.16715557 66.12516085 -32 67 C-31.13761719 67.51240234 -31.13761719 67.51240234 -30.2578125 68.03515625 C-27.31455105 69.29291676 -24.88263155 69.33745439 -21.6875 69.375 C-20.59824219 69.40335937 -19.50898438 69.43171875 -18.38671875 69.4609375 C-10.27007725 68.35625042 -5.1401775 62.54946879 0.33984375 56.953125 C1.49027916 55.79632233 1.49027916 55.79632233 2.66395569 54.6161499 C5.09564549 52.16775848 7.51665533 49.70911033 9.9375 47.25 C11.59110094 45.5813413 13.24539077 43.91336499 14.90039062 42.24609375 C18.94160107 38.17192707 22.9741099 34.08930315 27 30 C28.485 30.495 28.485 30.495 30 31 C33.30058919 37.66330712 33.5134933 45.08815481 33.4375 52.375 C33.43065186 53.38578613 33.42380371 54.39657227 33.41674805 55.43798828 C33.25655592 62.88602223 32.31051096 69.24830001 29 76 C28.649375 76.77859375 28.29875 77.5571875 27.9375 78.359375 C24.7326833 84.81351974 20.01914543 89.89356508 15 95 C14.15115234 95.86818359 14.15115234 95.86818359 13.28515625 96.75390625 C0.88167719 108.36890009 -14.6023254 110.51016375 -30.78515625 110.2734375 C-37.08757293 110.04614092 -42.32600266 108.77102195 -48 106 C-48.99 105.525625 -49.98 105.05125 -51 104.5625 C-64.70536516 97.29026543 -74.08186235 85.97723954 -79.875 71.6875 C-84.46197691 56.65240902 -83.15731198 40.02936014 -76.5625 25.92578125 C-68.87511895 11.4934625 -56.30668434 1.22452009 -40.875 -4 C-27.22747863 -7.1525571 -12.64245074 -5.79445659 0 0 Z " fill="#F4F4F4" transform="translate(248,236)"/>
<path d="M0 0 C1.15371094 0.20625 2.30742187 0.4125 3.49609375 0.625 C5.00114576 0.79823855 6.50636554 0.97002355 8.01171875 1.140625 C9.5907774 1.37931991 11.1689121 1.62420226 12.74609375 1.875 C13.54789062 1.98457031 14.3496875 2.09414062 15.17578125 2.20703125 C20.91439579 3.11868406 20.91439579 3.11868406 23.3046875 5.19921875 C25.08404662 8.8221106 26.7557516 12.46120511 28.30859375 16.1875 C28.65752686 17.021604 29.00645996 17.85570801 29.3659668 18.71508789 C40.40207854 45.64542139 45.88672449 73.51676407 45.87109375 102.5625 C45.87281586 103.37522369 45.87453796 104.18794739 45.87631226 105.02529907 C45.87275186 119.86860291 44.80864821 134.67323514 41.87109375 149.25 C41.71213623 150.04776855 41.55317871 150.84553711 41.3894043 151.66748047 C38.97336125 162.9639681 35.67759406 175.26199937 30.49609375 185.625 C26.79699902 185.01958825 23.78254973 183.97242345 20.4140625 182.33984375 C19.48271484 181.89189453 18.55136719 181.44394531 17.59179688 180.98242188 C16.63208984 180.51384766 15.67238281 180.04527344 14.68359375 179.5625 C13.70455078 179.09005859 12.72550781 178.61761719 11.71679688 178.13085938 C9.30739208 176.96729316 6.90065368 175.79853704 4.49609375 174.625 C4.71543579 173.54400024 4.71543579 173.54400024 4.93920898 172.44116211 C5.60606265 169.14868787 6.26985335 165.8556032 6.93359375 162.5625 C7.16369141 161.42876953 7.39378906 160.29503906 7.63085938 159.12695312 C7.9644043 157.46889648 7.9644043 157.46889648 8.3046875 155.77734375 C8.50892334 154.76663818 8.71315918 153.75593262 8.92358398 152.71459961 C9.99189477 146.94936594 10.62729952 141.40611759 10.6640625 135.5390625 C10.66838791 134.88476761 10.67271332 134.23047272 10.6771698 133.55635071 C10.68721085 131.45415855 10.68736442 129.35221115 10.68359375 127.25 C10.68232483 126.52958527 10.68105591 125.80917053 10.67974854 125.06692505 C10.55390894 87.68892442 -0.38610734 52.35688306 -23.50390625 22.625 C-21.14630976 17.2392491 -16.88140928 13.51438256 -12.81640625 9.375 C-12.02556641 8.53453125 -11.23472656 7.6940625 -10.41992188 6.828125 C-4.49657921 0.80206541 -4.49657921 0.80206541 0 0 Z " fill="#FC646F" transform="translate(380.50390625,163.375)"/>
<path d="M0 0 C1.02692711 0.19203003 1.02692711 0.19203003 2.07460022 0.38793945 C4.20026167 11.43637969 6.17551038 22.50405751 7.97425842 33.6105957 C8.25313855 35.31785004 8.53745793 37.02422346 8.82679749 38.72973633 C9.25116102 41.23374185 9.65883271 43.73996121 10.06288147 46.24731445 C10.19503555 47.00768005 10.32718964 47.76804565 10.46334839 48.55145264 C11.09787907 52.61848138 11.21908947 54.88416428 9.07460022 58.38793945 C7.64717102 60.06705093 7.64717102 60.06705093 5.96229553 61.75421143 C5.32296082 62.39918579 4.6836261 63.04416016 4.0249176 63.7086792 C3.32459412 64.40495422 2.62427063 65.10122925 1.90272522 65.81860352 C1.16437439 66.56045898 0.42602356 67.30231445 -0.33470154 68.06665039 C-2.77659264 70.51734441 -5.22572727 72.96065037 -7.67539978 75.40356445 C-9.37198199 77.10149343 -11.06826717 78.79971925 -12.76426697 80.49822998 C-16.31863877 84.05555086 -19.87660484 87.60922723 -23.43711853 91.16040039 C-28.01074686 95.72261707 -32.57531625 100.29377541 -37.13725281 104.8676796 C-40.63708897 108.37472532 -44.14165311 111.87701502 -47.64768982 115.37786102 C-49.33334887 117.06218197 -51.01751268 118.74800067 -52.70018005 120.43531036 C-55.04650319 122.78668572 -57.39909503 125.13159925 -59.75352478 127.47485352 C-60.80401001 128.53141144 -60.80401001 128.53141144 -61.87571716 129.60931396 C-62.83471924 130.55985657 -62.83471924 130.55985657 -63.81309509 131.52960205 C-64.369104 132.08485691 -64.92511292 132.64011177 -65.49797058 133.21219254 C-66.92539978 134.38793945 -66.92539978 134.38793945 -68.92539978 134.38793945 C-69.17447083 132.96082642 -69.17447083 132.96082642 -69.42857361 131.50488281 C-70.05856414 127.89811305 -70.69099562 124.29177451 -71.32408142 120.68554688 C-71.59523179 119.13910992 -71.86576246 117.59256416 -72.13560486 116.04589844 C-73.74442203 106.82740598 -75.43585517 97.63715805 -77.32627869 88.47192383 C-79.10394239 79.32137454 -79.10394239 79.32137454 -76.80180454 75.54464722 C-73.13832449 70.76915785 -69.24148338 66.40221609 -64.98960876 62.14575195 C-64.3237677 61.47158737 -63.65792664 60.79742279 -62.97190857 60.10282898 C-60.79378318 57.90082246 -58.60827134 55.70635149 -56.42149353 53.51293945 C-54.89497747 51.97744845 -53.36853515 50.44188414 -51.84216309 48.90625 C-48.65428307 45.70194288 -45.46209201 42.50199886 -42.2674408 39.30444336 C-38.17098277 35.20257296 -34.09097421 31.0847391 -30.01463223 26.96289062 C-26.87382832 23.79240283 -23.72188874 20.6331698 -20.56671333 17.47698975 C-19.05670888 15.96277465 -17.55083292 14.44443097 -16.04917717 12.92193604 C-13.95498225 10.80097718 -11.84566856 8.69629287 -9.73179626 6.5949707 C-9.11399796 5.9623381 -8.49619965 5.32970551 -7.85968018 4.67790222 C-3.5850897 0.47542143 -3.5850897 0.47542143 0 0 Z " fill="#50748D" transform="translate(417.92539978027344,-0.387939453125)"/>
<path d="M0 0 C1.68606441 0.28587722 3.37707799 0.54577378 5.07348633 0.76196289 C6.49355587 0.99551337 7.91308999 1.23234597 9.33203125 1.47265625 C10.10133469 1.60063095 10.87063812 1.72860565 11.66325378 1.86045837 C13.25013064 2.12520932 14.83674909 2.39151406 16.4230957 2.65942383 C18.85491807 3.06965564 21.28773125 3.4736003 23.72070312 3.87695312 C25.27870669 4.13765742 26.83665178 4.39871143 28.39453125 4.66015625 C29.11631058 4.77996353 29.8380899 4.89977081 30.58174133 5.02320862 C33.48651034 5.51651749 36.19913219 6.0663774 39 7 C39.41386414 9.04768372 39.41386414 9.04768372 39 12 C37.08655156 14.69375237 34.73270301 16.92881333 32.37817383 19.23706055 C31.67419464 19.94658875 30.97021545 20.65611694 30.24490356 21.387146 C27.91107014 23.73280416 25.55963641 26.0598998 23.20703125 28.38671875 C21.58145594 30.0105835 19.95676751 31.63533651 18.33293152 33.26094055 C14.9249376 36.66727952 11.50857041 40.06491692 8.08569336 43.45629883 C3.69823966 47.80410686 -0.67137779 52.16932024 -5.03528881 56.54074383 C-8.389765 59.89828989 -11.75178871 63.24819155 -15.11632729 66.59565163 C-16.73019587 68.20248761 -18.34211446 69.81128458 -19.95204735 71.42206383 C-22.2044159 73.67263464 -24.46631921 75.91315482 -26.73120117 78.15112305 C-27.3958287 78.81868118 -28.06045624 79.48623932 -28.745224 80.17402649 C-34.57186474 85.89419409 -34.57186474 85.89419409 -39 87 C-42.36645508 86.86328125 -42.36645508 86.86328125 -46.20703125 86.3125 C-46.90222366 86.21509521 -47.59741608 86.11769043 -48.31367493 86.01733398 C-50.54573097 85.69691056 -52.77285562 85.35288177 -55 85 C-55.7289447 84.88462891 -56.4578894 84.76925781 -57.20892334 84.65039062 C-61.63286316 83.9391218 -66.04738498 83.18083135 -70.45874023 82.39550781 C-72.72327705 81.99365113 -74.98944631 81.60205814 -77.25585938 81.2109375 C-78.71625302 80.95373286 -80.17654372 80.69594283 -81.63671875 80.4375 C-82.93311279 80.20933594 -84.22950684 79.98117188 -85.56518555 79.74609375 C-88.5801282 79.09120252 -91.19080527 78.25346235 -94 77 C-89.80584013 72.02760607 -85.47277652 67.25126008 -80.96337891 62.56420898 C-79.94723007 61.50447121 -79.94723007 61.50447121 -78.91055298 60.42332458 C-72.70363613 53.96390274 -66.44692689 47.55314974 -60.1733036 41.15855312 C-55.96945722 36.87183052 -51.78465808 32.56955533 -47.63916016 28.22631836 C-43.61294911 24.00907967 -39.54389134 19.8379138 -35.44150925 15.69478035 C-33.89237924 14.11503788 -32.35895562 12.51972528 -30.84239578 10.9086895 C-20.57272527 0.02786586 -14.72223184 -4.46612483 0 0 Z " fill="#50748C" transform="translate(473,86)"/>
<path d="M0 0 C8.3862293 8.11665255 11.50372988 22.85856358 14.375 33.8125 C14.61323486 34.71709961 14.85146973 35.62169922 15.09692383 36.55371094 C18.42804649 49.92628707 19.37945971 63.03847655 19.3125 76.75 C19.31034485 77.54536163 19.3081897 78.34072327 19.30596924 79.16018677 C19.25582721 90.68980937 18.91241578 101.78795376 16 113 C15.66210449 114.35593262 15.66210449 114.35593262 15.31738281 115.73925781 C14.57207976 118.6883197 13.79553212 121.62660764 13 124.5625 C12.7510498 125.48732178 12.50209961 126.41214355 12.24560547 127.36499023 C11.87653076 128.64031616 11.87653076 128.64031616 11.5 129.94140625 C11.2834375 130.70138916 11.066875 131.46137207 10.84375 132.24438477 C10.42609375 133.11341431 10.42609375 133.11341431 10 134 C6.11343742 135.29552086 5.10612008 134.40976025 1.45703125 132.69140625 C0.38388672 132.19189453 -0.68925781 131.69238281 -1.79492188 131.17773438 C-2.91447266 130.64470703 -4.03402344 130.11167969 -5.1875 129.5625 C-6.31865234 129.03333984 -7.44980469 128.50417969 -8.61523438 127.95898438 C-11.41437453 126.64799468 -14.20892204 125.32804604 -17 124 C-16.93143799 123.30994873 -16.86287598 122.61989746 -16.79223633 121.90893555 C-15.03924293 102.88338585 -13.65894485 82.2967907 -20 64 C-20.21962402 63.36255859 -20.43924805 62.72511719 -20.66552734 62.06835938 C-23.56886321 53.82477587 -27.33197981 46.21035255 -31.77734375 38.70703125 C-33.15734685 35.65162502 -33.13893666 35.03296568 -32 32 C-30.66490173 30.30413818 -30.66490173 30.30413818 -28.94897461 28.60839844 C-28.30838608 27.9680365 -27.66779755 27.32767456 -27.00779724 26.66790771 C-26.31299759 25.98859192 -25.61819794 25.30927612 -24.90234375 24.609375 C-24.19348526 23.90476135 -23.48462677 23.20014771 -22.75428772 22.47418213 C-20.4889672 20.22565215 -18.21343792 17.98777762 -15.9375 15.75 C-14.39970665 14.22725292 -12.86258869 12.70382346 -11.32617188 11.1796875 C-7.55858198 7.4451719 -3.78255735 3.7193515 0 0 Z " fill="#F4F4F4" transform="translate(352,191)"/>
<path d="M0 0 C2.12566145 11.04844023 4.10091016 22.11611806 5.8996582 33.22265625 C6.17853833 34.92991059 6.46285771 36.63628401 6.75219727 38.34179688 C7.1765608 40.84580239 7.58423249 43.35202176 7.98828125 45.859375 C8.12043533 46.6197406 8.25258942 47.3801062 8.38874817 48.16351318 C9.0235152 52.23205684 9.1605071 54.50198794 7 58 C5.39279175 59.84771729 5.39279175 59.84771729 3.46826172 61.75878906 C2.74766571 62.47923401 2.0270697 63.19967896 1.28463745 63.94195557 C0.50750397 64.70876648 -0.26962952 65.47557739 -1.0703125 66.265625 C-1.86654022 67.05902283 -2.66276794 67.85242065 -3.48312378 68.66986084 C-6.02575948 71.20130703 -8.57526348 73.72570803 -11.125 76.25 C-12.85071753 77.96568617 -14.57598355 79.68182662 -16.30078125 81.3984375 C-20.52863032 85.60424248 -24.76213869 89.80428507 -29 94 C-30.95655797 91.06516304 -31.39448921 89.74363091 -31.94555664 86.38012695 C-32.1023439 85.44517899 -32.25913116 84.51023102 -32.42066956 83.54695129 C-32.58220016 82.53759018 -32.74373077 81.52822906 -32.91015625 80.48828125 C-33.08252304 79.44608932 -33.25488983 78.4038974 -33.43247986 77.3301239 C-33.98264504 73.99199555 -34.52249162 70.65228478 -35.0625 67.3125 C-35.42970445 65.08127576 -35.79753573 62.85015458 -36.16601562 60.61914062 C-38.09383594 48.88208959 -38.09383594 48.88208959 -38.58496094 45.52481079 C-38.94900846 43.04072075 -38.94900846 43.04072075 -39.59179688 40.82455444 C-40.32211438 37.7926148 -40.40268147 35.65826177 -38.75813293 32.96992493 C-36.82188537 30.69299429 -34.77414745 28.63157049 -32.6171875 26.5625 C-31.85076935 25.79695801 -31.0843512 25.03141602 -30.29470825 24.24267578 C-28.67260352 22.63195792 -27.03954144 21.03221036 -25.39648438 19.44287109 C-22.88018088 17.00501935 -20.40334653 14.531817 -17.9296875 12.05078125 C-16.34854758 10.4899624 -14.76528318 8.93129215 -13.1796875 7.375 C-12.4367746 6.63451416 -11.69386169 5.89402832 -10.92843628 5.13110352 C-10.22485992 4.45619873 -9.52128357 3.78129395 -8.79638672 3.0859375 C-8.18270233 2.4882959 -7.56901794 1.8906543 -6.93673706 1.27490234 C-4.49017464 -0.33560443 -2.87157317 -0.24476826 0 0 Z " fill="#4F748D" transform="translate(420,0)"/>
<path d="M0 0 C1.68033651 3.23487474 2.69229708 6.26334776 3.5625 9.8125 C3.81128906 10.80894531 4.06007813 11.80539063 4.31640625 12.83203125 C8.00889134 29.94406217 9.90927207 56.15699011 1 72 C-3.03469667 70.72451525 -6.80826546 69.2387032 -10.6171875 67.3984375 C-11.63554687 66.90859375 -12.65390625 66.41875 -13.703125 65.9140625 C-15.27320313 65.15222656 -15.27320313 65.15222656 -16.875 64.375 C-17.94492187 63.859375 -19.01484375 63.34375 -20.1171875 62.8125 C-22.74635682 61.54486479 -25.37388302 60.2739434 -28 59 C-28.33 59.66 -28.66 60.32 -29 61 C-29.05607422 59.54980469 -29.05607422 59.54980469 -29.11328125 58.0703125 C-29.47026173 51.00069908 -29.98713173 44.68213656 -32.37890625 37.953125 C-33 36 -33 36 -33 33 C-31.74719238 31.38642883 -31.74719238 31.38642883 -29.97070312 29.63012695 C-29.31001831 28.96966873 -28.6493335 28.30921051 -27.96862793 27.6287384 C-27.24679321 26.92238754 -26.5249585 26.21603668 -25.78125 25.48828125 C-25.04878052 24.76005661 -24.31631104 24.03183197 -23.56164551 23.28153992 C-21.21469173 20.95141304 -18.85753427 18.63191672 -16.5 16.3125 C-14.9094745 14.73701608 -13.31962177 13.16085266 -11.73046875 11.58398438 C-7.82809217 7.7147303 -3.91728183 3.85415989 0 0 Z " fill="#FC646F" transform="translate(310,231)"/>
<path d="M0 0 C3.02047458 0.72138322 6.06332137 1.17072494 9.13241577 1.63317871 C12.29455967 2.11130803 15.44607346 2.64664598 18.59942627 3.17919922 C21.03124864 3.58943103 23.46406181 3.99337569 25.89703369 4.39672852 C27.45503725 4.65743281 29.01298235 4.91848682 30.57086182 5.17993164 C31.29264114 5.29973892 32.01442047 5.4195462 32.7580719 5.54298401 C35.6628409 6.03629288 38.37546276 6.58615279 41.17633057 7.51977539 C41.57558496 10.87738335 41.32848814 12.28283122 39.47418213 15.17041016 C24.01379821 33.09410677 24.01379821 33.09410677 16.71929932 35.24389648 C11.62264853 35.3286206 7.08198912 33.3257572 2.38189697 31.54223633 C-3.76695085 29.58097398 -10.18311795 28.77965345 -16.54498291 27.76843262 C-20.30037996 27.16906506 -24.04929904 26.53639295 -27.79632568 25.88696289 C-29.07773437 25.67152832 -30.35914307 25.45609375 -31.67938232 25.23413086 C-34.82366943 24.51977539 -34.82366943 24.51977539 -37.82366943 22.51977539 C-34.7588862 19.00586936 -31.63616302 15.55900006 -28.44866943 12.15600586 C-27.3766056 10.99406648 -26.32131287 9.81639596 -25.28460693 8.62280273 C-17.38175976 -0.44267485 -12.0942255 -3.06420145 0 0 Z " fill="#50748D" transform="translate(470.82366943359375,85.480224609375)"/>
<path d="M0 0 C0.99 0.33 1.98 0.66 3 1 C6.30058919 7.66330712 6.5134933 15.08815481 6.4375 22.375 C6.43065186 23.38578613 6.42380371 24.39657227 6.41674805 25.43798828 C6.25673617 32.87764155 5.32597677 39.26165746 2 46 C1.60296875 46.825 1.2059375 47.65 0.796875 48.5 C-1.62867247 53.16687615 -4.49270006 57.09186579 -8 61 C-17.75367951 57.07630758 -27.24768183 52.67707842 -36.75 48.1875 C-38.23686528 47.48738829 -39.72384377 46.78751696 -41.2109375 46.08789062 C-44.80859936 44.3946881 -48.40472553 42.69826554 -52 41 C-52 40.67 -52 40.34 -52 40 C-50.76636719 39.94005859 -50.76636719 39.94005859 -49.5078125 39.87890625 C-47.83332031 39.72228516 -47.83332031 39.72228516 -46.125 39.5625 C-45.03445312 39.48128906 -43.94390625 39.40007812 -42.8203125 39.31640625 C-37.01861162 37.90958253 -33.09931902 33.06767451 -29 29 C-28.43794861 28.44786835 -27.87589722 27.89573669 -27.29681396 27.32687378 C-22.78990472 22.89636182 -18.32924823 18.4208502 -13.875 13.9375 C-12.52367314 12.5811454 -11.17211228 11.2250239 -9.8203125 9.86914062 C-6.54417473 6.58210445 -3.27120689 3.29194304 0 0 Z " fill="#E5E4E4" transform="translate(275,266)"/>
<path d="M0 0 C1.55059015 0.24319874 3.10146445 0.48459131 4.65258789 0.72436523 C6.34291618 1.00057831 8.03292729 1.27873771 9.72265625 1.55859375 C10.62696884 1.70780777 11.53128143 1.85702179 12.46299744 2.01075745 C14.36325333 2.32506244 16.26336234 2.6402566 18.16333008 2.95629883 C21.05679431 3.43655298 23.95121319 3.91073797 26.84570312 4.38476562 C28.70058271 4.69233538 30.55540252 5.00026592 32.41015625 5.30859375 C33.26762955 5.44825058 34.12510284 5.58790741 35.00856018 5.73179626 C39.79216749 6.53501314 44.36371782 7.57059998 49 9 C48.35931608 10.34601127 47.68460069 11.67578547 47 13 C46.53779053 13.89428711 46.07558105 14.78857422 45.59936523 15.70996094 C43.15172209 19.14264225 40.98985385 21.58738615 37 23 C27.64845519 23.58257889 18.17590685 21.07071615 9.0625 19.25 C6.4846343 18.78271023 3.90585775 18.32041592 1.32617188 17.86328125 C-3.3782972 17.00891113 -8.07947211 16.14366744 -12.76928711 15.21191406 C-13.70953232 15.0263092 -14.64977753 14.84070435 -15.61851501 14.6494751 C-18 14 -18 14 -21 12 C-19.02634377 9.78264536 -17.02686603 7.60530705 -15 5.4375 C-14.44699219 4.80908203 -13.89398438 4.18066406 -13.32421875 3.53320312 C-12.76347656 2.94345703 -12.20273437 2.35371094 -11.625 1.74609375 C-11.12226563 1.19622803 -10.61953125 0.6463623 -10.1015625 0.07983398 C-6.74467618 -1.64501595 -3.56234176 -0.65611936 0 0 Z " fill="#2C5A7F" transform="translate(440,110)"/>
<path d="M0 0 C0.66 0.33 1.32 0.66 2 1 C2.6565089 3.81675221 3.18874089 6.57611734 3.65625 9.42578125 C3.80404907 10.28374802 3.95184814 11.14171478 4.10412598 12.02568054 C4.57771174 14.78661236 5.03897031 17.54944665 5.5 20.3125 C5.81039465 22.13360064 6.12158337 23.95456612 6.43359375 25.77539062 C7.03310437 29.28221701 7.62539522 32.79013134 8.2109375 36.29931641 C8.68213893 39.12207572 9.16622067 41.94098012 9.6640625 44.75927734 C9.84710938 45.80164551 10.03015625 46.84401367 10.21875 47.91796875 C10.37279297 48.77543701 10.52683594 49.63290527 10.68554688 50.51635742 C11.63047442 57.97967105 11.63047442 57.97967105 9.8984375 60.78271484 C9.39570313 61.25402832 8.89296875 61.7253418 8.375 62.2109375 C7.83359375 62.73300781 7.2921875 63.25507812 6.734375 63.79296875 C6.16203125 64.31503906 5.5896875 64.83710937 5 65.375 C4.42765625 65.92027344 3.8553125 66.46554688 3.265625 67.02734375 C1.85694461 68.36559012 0.43017503 69.68474975 -1 71 C-2.95655797 68.06516304 -3.39448921 66.74363091 -3.94555664 63.38012695 C-4.1023439 62.44517899 -4.25913116 61.51023102 -4.42066956 60.54695129 C-4.66296547 59.03290962 -4.66296547 59.03290962 -4.91015625 57.48828125 C-5.08252304 56.44608932 -5.25488983 55.4038974 -5.43247986 54.3301239 C-5.98264504 50.99199555 -6.52249162 47.65228478 -7.0625 44.3125 C-7.42970445 42.08127576 -7.79753573 39.85015458 -8.16601562 37.61914062 C-10.0122803 26.37862067 -10.0122803 26.37862067 -10.60392761 22.54446411 C-10.8584548 20.90932033 -11.12949526 19.27661526 -11.4210968 17.64767456 C-12.25699497 12.5227533 -12.25699497 12.5227533 -11.01196289 9.99023438 C-10.5039917 9.52939453 -9.99602051 9.06855469 -9.47265625 8.59375 C-8.92802734 8.078125 -8.38339844 7.5625 -7.82226562 7.03125 C-7.24154297 6.5259375 -6.66082031 6.020625 -6.0625 5.5 C-5.48564453 4.96375 -4.90878906 4.4275 -4.31445312 3.875 C-2.89584081 2.56190431 -1.45040578 1.27789055 0 0 Z " fill="#2B597F" transform="translate(392,23)"/>
<path d="M0 0 C3 1 3 1 3.94921875 2.86328125 C6.00392363 9.67968315 6.32909985 15.90606989 6 23 C1.53202662 21.60121198 -2.63822079 19.86369228 -6.875 17.875 C-8.02742188 17.33617187 -9.17984375 16.79734375 -10.3671875 16.2421875 C-11.67042969 15.62730469 -11.67042969 15.62730469 -13 15 C-11.38989473 10.92623969 -8.46177729 8.23492931 -5.375 5.25 C-4.859375 4.74339844 -4.34375 4.23679687 -3.8125 3.71484375 C-2.54616661 2.47196098 -1.2736856 1.23534724 0 0 Z " fill="#F3F0F0" transform="translate(275,266)"/>
<path d="M0 0 C0.66 0.66 1.32 1.32 2 2 C-2.66666667 6.66666667 -7.33333333 11.33333333 -12 16 C-11.64008282 10.95193086 -8.95601959 8.47760134 -5.4375 5.1875 C-4.91736328 4.68541016 -4.39722656 4.18332031 -3.86132812 3.66601562 C-2.5831143 2.43470873 -1.29272853 1.2160593 0 0 Z " fill="#3C5B80" transform="translate(392,23)"/>
<path d="M0 0 C3.94139078 1.66751148 6.7892812 4.22710649 10 7 C9.34 7.66 8.68 8.32 8 9 C6.66368764 7.6905332 5.33102075 6.37734515 4 5.0625 C3.2575 4.33160156 2.515 3.60070312 1.75 2.84765625 C0 1 0 1 0 0 Z " fill="#FC515F" transform="translate(55,436)"/>
</svg>
