<?xml version="1.0" encoding="UTF-8"?>
<svg version="1.1" xmlns="http://www.w3.org/2000/svg" width="512" height="512">
<path d="M0 0 C0.70007629 0.00262701 1.40015258 0.00525403 2.1214433 0.00796065 C2.86210482 0.0068068 3.60276634 0.00565296 4.36587214 0.00446415 C6.87940846 0.00179046 9.39288234 0.00632578 11.90641549 0.01075396 C13.71394126 0.01031841 15.52146697 0.00944381 17.32899234 0.00816479 C22.3206303 0.00591662 27.31224702 0.0099455 32.30388227 0.01494285 C37.67746636 0.01924257 43.05104916 0.01780127 48.42463449 0.01704058 C57.74293637 0.01651504 67.06123128 0.01966497 76.37953141 0.02527842 C89.85239718 0.03338936 103.32525955 0.03600822 116.79812749 0.03726641 C138.65449213 0.03945757 160.51085305 0.04611938 182.36721566 0.05556902 C203.60452016 0.06474149 224.84182365 0.07182313 246.07912973 0.07607684 C248.04119174 0.07647092 248.04119174 0.07647092 250.04289136 0.07687297 C256.60464393 0.07817796 263.16639651 0.07944168 269.72814909 0.08068487 C324.20476434 0.09105947 378.68137557 0.10867952 433.15798715 0.13100848 C433.79877267 1.56200259 434.43840566 2.99351284 435.07755616 4.42523798 C435.61203616 5.62091251 435.61203616 5.62091251 436.15731373 6.84074208 C437.40358679 9.69311856 438.5024456 12.58186869 439.56472543 15.50747332 C439.99262368 16.68095324 440.42052194 17.85443316 440.86138681 19.06347308 C441.31706333 20.32294997 441.77269981 21.58244135 442.22829965 22.84194598 C442.7139916 24.17698575 443.19999102 25.5119137 443.68627694 26.84673724 C444.96417303 30.35669481 446.23840391 33.86797104 447.51168588 37.37960467 C449.02137324 41.5416683 450.53338819 45.70289034 452.04920533 49.86272559 C453.29964534 53.29541637 454.54317155 56.73029908 455.77251962 60.17060503 C458.05972673 66.54703658 460.41770334 72.84281708 463.09890512 79.06777605 C470.21649824 95.91735005 471.55926269 111.0478129 471.07778695 129.02633318 C471.01733525 131.78199175 471.01051947 134.53673736 471.00463441 137.29297194 C470.99358006 140.64436055 470.94689582 143.99476132 470.90017465 147.34585223 C470.88944924 148.55539065 470.87872384 149.76492907 470.86767343 151.01112017 C470.45764188 165.79969899 465.28082551 178.98257295 454.43923715 189.24038348 C448.7853725 193.92612062 443.39996328 197.68261325 436.15798715 199.13100848 C436.15798715 287.57100848 436.15798715 376.01100848 436.15798715 467.13100848 C447.37798715 467.13100848 458.59798715 467.13100848 470.15798715 467.13100848 C470.15798715 481.98100848 470.15798715 496.83100848 470.15798715 512.13100848 C301.19798715 512.13100848 132.23798715 512.13100848 -41.84201285 512.13100848 C-41.84201285 497.28100848 -41.84201285 482.43100848 -41.84201285 467.13100848 C-30.95201285 467.13100848 -20.06201285 467.13100848 -8.84201285 467.13100848 C-9.33701285 334.47100848 -9.33701285 334.47100848 -9.84201285 199.13100848 C-13.47201285 197.15100848 -17.10201285 195.17100848 -20.84201285 193.13100848 C-31.74125941 185.1345062 -38.93399475 174.36711919 -41.84201285 161.13100848 C-46.25789135 119.74844115 -40.18758662 86.89818956 -23.6091027 48.66372332 C-19.68625419 39.54139174 -16.37599865 30.20442739 -13.05810782 20.84917864 C-11.55576874 16.62225128 -10.02259363 12.40684848 -8.48263785 8.19350848 C-8.22634101 7.4830588 -7.97004416 6.77260912 -7.70598075 6.04063067 C-5.50910343 0.01964908 -5.50910343 0.01964908 0 0 Z " fill="#FED05C" transform="translate(41.842012852430344,-0.13100847601890564)"/>
<path d="M0 0 C42.9 0 85.8 0 130 0 C130 68.31 130 136.62 130 207 C87.1 207 44.2 207 0 207 C0 138.69 0 70.38 0 0 Z " fill="#89D6F7" transform="translate(300,244)"/>
<path d="M0 0 C168.96 0 337.92 0 512 0 C512 14.85 512 29.7 512 45 C343.04 45 174.08 45 0 45 C0 30.15 0 15.3 0 0 Z " fill="#CDD5DF" transform="translate(0,467)"/>
<path d="M0 0 C48.84 0 97.68 0 148 0 C148 42.9 148 85.8 148 130 C99.16 130 50.32 130 0 130 C0 87.1 0 44.2 0 0 Z " fill="#89D6F7" transform="translate(81,244)"/>
<path d="M0 0 C29.04 0 58.08 0 88 0 C92.4996959 10.12431578 92.4996959 10.12431578 94.40673828 15.37646484 C94.83463654 16.54994476 95.26253479 17.72342468 95.70339966 18.9324646 C96.15907618 20.19194149 96.61471266 21.45143287 97.0703125 22.7109375 C97.55600445 24.04597727 98.04200387 25.38090523 98.52828979 26.71572876 C99.80618588 30.22568633 101.08041676 33.73696257 102.35369873 37.24859619 C103.8633861 41.41065982 105.37540104 45.57188187 106.89121819 49.73171711 C108.14165819 53.16440789 109.3851844 56.5992906 110.61453247 60.03959656 C112.90173958 66.4160281 115.25971619 72.7118086 117.94091797 78.93676758 C125.05851109 95.78634157 126.40127554 110.91680443 125.9197998 128.89532471 C125.85934811 131.65098327 125.85253232 134.40572889 125.84664726 137.16196346 C125.83559291 140.51335207 125.78890867 143.86375284 125.7421875 147.21484375 C125.7314621 148.42438217 125.72073669 149.63392059 125.70968628 150.88011169 C125.32678317 164.69025095 120.84362744 177.03265869 111.3125 187.1875 C100.2386873 197.58762067 88.54127107 201.59636003 73.5 201.4375 C72.49114746 201.42992676 71.48229492 201.42235352 70.44287109 201.41455078 C59.00143991 201.16054396 51.09192361 197.82785636 42 191 C40.948125 190.21625 39.89625 189.4325 38.8125 188.625 C29.64624773 180.06983121 23.86334892 168.38500125 22 156 C21.90166025 152.50415138 22.11997175 149.04424267 22.32421875 145.5546875 C23.96848251 100.57684143 13.75380275 58.6832105 3.17596436 15.2033844 C2.96199918 14.32325747 2.748034 13.44313053 2.52758503 12.53633308 C2.1279605 10.89760816 1.72609363 9.25942782 1.32158947 7.62190056 C0 2.21725642 0 2.21725642 0 0 Z " fill="#F2705A" transform="translate(387,0)"/>
<path d="M0 0 C0.80991898 0.00359528 1.61983795 0.00719055 2.45429993 0.01089478 C3.30300659 0.01074875 4.15171326 0.01060272 5.02613831 0.01045227 C7.84523532 0.01115168 10.66426712 0.01894539 13.48335266 0.02676392 C15.43248458 0.028628 17.38161696 0.03005195 19.33074951 0.03105164 C24.47151473 0.03487761 29.61225188 0.04470858 34.75300598 0.05575562 C39.99449789 0.06596802 45.23599431 0.07054889 50.47749329 0.07559204 C60.76982335 0.08633078 71.06213255 0.10340815 81.35444641 0.12442017 C80.41621849 11.73294197 80.41621849 11.73294197 79.22554016 16.55020142 C78.99930969 17.49186157 78.77307922 18.43352173 78.53999329 19.40371704 C78.29313782 20.40467407 78.04628235 21.4056311 77.79194641 22.43692017 C74.76012226 35.12566567 72.05610137 47.86883973 69.42256165 60.64517212 C69.2679245 61.38946976 69.11328735 62.1337674 68.95396423 62.90061951 C68.63372279 64.44359258 68.31663667 65.98722345 68.00248718 67.53144836 C67.06138341 72.07134922 65.99396432 76.55022579 64.79267883 81.02871704 C60.3321566 98.04231815 59.54228783 114.09058423 59.66694641 131.62442017 C59.67831895 135.55544692 59.68082369 139.48600315 59.66650391 143.41702271 C59.65921908 145.83231095 59.66695825 148.24771242 59.69290161 150.66287231 C59.68743345 164.67216592 54.87099169 177.00431413 45.26850891 187.34707642 C34.55491178 197.29541661 22.40170936 201.48351252 8.04194641 201.43692017 C7.06032532 201.45303345 6.07870422 201.46914673 5.06733704 201.48574829 C-8.49771068 201.49472582 -19.09111932 196.59623546 -28.95805359 187.31192017 C-39.21191867 176.38704551 -43.1643771 163.10901919 -43.77445984 148.39395142 C-43.8268985 147.18967499 -43.87933716 145.98539856 -43.93336487 144.74462891 C-44.07107726 140.80881827 -44.15618022 136.87458977 -44.20805359 132.93692017 C-44.22336561 131.92148321 -44.22336561 131.92148321 -44.23898697 130.88553238 C-44.62106579 100.74198682 -36.39613652 76.29620177 -24.41264343 48.65713501 C-20.48979492 39.53480343 -17.17953939 30.19783908 -13.86164856 20.84259033 C-12.35930948 16.61566297 -10.82613437 12.40026017 -9.28617859 8.18692017 C-9.02988174 7.47647049 -8.7735849 6.76602081 -8.50952148 6.03404236 C-6.42968971 0.33384751 -6.13126597 0.01149218 0 0 Z " fill="#F26F59" transform="translate(42.64555358886719,-0.124420166015625)"/>
<path d="M0 0 C29.04 0 58.08 0 88 0 C87.42238088 12.13000143 86.83242488 24.17385765 85.84375 36.26171875 C85.62138337 39.08961585 85.40324325 41.91783368 85.18554688 44.74609375 C85.12965897 45.47114451 85.07377106 46.19619528 85.01618958 46.94321728 C83.37999231 68.22201645 81.85455354 89.4528154 81.625 110.80078125 C81.61233345 111.93086389 81.61233345 111.93086389 81.59941101 113.08377647 C81.52324797 120.31632305 81.48886157 127.54745289 81.53077221 134.78029823 C81.63111648 154.71400941 80.55393997 171.80496471 66.375 187.1875 C55.8174052 197.14065235 43.37455858 201.59631446 29.0625 201.4375 C28.09465576 201.42920166 27.12681152 201.42090332 26.12963867 201.41235352 C19.09299358 201.24561962 13.23232352 200.46012031 7 197 C6.08347656 196.51402344 5.16695312 196.02804688 4.22265625 195.52734375 C-7.60437706 188.66474417 -15.15645715 178.66566329 -20 166 C-21.91094117 158.72810821 -22.35612322 151.60732957 -22.44140625 144.1171875 C-22.46634659 142.43691719 -22.46634659 142.43691719 -22.49179077 140.72270203 C-22.53392662 137.10665566 -22.55290966 133.49127442 -22.5625 129.875 C-22.56645782 128.63869843 -22.57041565 127.40239685 -22.57449341 126.12863159 C-22.57434141 107.37299225 -21.09863414 90.68440004 -15.98779297 72.62939453 C-14.40353167 66.80842851 -13.17784193 60.91603572 -11.92880249 55.01574707 C-11.22537686 51.70903082 -10.49840341 48.40751631 -9.7734375 45.10546875 C-9.48265292 43.77655062 -9.19196382 42.44761159 -8.90136719 41.11865234 C-8.11283754 37.51482714 -7.32335762 33.91121064 -6.53363037 30.30764771 C-5.88636884 27.35399276 -5.23943624 24.40026582 -4.5925293 21.4465332 C-4.28393744 20.03796848 -3.97518426 18.62943908 -3.66625977 17.22094727 C-3.23803596 15.26848138 -2.81041158 13.31588405 -2.3828125 11.36328125 C-2.13934082 10.25251221 -1.89586914 9.14174316 -1.64501953 7.99731445 C-1.07244528 5.33664294 -0.53374635 2.66873173 0 0 Z " fill="#EDEEED" transform="translate(124,0)"/>
<path d="M0 0 C28.71 0 57.42 0 87 0 C110.99577304 89.98414892 110.99577304 89.98414892 110.3125 133.5 C110.30346146 134.17576458 110.29442291 134.85152916 110.28511047 135.54777145 C109.99010152 155.88779618 108.79808927 172.29541616 94.39453125 187.828125 C83.83689485 197.40405622 72.11096757 201.59217554 58.0625 201.4375 C56.61182129 201.42614014 56.61182129 201.42614014 55.13183594 201.41455078 C48.09890349 201.25196021 42.2492571 200.40484058 36 197 C34.71802734 196.34644531 34.71802734 196.34644531 33.41015625 195.6796875 C20.68983585 188.6787292 13.1484296 178.05141153 8.68959045 164.37533569 C5.76164602 154.05945387 6.38084066 143.23447085 6.42434692 132.60675049 C6.4470391 125.73728568 6.38154961 118.86898189 6.3046875 112 C6.29734903 111.2974773 6.29001057 110.59495461 6.28244972 109.87114334 C6.10892024 94.41191454 5.19813063 79.04373718 4.0625 63.625 C3.93378006 61.86050507 3.93378006 61.86050507 3.80245972 60.06036377 C3.07521939 50.19061172 2.29912136 40.32567881 1.42529297 30.46777344 C1.33243515 29.40513275 1.23957733 28.34249207 1.14390564 27.24765015 C0.9699341 25.27128912 0.79120333 23.29533724 0.60621643 21.31997681 C-0.02783446 14.12727528 0 7.30344769 0 0 Z " fill="#EDEEED" transform="translate(300,0)"/>
<path d="M0 0 C29.04 0 58.08 0 88 0 C89.84936343 24.93452073 89.84936343 24.93452073 90.66075134 36.08349609 C91.35271126 45.56239446 92.06819307 55.03526638 92.93359375 64.5 C94.77003374 85.05469971 95.31606709 105.54983054 95.36836243 126.17781448 C95.37493394 128.29125488 95.38639519 130.40462251 95.39880371 132.51803589 C95.41994187 136.50830945 95.41144577 140.49797044 95.3984375 144.48828125 C95.4043692 145.6741684 95.4103009 146.86005554 95.41641235 148.08187866 C95.29880955 162.34334757 91.60834319 175.69873717 81.7421875 186.3828125 C70.97364804 196.37872132 58.40767198 201.17624603 43.9375 201.3125 C42.93783203 201.34150391 41.93816406 201.37050781 40.90820312 201.40039062 C31.66256907 201.4784889 24.51589694 198.84176483 16.6875 194 C15.90761719 193.525625 15.12773437 193.05125 14.32421875 192.5625 C3.10372956 185.01931399 -3.70915428 173.74786076 -6.55581665 160.67385864 C-7.38280094 155.69564617 -7.3671789 150.70822316 -7.40625 145.671875 C-7.41987076 144.44940567 -7.43349152 143.22693634 -7.44752502 141.96742249 C-7.48202793 137.89482604 -7.49416571 133.82270782 -7.5 129.75 C-7.50220928 129.05033993 -7.50441856 128.35067986 -7.50669479 127.62981796 C-7.58929231 100.27325793 -6.07148765 73.08823663 -4.0625 45.8125 C-3.99292084 44.86622238 -3.92334167 43.91994476 -3.85165405 42.94499207 C-3.38411061 36.61465444 -2.90344659 30.2854137 -2.41015625 23.95703125 C-2.34633821 23.1370421 -2.28252018 22.31705296 -2.21676826 21.47221565 C-2.03565347 19.16457143 -1.85084786 16.85726012 -1.66430664 14.55004883 C-1.5599379 13.25464676 -1.45556915 11.95924469 -1.34803772 10.62458801 C-1.00681855 7.07101076 -0.50486319 3.5340423 0 0 Z " fill="#F2705A" transform="translate(212,0)"/>
<path d="M0 0 C53.46 0 106.92 0 162 0 C162 78.87 162 157.74 162 239 C108.54 239 55.08 239 0 239 C0 160.13 0 81.26 0 0 Z M16 16 C16 84.31 16 152.62 16 223 C58.9 223 101.8 223 146 223 C146 154.69 146 86.38 146 16 C103.1 16 60.2 16 16 16 Z " fill="#425B6B" transform="translate(284,228)"/>
<path d="M0 0 C59.4 0 118.8 0 180 0 C180 53.46 180 106.92 180 162 C120.6 162 61.2 162 0 162 C0 108.54 0 55.08 0 0 Z M16 16 C16 58.9 16 101.8 16 146 C64.84 146 113.68 146 164 146 C164 103.1 164 60.2 164 16 C115.16 16 66.32 16 16 16 Z " fill="#425C6C" transform="translate(65,228)"/>
<path d="M0 0 C33.66 0 67.32 0 102 0 C102.0825 9.3225 102.165 18.645 102.25 28.25 C102.28641602 31.16875977 102.32283203 34.08751953 102.36035156 37.09472656 C102.37204885 39.44335192 102.3822382 41.79198548 102.390625 44.140625 C102.41108887 45.33155762 102.43155273 46.52249023 102.45263672 47.74951172 C102.45835218 61.65522684 97.88852576 73.98482225 88.3125 84.1875 C77.2386873 94.58762067 65.54127107 98.59636003 50.5 98.4375 C49.49114746 98.42992676 48.48229492 98.42235352 47.44287109 98.41455078 C36.00143991 98.16054396 28.09192361 94.82785636 19 88 C17.4221875 86.824375 17.4221875 86.824375 15.8125 85.625 C7.28168017 77.66290149 0.39560267 66.09675306 -0.12025452 54.23478699 C-0.11803391 53.23329117 -0.11581329 52.23179535 -0.11352539 51.19995117 C-0.11340454 50.04329956 -0.11328369 48.88664795 -0.11315918 47.69494629 C-0.10804321 46.4897937 -0.10292725 45.28464111 -0.09765625 44.04296875 C-0.09664917 42.92748657 -0.09564209 41.81200439 -0.09460449 40.66271973 C-0.08938088 36.50430266 -0.07541961 32.34590028 -0.0625 28.1875 C-0.041875 18.885625 -0.02125 9.58375 0 0 Z " fill="#F05540" transform="translate(410,103)"/>
<path d="M0 0 C33.66 0 67.32 0 102 0 C102.061875 9.19875 102.12375 18.3975 102.1875 27.875 C102.22846802 32.20214111 102.22846802 32.20214111 102.27026367 36.61669922 C102.27903392 38.92935773 102.28667658 41.24202092 102.29296875 43.5546875 C102.3159906 45.32404663 102.3159906 45.32404663 102.33947754 47.12915039 C102.34393045 61.32801405 97.66428542 73.72076416 87.9140625 84.22265625 C77.20046537 94.17099644 65.04726295 98.35909235 50.6875 98.3125 C49.70587891 98.32861328 48.72425781 98.34472656 47.71289062 98.36132812 C34.14784291 98.37030565 23.55443427 93.47181529 13.6875 84.1875 C2.96235888 72.76050915 -0.65478845 59.5141055 -0.390625 44.140625 C-0.38659668 43.01253418 -0.38256836 41.88444336 -0.37841797 40.72216797 C-0.35771133 36.56460984 -0.30186854 32.40728613 -0.25 28.25 C-0.1675 18.9275 -0.085 9.605 0 0 Z " fill="#F05540" transform="translate(0,103)"/>
<path d="M0 0 C33.66 0 67.32 0 102 0 C102.061875 8.8275 102.12375 17.655 102.1875 26.75 C102.22846802 30.89320801 102.22846802 30.89320801 102.27026367 35.12011719 C102.27903763 37.3456987 102.2866794 39.57128508 102.29296875 41.796875 C102.3159906 43.48611084 102.3159906 43.48611084 102.33947754 45.20947266 C102.34409805 59.4221582 98.56185683 72.74907732 88.7421875 83.3828125 C77.97364804 93.37872132 65.40767198 98.17624603 50.9375 98.3125 C49.43799805 98.35600586 49.43799805 98.35600586 47.90820312 98.40039062 C38.66256907 98.4784889 31.51589694 95.84176483 23.6875 91 C22.90761719 90.525625 22.12773437 90.05125 21.32421875 89.5625 C10.13080068 82.03751306 3.28273527 70.78085197 0.43081665 57.71551514 C-0.39181862 52.53029646 -0.24225834 47.3272618 -0.1953125 42.08984375 C-0.19329834 41.0177063 -0.19128418 39.94556885 -0.18920898 38.84094238 C-0.17882155 34.87308413 -0.15089954 30.90528732 -0.125 26.9375 C-0.08375 18.048125 -0.0425 9.15875 0 0 Z " fill="#F05540" transform="translate(205,103)"/>
<path d="M0 0 C2.375 1.125 2.375 1.125 4 3 C4.4325507 6.56764635 4.41413948 8.37919677 2.39682007 11.40319824 C1.65533722 12.16668579 0.91385437 12.93017334 0.14990234 13.71679688 C-0.6758429 14.57974365 -1.50158813 15.44269043 -2.35235596 16.33178711 C-3.22607849 17.21229736 -4.09980103 18.09280762 -5 19 C-5.82232117 19.8463501 -6.64464233 20.6927002 -7.49188232 21.56469727 C-10.10832562 24.23985519 -12.74952571 26.88825273 -15.3984375 29.53125 C-16.36502362 30.49851206 -17.33146146 31.46592233 -18.29776001 32.43347168 C-20.30122102 34.43839107 -22.3064392 36.44153071 -24.31298828 38.44335938 C-26.88188936 41.0065098 -29.44620053 43.57419842 -32.00925255 46.14319611 C-33.99427951 48.13183328 -35.98167761 50.118087 -37.96980667 52.10362244 C-39.37537482 53.50820351 -40.77893695 54.91479109 -42.1824646 56.32141113 C-43.03410187 57.16989624 -43.88573914 58.01838135 -44.76318359 58.89257812 C-45.51103119 59.63963013 -46.25887878 60.38668213 -47.02938843 61.15637207 C-49.68053344 63.63668075 -51.33948132 64.93119597 -55 65.3125 C-58 65 -58 65 -59.875 63.9375 C-61.76756573 60.67808125 -61.60865308 58.71278378 -61 55 C-56.13480323 48.03451203 -49.31944448 42.17250257 -43.32421875 36.19140625 C-42.30753761 35.17405 -41.29100483 34.15654547 -40.27461243 33.13890076 C-38.16084827 31.02367342 -36.04531384 28.91023766 -33.9284668 26.7980957 C-31.21368479 24.08905428 -28.50347665 21.37548802 -25.79454327 18.66059971 C-23.70403681 16.56648755 -21.61116439 14.47475309 -19.51755714 12.38374138 C-18.51646323 11.38331444 -17.51611134 10.38214441 -16.51651573 9.38022041 C-15.12630074 7.98747408 -13.73254804 6.5982617 -12.33862305 5.20922852 C-11.54699265 4.41839371 -10.75536224 3.6275589 -9.93974304 2.8127594 C-6.67027972 -0.24267126 -4.417126 -0.35337008 0 0 Z " fill="#57C0EB" transform="translate(157,263)"/>
<path d="M0 0 C2.375 1.125 2.375 1.125 4 3 C4.57836914 5.59057617 4.57836914 5.59057617 4 9 C1.78794863 12.13202574 -0.90151996 14.74166773 -3.62890625 17.42578125 C-4.41136215 18.21397751 -5.19381805 19.00217377 -5.99998474 19.81425476 C-7.65806212 21.476413 -9.32373245 23.1310264 -10.99633789 24.77856445 C-13.5497859 27.29994557 -16.06973177 29.85163293 -18.58789062 32.40820312 C-20.20380928 34.02015607 -21.82158865 35.63024632 -23.44140625 37.23828125 C-24.19273331 38.00175369 -24.94406036 38.76522614 -25.71815491 39.55183411 C-31.66796173 45.34539875 -31.66796173 45.34539875 -35.91381836 46.04370117 C-39 46 -39 46 -40.9375 45.0625 C-42.65937213 41.72004233 -42.79555341 38.60201464 -42 35 C-39.95596092 31.8487215 -37.34935566 29.39240145 -34.6328125 26.81640625 C-33.88289032 26.07543198 -33.13296814 25.3344577 -32.36032104 24.57102966 C-29.96669086 22.21545359 -27.54644241 19.88944123 -25.125 17.5625 C-23.50213831 15.97120205 -21.88102287 14.37812112 -20.26171875 12.78320312 C-17.300746 9.88068099 -14.33602128 6.98250864 -11.34814453 4.10766602 C-10.74857941 3.53000992 -10.14901428 2.95235382 -9.53128052 2.35719299 C-6.46587176 -0.35971697 -4.00609372 -0.3204875 0 0 Z " fill="#55C0EB" transform="translate(169,294)"/>
<path d="M0 0 C5.33739473 1.98844117 8.45333824 4.90667648 11 10 C11.59810582 16.10067939 10.45869755 19.13912777 7 24 C3.10139638 27.66232461 -1.29442384 27.50568313 -6.40625 27.34765625 C-10.02796604 26.86221539 -11.65550261 25.78409065 -14 23 C-16.845108 18.58517724 -17.65293024 15.22344192 -17 10 C-13.30090764 2.74408806 -8.25966171 -1.03245771 0 0 Z " fill="#425C6D" transform="translate(323,334)"/>
</svg>
