<?xml version="1.0" encoding="UTF-8"?>
<svg version="1.1" xmlns="http://www.w3.org/2000/svg" width="512" height="512">
<path d="M0 0 C1.20520294 -0.01469078 1.20520294 -0.01469078 2.43475342 -0.02967834 C21.44805522 -0.21336463 39.7412665 0.25884445 58.41796875 4.23828125 C59.42585449 4.45258789 60.43374023 4.66689453 61.47216797 4.88769531 C84.2566401 9.92322124 105.13504781 18.57257347 123.41796875 33.23828125 C124.26230469 33.9034375 125.10664063 34.56859375 125.9765625 35.25390625 C167.05217 69.69169558 174.30579574 135.80014551 179.20703125 185.8515625 C184.35669681 245.42410072 170.05716121 303.09419619 144.66796875 356.67578125 C135.05867862 377.02478404 129.74763833 397.21009561 125.41796875 419.23828125 C126.12574463 419.35147705 126.83352051 419.46467285 127.56274414 419.58129883 C146.10687949 422.71871779 163.82226854 431.24717943 175.1953125 446.64453125 C182.20654102 457.63414134 188.01357664 471.93288114 185.953125 485.171875 C184.59272145 490.42482011 182.04288539 494.33969454 177.38354492 497.29907227 C173.15300275 499.32054733 168.49931605 499.96313511 163.91796875 500.80078125 C162.82460205 501.00985107 161.73123535 501.2189209 160.60473633 501.43432617 C134.87045553 506.23828125 134.87045553 506.23828125 124.41796875 506.23828125 C124.41796875 508.21828125 124.41796875 510.19828125 124.41796875 512.23828125 C120.80655803 511.77527988 117.6422701 510.97253815 114.26245117 509.67480469 C109.40607195 508.03713182 105.39396512 508.06246851 100.34375 508.56640625 C99.07606026 508.66909821 99.07606026 508.66909821 97.78276062 508.77386475 C95.09685629 508.99466163 92.41398527 509.24028831 89.73046875 509.48828125 C86.22713097 509.79201442 82.72298483 510.08572907 79.21875 510.37890625 C78.38672467 510.44886527 77.55469934 510.51882429 76.69746113 510.59090328 C58.32787172 512.09800638 39.96630068 512.4001353 21.54296875 512.40625 C19.19921856 512.40947983 16.85546856 512.41284505 14.51171875 512.41633606 C9.62401871 512.42227498 4.7363362 512.42418164 -0.15136719 512.42358398 C-5.07653509 512.42350314 -10.00160916 512.43038849 -14.92675781 512.4440918 C-43.87650332 512.52333508 -72.69760016 512.29294601 -101.58203125 510.23828125 C-103.26211273 510.12119308 -103.26211273 510.12119308 -104.97613525 510.0017395 C-111.28994187 509.55153065 -117.5927719 509.02002376 -123.89453125 508.42578125 C-124.79286682 508.34313019 -125.69120239 508.26047913 -126.61676025 508.17532349 C-190.08252829 502.29044195 -190.08252829 502.29044195 -198.58203125 494.23828125 C-203.61627129 487.29919363 -204.10388563 480.85811272 -202.95703125 472.48828125 C-199.81289154 456.2090842 -191.40244936 442.11199692 -177.9140625 432.296875 C-173.80797612 429.58402621 -170.14586205 427.39915832 -165.41796875 426.03515625 C-163.06339094 425.18099558 -161.89318692 424.71158549 -160.50683594 422.6027832 C-159.72822441 420.51684435 -159.18954788 418.47402084 -158.70703125 416.30078125 C-158.52140625 415.60404297 -158.33578125 414.90730469 -158.14453125 414.18945312 C-152.96616942 393.96831483 -152.75357389 372.54495694 -157.58203125 352.23828125 C-157.77055664 351.43874023 -157.95908203 350.63919922 -158.15332031 349.81542969 C-161.73146226 335.17248572 -166.64072888 320.94117465 -171.44818115 306.66912842 C-179.82401192 281.80121864 -187.40463716 257.20830544 -192.45703125 231.42578125 C-192.60318878 230.68009888 -192.74934631 229.9344165 -192.89993286 229.1661377 C-204.05544587 171.61247129 -201.3221618 107.05292274 -168.44946289 56.55834961 C-163.16987487 48.8072244 -157.1294731 41.93990148 -150.58203125 35.23828125 C-149.95683594 34.5628125 -149.33164063 33.88734375 -148.6875 33.19140625 C-132.74624731 16.31682495 -107.1676205 7.02070635 -84.30078125 6.01953125 C-74.07177943 5.7368664 -64.19451472 6.36251663 -54.671875 10.50390625 C-50.5963018 11.47256334 -48.06145861 10.26127093 -44.39453125 8.61328125 C-38.2130782 6.06131193 -32.13636677 4.25714072 -25.58203125 2.92578125 C-24.80577393 2.76706543 -24.0295166 2.60834961 -23.22973633 2.44482422 C-15.48358683 0.92871246 -7.88600398 0.07990061 0 0 Z " fill="#A56A43" transform="translate(264.58203125,-0.23828125)"/>
<path d="M0 0 C3.21412296 2.69317948 4.73359417 6.19727874 6.5625 9.875 C15.25276924 26.61518158 28.79206881 42.17774997 45 52 C46.03253906 52.65355469 47.06507813 53.30710938 48.12890625 53.98046875 C63.13906969 63.22334074 80.39132562 68.75355575 98.0625 69.1875 C101.12877946 69.41175029 102.54977243 69.63204293 104.9453125 71.58984375 C106.72257876 73.66597765 108.35184068 75.82068033 110 78 C126.96924729 95.89906906 153.36042104 102.41866666 177 105 C177 108.63 177 112.26 177 116 C178.32 115.34 179.64 114.68 181 114 C185.92521502 113.12049732 189.9726932 113.60223381 194.3125 116.125 C199.43235823 119.75877612 202.39631374 124.21723174 203.671875 130.4296875 C205.52667548 144.95895792 203.49444995 158.03267134 194.625 170.0625 C193.45094102 171.40574652 192.24284602 172.72013303 191 174 C190.39414062 174.64453125 189.78828125 175.2890625 189.1640625 175.953125 C184.12353332 180.84963906 177.27627179 184.98694477 170.02661133 185.00488281 C167.77649484 185.04149133 166.10351703 185.18371807 164 186 C161.88418155 188.71898105 160.85736869 191.78315592 159.6875 195 C155.54665611 205.20487566 150.3981009 214.05689311 144 223 C143.34128906 223.92296875 142.68257813 224.8459375 142.00390625 225.796875 C128.07846409 243.84110991 109.19984297 262.74029847 88 272 C87.34 272 86.68 272 86 272 C86.19282434 297.43418915 86.19282434 297.43418915 97 320 C98.43408839 321.3577791 99.87166702 322.71188017 101.3125 324.0625 C106.59813167 329.76857964 105.81550996 336.42097249 105.91943359 343.72509766 C106.30954795 354.7405086 109.23699898 365.50113068 112.375 376 C112.6548877 376.94311035 112.93477539 377.8862207 113.22314453 378.85791016 C121.5653351 405.61240589 141.37688851 421.76254473 165 435 C162.02740234 437.97259766 158.61743596 437.56066239 154.609375 437.81640625 C153.75434387 437.87779282 152.89931274 437.93917938 152.01837158 438.00242615 C150.1927229 438.13180893 148.36675565 438.25675919 146.54052734 438.37768555 C143.82968867 438.55722228 141.11995899 438.74887712 138.41015625 438.94335938 C136.62244757 439.06844994 134.83468811 439.19281725 133.046875 439.31640625 C132.26987244 439.37059219 131.49286987 439.42477814 130.69232178 439.48060608 C127.79566126 439.67139688 124.89848924 439.83901986 122 440 C120.89390129 440.06162858 120.89390129 440.06162858 119.76545715 440.12450218 C104.88011038 440.93260931 90.03022932 441.16302171 75.125 441.16796875 C72.78124981 441.17119858 70.43749981 441.1745638 68.09375 441.17805481 C63.20604996 441.18399373 58.31836745 441.18590039 53.43066406 441.18530273 C48.50549616 441.18522189 43.58042209 441.19210724 38.65527344 441.20581055 C9.70552793 441.28505383 -19.11556891 441.05466476 -48 439 C-49.68008148 438.88291183 -49.68008148 438.88291183 -51.394104 438.76345825 C-57.70791062 438.3132494 -64.01074065 437.78174251 -70.3125 437.1875 C-71.21083557 437.10484894 -72.10917114 437.02219788 -73.034729 436.93704224 C-136.50049704 431.0521607 -136.50049704 431.0521607 -145 423 C-150.03424004 416.06091238 -150.52185438 409.61983147 -149.375 401.25 C-146.00586295 383.8058496 -136.58467008 369.38784628 -121.9375 359.3125 C-115.34397084 355.32928581 -108.35705507 353.08153354 -101 351 C-100.33049316 350.80196777 -99.66098633 350.60393555 -98.97119141 350.39990234 C-87.79549679 347.13364596 -76.50224741 345.24333964 -65.01382446 343.49822998 C-33.00676471 339.17998258 -33.00676471 339.17998258 -7.4375 321 C0.65836166 309.34195921 3.25773875 298.58728897 3.625 284.5625 C3.68300781 282.74975586 3.68300781 282.74975586 3.7421875 280.90039062 C3.83599458 277.93374183 3.92169246 274.96709164 4 272 C2.73349609 271.64228516 2.73349609 271.64228516 1.44140625 271.27734375 C-2.43137241 269.83988788 -5.66929411 267.86996889 -9.0625 265.5625 C-9.71951904 265.11712891 -10.37653809 264.67175781 -11.0534668 264.21289062 C-36.66951964 246.54451703 -61.54917557 221.16383604 -71.375 191 C-72.34575116 188.15890408 -72.34575116 188.15890408 -74 186 C-77.01407478 184.85113741 -79.65953769 184.56459288 -82.87109375 184.32421875 C-91.74198194 183.40501311 -98.53710105 177.69911531 -104 171 C-112.50669632 159.32298398 -115.20331838 147.20502671 -114 133 C-112.89269162 126.39022076 -110.86460973 121.63834881 -106 117 C-101.14944138 113.69280094 -96.69262838 113.43615871 -91 114 C-90.01 114.33 -89.02 114.66 -88 115 C-88.02094727 114.30551758 -88.04189453 113.61103516 -88.06347656 112.89550781 C-88.85425252 82.73591354 -88.85425252 82.73591354 -79.25 71.3515625 C-72.59302549 64.39409956 -65.30110436 58.0684658 -58.0234375 51.7734375 C-55.48498829 49.54861908 -52.99358224 47.27496681 -50.5 45 C-47.38092989 42.15475772 -44.25244609 39.3280042 -41.0625 36.5625 C-37.11332633 33.13231424 -33.26977695 29.58996482 -29.42211914 26.04711914 C-26.03942188 22.93772802 -22.60995622 19.89394533 -19.13671875 16.88671875 C-15.80798419 13.94745222 -12.55211128 10.928655 -9.29882812 7.90625 C-6.29754964 5.13276496 -3.22113753 2.51448944 0 0 Z " fill="#FCD6AC" transform="translate(211,71)"/>
<path d="M0 0 C-0.00785522 0.8853669 -0.00785522 0.8853669 -0.01586914 1.78862 C-0.06259063 7.93741244 -0.05353032 14.08433629 -0.01220703 20.2331543 C-0.00410067 22.52709362 -0.01017432 24.82112897 -0.03076172 27.11499023 C-0.057912 30.41517889 -0.03391453 33.71166201 0 37.01171875 C-0.0194165 38.03585373 -0.03883301 39.05998871 -0.05883789 40.11515808 C-0.04766163 45.45632273 -0.04766163 45.45632273 2.7421875 49.75576782 C7.90024371 53.06538771 12.29865294 54.12507944 18.41238403 54.07746887 C19.06604915 54.07394006 19.71971426 54.07041125 20.3931874 54.0667755 C21.82678413 54.05844008 23.26036867 54.04776821 24.69393349 54.03508186 C27.02699035 54.01445097 29.36002033 53.99967909 31.69313049 53.98648071 C34.2067545 53.9722039 36.72037036 53.95754175 39.23398137 53.94112074 C45.47158166 53.90077221 51.70902574 53.88002458 57.94674683 53.8712616 C58.85194317 53.86997798 59.75713951 53.86869437 60.68976605 53.86737186 C64.42477313 53.86249154 68.15978058 53.85831567 71.89478898 53.85458529 C82.49668209 53.84328716 93.09767592 53.81253106 103.69921875 53.72241211 C112.1200368 53.65095598 120.53979564 53.62195395 128.96090877 53.64257544 C133.41605192 53.65190265 137.86883053 53.63997741 142.3235817 53.57660866 C146.51897716 53.51742858 150.71069079 53.51481414 154.90627861 53.55459976 C156.44096012 53.55930014 157.97586744 53.54367628 159.51008415 53.50561714 C171.0862724 53.23550107 171.0862724 53.23550107 175.80398178 57.58533287 C178.08587843 60.62980385 180.02086578 63.75440975 182 67 C191.76967113 78.26363172 204.11662349 85.7806665 217 93 C214.02740234 95.97259766 210.61743596 95.56066239 206.609375 95.81640625 C205.75434387 95.87779282 204.89931274 95.93917938 204.01837158 96.00242615 C202.1927229 96.13180893 200.36675565 96.25675919 198.54052734 96.37768555 C195.82968867 96.55722228 193.11995899 96.74887712 190.41015625 96.94335938 C188.62244757 97.06844994 186.83468811 97.19281725 185.046875 97.31640625 C183.88137115 97.39768517 183.88137115 97.39768517 182.69232178 97.48060608 C179.79566126 97.67139688 176.89848924 97.83901986 174 98 C172.89390129 98.06162858 172.89390129 98.06162858 171.76545715 98.12450218 C156.88011038 98.93260931 142.03022932 99.16302171 127.125 99.16796875 C124.78124981 99.17119858 122.43749981 99.1745638 120.09375 99.17805481 C115.20604996 99.18399373 110.31836745 99.18590039 105.43066406 99.18530273 C100.50549616 99.18522189 95.58042209 99.19210724 90.65527344 99.20581055 C61.70552793 99.28505383 32.88443109 99.05466476 4 97 C2.31991852 96.88291183 2.31991852 96.88291183 0.605896 96.76345825 C-5.70791062 96.3132494 -12.01074065 95.78174251 -18.3125 95.1875 C-19.21083557 95.10484894 -20.10917114 95.02219788 -21.034729 94.93704224 C-84.50049704 89.0521607 -84.50049704 89.0521607 -93 81 C-98.03424004 74.06091238 -98.52185438 67.61983147 -97.375 59.25 C-94.00586295 41.8058496 -84.58467008 27.38784628 -69.9375 17.3125 C-63.35171885 13.33396646 -56.35987656 11.05270901 -49 9 C-48.2560498 8.79133301 -47.51209961 8.58266602 -46.74560547 8.36767578 C-36.79994088 5.62997565 -26.78254058 3.47929404 -16.625 1.6875 C-15.65626953 1.51597412 -14.68753906 1.34444824 -13.68945312 1.16772461 C-9.04925154 0.38442527 -4.71980789 -0.07659525 0 0 Z " fill="#FE5464" transform="translate(159,413)"/>
<path d="M0 0 C1.59714844 0.59748047 1.59714844 0.59748047 3.2265625 1.20703125 C30.93000632 11.40426315 54.61025964 11.10394879 82 0 C82.15855469 0.87140625 82.31710937 1.7428125 82.48046875 2.640625 C85.39181894 17.50298727 90.19567439 28.19567439 101 39 C101.237192 41.52204152 101.36840479 43.97268814 101.4375 46.5 C102.07412083 60.20624294 104.48524269 72.98086149 108.4375 86.125 C108.8698999 87.56480225 108.8698999 87.56480225 109.31103516 89.03369141 C111.08001003 94.68312601 113.28849668 99.74385509 116 105 C116 105.66 116 106.32 116 107 C95.31136742 107.11694335 74.62278956 107.20504205 53.9338932 107.25906086 C44.32707273 107.28481249 34.72045795 107.31990471 25.11376953 107.37719727 C16.7378975 107.42712552 8.36217449 107.45931312 -0.01384223 107.47044247 C-4.44653313 107.47694533 -8.87879784 107.49216495 -13.31135178 107.52865028 C-17.4892896 107.562759 -21.66662839 107.57302324 -25.84469223 107.56553841 C-27.37245446 107.56690635 -28.90023812 107.57675029 -30.42787933 107.59602737 C-39.25645072 107.70190579 -46.5341622 107.18736313 -54 102 C-56 100 -56 100 -56.24050903 97.93722534 C-56.23606781 97.08895172 -56.23162659 96.2406781 -56.22705078 95.36669922 C-56.22689972 94.40585419 -56.22674866 93.44500916 -56.22659302 92.45504761 C-56.21627045 91.41542877 -56.20594788 90.37580994 -56.1953125 89.3046875 C-56.1924826 88.24210724 -56.18965271 87.17952698 -56.18673706 86.08474731 C-56.17551639 82.68138501 -56.15040837 79.27828314 -56.125 75.875 C-56.11497264 73.57161838 -56.10584637 71.26823264 -56.09765625 68.96484375 C-56.07557093 63.30980655 -56.04207489 57.65492187 -56 52 C-55.39886887 51.83067963 -54.79773773 51.66135925 -54.1783905 51.48690796 C-51.42425707 50.7097337 -48.67111167 49.92911307 -45.91796875 49.1484375 C-44.49961731 48.74902954 -44.49961731 48.74902954 -43.0526123 48.34155273 C-28.90205575 44.32140332 -16.26818562 39.46558148 -8.2421875 26.29296875 C-4.36471236 19.13549105 -1.41536618 11.92599852 -0.44921875 3.78515625 C-0.30097656 2.53605469 -0.15273437 1.28695313 0 0 Z " fill="#FCD6AC" transform="translate(215,361)"/>
<path d="M0 0 C0 30.36 0 60.72 0 92 C-35.18022698 88.4819773 -35.18022698 88.4819773 -47.20458984 86.42993164 C-49.45552782 86.04886734 -51.70970588 85.69317173 -53.96484375 85.33789062 C-70.33818069 82.66181931 -70.33818069 82.66181931 -76.375 76.625 C-80.94070387 69.24963221 -80.28478399 62.29651362 -79 54 C-74.91850865 37.26757903 -66.12043684 24.03085031 -51.8125 14.1875 C-37.85666864 5.86467878 -16.32594035 0 0 0 Z " fill="#FCD6AC" transform="translate(141,416)"/>
<path d="M0 0 C19.71356357 2.30274211 37.04189492 10.99534657 49.8125 26.375 C57.74365775 37.12405145 62.56714611 51.58973865 62 65 C60.65235163 70.89930844 58.2671291 74.42015094 53.18603516 77.86450195 C48.87174867 80.10548324 44.18728485 80.78768413 39.4375 81.625 C38.34791992 81.82955811 37.25833984 82.03411621 36.13574219 82.24487305 C9.88395692 87.05643398 9.88395692 87.05643398 -1 87 C-1.79194827 79.53176148 -2.15944619 72.15654456 -2.16796875 64.6484375 C-2.17129715 63.59129547 -2.17462555 62.53415344 -2.17805481 61.44497681 C-2.18308796 59.21462432 -2.18546426 56.9842644 -2.18530273 54.75390625 C-2.18746283 51.43215596 -2.20558452 48.11075309 -2.22460938 44.7890625 C-2.26261961 29.7712617 -1.4388229 14.94737285 0 0 Z " fill="#FCD6AC" transform="translate(389,419)"/>
<path d="M0 0 C6.17895787 3.70969328 9.89828764 9.15099875 12 16 C13.29909499 24.49332556 12.41237925 31.32504607 7.84765625 38.65234375 C3.88015119 43.69350769 -0.90989043 47.00589333 -7 49 C-16.7850041 49.96471871 -24.38343124 49.04887858 -32.1875 43 C-37.70044629 37.84588453 -41.18105716 30.97647093 -41.5 23.375 C-40.82607568 13.90636328 -37.09472579 7.29940956 -30 1 C-19.73604261 -5.62956678 -10.69461025 -5.11550864 0 0 Z " fill="#EAEEEE" transform="translate(332,189)"/>
<path d="M0 0 C6.21862423 3.32678763 11.25954002 9.04271368 14.0625 15.5 C16.26392236 22.8915307 15.74180729 28.80880938 12.5 35.8125 C8.69476823 42.75459731 4.07411306 47.60614906 -3.5703125 50.08984375 C-11.06565787 51.58643911 -18.63552256 51.72187417 -25.30078125 47.68359375 C-25.84089844 47.31363281 -26.38101563 46.94367188 -26.9375 46.5625 C-27.824375 46.005625 -28.71125 45.44875 -29.625 44.875 C-35.06884588 39.43115412 -38.09802794 32.65151152 -38.3125 25.0625 C-38.24037299 17.24072698 -36.57657127 11.54855248 -31.2578125 5.72265625 C-22.58045181 -2.16410047 -11.12533533 -4.22530157 0 0 Z " fill="#EAEEEF" transform="translate(205.9375,187.4375)"/>
<path d="M0 0 C0.33 0 0.66 0 1 0 C1.01458252 1.19786133 1.02916504 2.39572266 1.04418945 3.62988281 C1.1032288 8.1778395 1.18042816 12.72535394 1.26245117 17.27294922 C1.29521383 19.22176813 1.32338763 21.1706709 1.34643555 23.11962891 C1.55926848 40.66249671 3.00167039 57.72960461 8 74.625 C8.2475 75.50027344 8.495 76.37554687 8.75 77.27734375 C10.43570677 83.20365662 12.2178301 89.10209199 14 95 C4.13772904 95.63627555 -2.70745486 93.28076959 -10.25 86.8125 C-19.73058503 77.67315669 -25.98967882 66.20921211 -26.49194336 52.81811523 C-26.52420568 44.53647482 -25.8173887 36.36373954 -20.6875 29.5625 C-15.70512924 24.81186742 -11.75512249 23.65792492 -5.05078125 23.796875 C-3 24 -3 24 0 25 C0 16.75 0 8.5 0 0 Z " fill="#F7C593" transform="translate(123,161)"/>
<path d="M0 0 C5.56674047 2.27952641 9.25253494 5.61074161 12 11 C16.48504824 23.10963025 14.80497526 35.86430737 9.76953125 47.4296875 C7.38306948 52.24475605 4.73768607 56.1509786 1 60 C0.39414062 60.64453125 -0.21171875 61.2890625 -0.8359375 61.953125 C-6.83571557 67.78148084 -14.24269767 71.20516034 -22.6875 71.25 C-23.780625 71.1675 -24.87375 71.085 -26 71 C-25.84144531 70.47535156 -25.68289063 69.95070313 -25.51953125 69.41015625 C-25.00311281 67.69541878 -24.49214551 65.97903692 -23.984375 64.26171875 C-23.29117051 61.96479119 -22.56975618 59.67628318 -21.828125 57.39453125 C-16.08918494 39.4135648 -13.47568729 20.83721674 -13 2 C-8.63302913 -0.44904448 -4.92181741 -0.78393479 0 0 Z " fill="#F8C694" transform="translate(401,185)"/>
<path d="M0 0 C0.91943912 32.04276599 0.9753849 63.95827439 0 96 C-6.23470254 96.09896353 -11.68269299 95.701923 -18 95 C-18 64.31 -18 33.62 -18 2 C-6 0 -6 0 0 0 Z " fill="#FA7C76" transform="translate(159,413)"/>
<path d="M0 0 C1.19625 0.4125 2.3925 0.825 3.625 1.25 C28.62095984 9.5687822 52.74044933 11.30748792 77.48828125 0.98828125 C80 0 80 0 82 0 C82 5.61 82 11.22 82 17 C61.4451509 28.38422412 37.44541409 29.87800489 15.04052734 23.625 C2.90927906 19.90927906 2.90927906 19.90927906 0 17 C-0.07325168 14.13732433 -0.09238205 11.299281 -0.0625 8.4375 C-0.05798828 7.63119141 -0.05347656 6.82488281 -0.04882812 5.99414062 C-0.03700518 3.99606244 -0.01906914 1.99802217 0 0 Z " fill="#F9C795" transform="translate(215,344)"/>
<path d="M0 0 C1.21913086 -0.01836914 1.21913086 -0.01836914 2.46289062 -0.03710938 C8.93708387 -0.05256091 15.86958903 0.12746232 21.3125 3.9375 C23.25967399 6.85826098 23.8125 8.66284954 23.8125 12.1875 C22.375 15.5 22.375 15.5 19.8125 18.1875 C14.55445007 19.20405632 9.53775917 19.22102234 4.19995117 19.07055664 C-8.05989722 18.7501754 -17.16534184 19.67416992 -26.42578125 28.37109375 C-27.56014482 29.54067038 -28.66502001 30.73997252 -29.73046875 31.97265625 C-31.66281448 34.16402956 -33.30506342 35.96259885 -36.1953125 36.69921875 C-39.5486948 36.87864326 -41.80124329 36.43510045 -44.625 34.625 C-46.89637904 31.08164869 -47.45928851 29.46816906 -47.1875 25.1875 C-42.18420864 15.04278961 -32.98557084 7.86081544 -22.6015625 3.77734375 C-19.47812292 2.79819808 -16.37217317 1.93999661 -13.1875 1.1875 C-12.24245605 0.9248938 -12.24245605 0.9248938 -11.27832031 0.65698242 C-7.55855283 -0.1782713 -3.79711357 0.00294122 0 0 Z " fill="#825535" transform="translate(197.1875,139.8125)"/>
<path d="M0 0 C4.63144746 0.83517905 7.67907826 2.71632392 11.578125 5.27734375 C18.46821671 9.62581072 28.97384173 8.49328313 36.8125 7.6875 C40.61364372 6.52987896 43.60864605 5.01117429 46.8125 2.6875 C50.56297482 0.18718346 52.37106266 0.15146446 56.8125 0.6875 C60.50436542 3.27966083 61.64133761 4.72899064 62.4375 9.1875 C61.429487 14.83237278 57.7965025 17.12449826 53.3125 20.25 C41.05335089 27.42387244 26.25150637 28.83812863 12.4375 25.9921875 C9.73796932 25.07956207 7.32950382 24.01979029 4.8125 22.6875 C3.89726562 22.21699219 2.98203125 21.74648438 2.0390625 21.26171875 C-2.7430721 18.61030602 -5.684913 16.68485342 -8.1875 11.6875 C-8.6875 8.6875 -8.6875 8.6875 -8.1875 5.6875 C-5.70624171 2.22877632 -4.18046689 0.90166933 0 0 Z " fill="#823041" transform="translate(229.1875,273.3125)"/>
<path d="M0 0 C2.63016161 2.1727422 4.47336894 3.94673788 6 7 C6.10486659 8.43608972 6.18408297 9.87409615 6.25 11.3125 C6.84463232 18.01917275 9.41073671 23.84545827 12 30 C12.66938591 31.66557639 13.33705641 33.33184892 14 35 C-0.58531673 35.5585866 -0.58531673 35.5585866 -6 33 C-8.19282737 30.23822283 -9.09095103 27.37722262 -10 24 C-10.22171875 23.24847656 -10.4434375 22.49695313 -10.671875 21.72265625 C-12.14591945 16.05555294 -13.34042596 9.45855187 -11.171875 3.86328125 C-8.35834768 -0.61022719 -4.83795762 -0.58389144 0 0 Z " fill="#815433" transform="translate(299,106)"/>
<path d="M0 0 C2.43119623 1.87015094 3.64069173 3.28138345 5 6 C5 12.27 5 18.54 5 25 C26.78 24.67 48.56 24.34 71 24 C71 24.66 71 25.32 71 26 C18.2 26 -34.6 26 -89 26 C-89 25.67 -89 25.34 -89 25 C-63.92 25 -38.84 25 -13 25 C-13 18.73 -13 12.46 -13 6 C-9.31615088 -0.13974854 -6.99436347 -1.03876685 0 0 Z " fill="#FAC598" transform="translate(260,442)"/>
<path d="M0 0 C0.99837891 -0.020625 1.99675781 -0.04125 3.02539062 -0.0625 C12.29519618 -0.11190603 12.29519618 -0.11190603 16.1875 3.25 C17.78001643 6.43503287 17.57879761 9.7832405 17.1875 13.25 C15.44496655 16.48613354 14.71564056 17.07395315 11.1875 18.25 C7.40103467 18.55781103 3.60999472 18.5736825 -0.1875 18.625 C-1.2290625 18.66238281 -2.270625 18.69976562 -3.34375 18.73828125 C-10.87258313 18.82493022 -10.87258313 18.82493022 -13.61816406 17.14550781 C-14.9765625 15.7890625 -14.9765625 15.7890625 -16.8125 13.25 C-17.1425 12.92 -17.4725 12.59 -17.8125 12.25 C-17.59090372 8.33513239 -17.38759372 5.95495359 -14.875 2.875 C-10.29603194 -0.73267181 -5.62732909 0.02872918 0 0 Z " fill="#F09473" transform="translate(255.8125,237.75)"/>
<path d="M0 0 C1.6406543 -0.05607422 1.6406543 -0.05607422 3.31445312 -0.11328125 C11.37106942 -0.20165364 11.37106942 -0.20165364 15.40625 2.6484375 C17.89266494 6.45439721 17.89266494 6.45439721 17.875 9.375 C17.89949219 10.014375 17.92398438 10.65375 17.94921875 11.3125 C16.66282942 14.79564649 14.40660689 16.73812601 11.1875 18.375 C7.50082965 19.09117114 3.9327283 19.07450719 0.1875 19 C-0.78445312 19.01933594 -1.75640625 19.03867187 -2.7578125 19.05859375 C-7.30383463 19.0276263 -10.76977862 18.93666059 -14.4296875 16.0546875 C-17.409628 12.70347572 -17.97206616 10.84285237 -17.8125 6.375 C-13.19106589 -0.95555066 -7.96698655 0.10220041 0 0 Z " fill="#F9C795" transform="translate(255.8125,308.625)"/>
<path d="M0 0 C3.85544798 1.99657127 5.59805092 3.39707638 8 7 C8.75792684 11.57671208 9.06639478 16.12236011 6.7265625 20.2421875 C2.04060373 25.75104634 2.04060373 25.75104634 -1.953125 26.23828125 C-7.486723 26.41708799 -10.72497829 25.86787679 -15 22 C-17.910372 17.634442 -18.6506249 14.20499921 -18 9 C-13.62297765 0.87124421 -8.95728987 -1.29979601 0 0 Z " fill="#394C61" transform="translate(318,199)"/>
<path d="M0 0 C4.38773175 2.19386588 7.09334197 4.44520582 9 9 C9.64467431 13.9732018 8.9212369 17.34414189 6.2578125 21.48828125 C3.15994768 25.21149146 -0.30833126 25.90119018 -4.9375 26.5625 C-9.27872324 26.42057539 -11.57978499 24.40539639 -14.65234375 21.5078125 C-17.78896287 17.99843574 -17.38496367 14.20994895 -17.35546875 9.703125 C-17 7 -17 7 -14.6875 3.9375 C-9.4277489 0.14558642 -6.41640827 -0.88842576 0 0 Z " fill="#384C60" transform="translate(203,199)"/>
<path d="M0 0 C3 2 3 2 5 5 C5.39071246 9.03736212 5.12103487 12.20697953 4.51171875 16.19921875 C3.93978107 20.44727495 3.66109831 24.65980772 3.4375 28.9375 C3.39431641 29.71673828 3.35113281 30.49597656 3.30664062 31.29882812 C3.20171923 33.19907117 3.1004755 35.09951669 3 37 C-1.0542702 36.49321623 -2.52556096 34.63171191 -5 31.5 C-10.86111715 23.77994644 -13.83152243 17.55366408 -13.44140625 7.6875 C-13 5 -13 5 -11 1.75 C-7.15472822 -0.49307521 -4.34256506 -1.06813092 0 0 Z " fill="#815434" transform="translate(313,361)"/>
<path d="M0 0 C0.66 0.33 1.32 0.66 2 1 C1.49339844 1.65742188 1.49339844 1.65742188 0.9765625 2.328125 C-3.18021036 8.23891184 -4.20661315 13.89504313 -5 21 C-10.98522776 21.49876898 -14.96229121 20.29039538 -20 17 C-22.52546733 14.63237438 -22.92672427 13.49199416 -23.4375 10.0625 C-22.89919863 6.29439042 -21.62436976 4.70155711 -19 2 C-16.2201184 0.6100592 -14.0813674 0.81511796 -11 1 C-9.66666667 1.66666667 -8.33333333 2.33333333 -7 3 C-3.94134325 2.62925373 -2.64831694 1.76554463 0 0 Z " fill="#3C4E61" transform="translate(173,193)"/>
<path d="M0 0 C1.11375 0.4640625 1.11375 0.4640625 2.25 0.9375 C5.55545675 2.25703609 5.55545675 2.25703609 9 3 C9.61875 2.690625 10.2375 2.38125 10.875 2.0625 C13.80543137 0.59728431 15.75880545 0.60311903 19 1 C21.69990662 2.79993774 23.5418865 4.083773 25 7 C25.4036227 10.63260431 25.29160681 12.49843628 23.4375 15.6875 C19.37793708 19.5388802 15.6264192 20.92255147 10.0625 21.1875 C9.051875 21.125625 8.04125 21.06375 7 21 C6.87044922 19.85724609 6.87044922 19.85724609 6.73828125 18.69140625 C5.75749095 11.48394726 4.01715521 6.07173078 0 0 Z " fill="#3B4E61" transform="translate(337,193)"/>
</svg>
